{"glyphs":{"0":{"ha":951,"x_min":0,"x_max":0,"o":"m 475 -25 b 864 490 718 -25 864 166 b 475 1004 864 815 715 1004 b 87 491 235 1004 87 815 b 475 -25 87 166 233 -25 z m 475 137 b 294 491 363 137 294 256 b 475 842 294 724 364 842 b 656 491 587 842 656 724 b 475 137 656 256 588 137 z "},"1":{"ha":713,"x_min":0,"x_max":0,"o":"m 336 0 l 541 0 l 541 979 l 336 979 l 83 803 l 83 618 l 323 785 l 336 785 z "},"2":{"ha":894,"x_min":0,"x_max":0,"o":"m 87 682 l 277 682 b 439 844 277 777 340 844 b 591 701 535 844 591 781 b 442 469 591 633 564 588 l 99 138 l 99 0 l 805 0 l 805 165 l 375 165 l 375 177 l 578 371 b 791 719 741 526 791 604 b 451 1004 791 884 659 1004 b 87 682 237 1004 87 872 z "},"3":{"ha":929,"x_min":0,"x_max":0,"o":"m 335 429 l 459 429 b 637 284 569 429 637 374 b 460 140 637 198 564 140 b 279 278 355 140 285 193 l 83 278 b 463 -25 92 95 242 -25 b 846 267 684 -25 846 96 b 627 506 846 399 763 486 l 627 518 b 807 741 732 545 806 622 b 470 1004 808 884 687 1004 b 104 704 250 1004 111 882 l 293 704 b 460 846 300 794 361 846 b 613 713 555 846 613 788 b 457 575 613 631 550 575 l 335 575 z "},"4":{"ha":956,"x_min":0,"x_max":0,"o":"m 556 0 l 751 0 l 751 180 l 880 180 l 880 344 l 751 344 l 751 979 l 465 979 b 77 340 334 778 201 561 l 77 180 l 556 180 z m 261 349 b 550 823 350 507 454 677 l 561 823 l 561 338 l 261 338 z "},"5":{"ha":922,"x_min":0,"x_max":0,"o":"m 471 -25 b 839 323 692 -25 839 116 b 535 645 839 521 704 645 b 321 548 433 645 361 609 l 309 548 l 334 816 l 786 816 l 786 979 l 175 979 l 123 405 l 306 405 b 473 500 336 463 396 500 b 644 321 573 500 644 429 b 469 138 644 210 572 138 b 298 277 378 138 309 192 l 109 277 b 471 -25 115 102 259 -25 z "},"6":{"ha":950,"x_min":0,"x_max":0,"o":"m 490 -24 b 864 322 709 -24 864 119 b 542 646 864 509 728 646 b 292 502 428 646 337 594 l 280 502 b 494 841 280 719 359 841 b 648 731 574 841 633 800 l 851 731 b 492 1004 827 893 684 1004 b 85 481 241 1004 85 808 b 490 -24 85 143 255 -24 z m 488 138 b 311 320 386 138 311 217 b 488 496 311 422 383 496 b 665 317 593 496 665 422 b 488 138 665 216 589 138 z "},"7":{"ha":840,"x_min":0,"x_max":0,"o":"m 142 0 l 357 0 l 766 814 l 766 979 l 66 979 l 66 816 l 559 816 l 559 804 z "},"8":{"ha":964,"x_min":0,"x_max":0,"o":"m 481 -25 b 878 263 717 -25 878 92 b 661 511 878 389 791 488 l 661 524 b 838 737 768 549 838 633 b 482 1004 838 892 690 1004 b 126 737 274 1004 126 892 b 302 524 126 633 196 549 l 302 511 b 87 262 172 483 87 385 b 481 -25 87 91 246 -25 z m 481 581 b 328 718 391 581 328 637 b 481 857 328 800 391 857 b 635 718 572 857 635 800 b 481 581 635 637 572 581 z m 481 125 b 300 279 374 125 300 189 b 481 434 300 371 374 434 b 664 279 589 434 664 371 b 481 125 664 189 589 125 z "},"9":{"ha":950,"x_min":0,"x_max":0,"o":"m 457 -24 b 865 498 712 -24 865 172 b 460 1004 865 817 709 1004 b 86 657 241 1004 86 860 b 408 334 86 470 222 334 b 658 477 522 334 613 385 l 670 477 b 460 138 671 264 593 138 b 302 247 382 138 319 180 l 99 247 b 457 -24 126 85 271 -24 z m 462 486 b 285 663 357 486 285 559 b 463 842 285 764 360 842 b 640 660 565 842 640 762 b 462 486 640 559 566 486 z "}," ":{"ha":0,"x_min":0,"x_max":0,"o":""}," ":{"ha":358,"x_min":0,"x_max":0,"o":""}," ":{"ha":358,"x_min":0,"x_max":0,"o":""}," ":{"ha":694,"x_min":0,"x_max":0,"o":""}," ":{"ha":1389,"x_min":0,"x_max":0,"o":""}," ":{"ha":891,"x_min":0,"x_max":0,"o":""}," ":{"ha":1406,"x_min":0,"x_max":0,"o":""}," ":{"ha":463,"x_min":0,"x_max":0,"o":""}," ":{"ha":347,"x_min":0,"x_max":0,"o":""}," ":{"ha":231,"x_min":0,"x_max":0,"o":""}," ":{"ha":960,"x_min":0,"x_max":0,"o":""}," ":{"ha":483,"x_min":0,"x_max":0,"o":""}," ":{"ha":278,"x_min":0,"x_max":0,"o":""}," ":{"ha":77,"x_min":0,"x_max":0,"o":""},"​":{"ha":0,"x_min":0,"x_max":0,"o":""},"‌":{"ha":0,"x_min":0,"x_max":0,"o":""},"‍":{"ha":0,"x_min":0,"x_max":0,"o":""}," ":{"ha":278,"x_min":0,"x_max":0,"o":""}," ":{"ha":347,"x_min":0,"x_max":0,"o":""},"A":{"ha":1017,"x_min":0,"x_max":0,"o":"m 747 0 l 969 0 l 629 979 l 389 979 l 49 0 l 254 0 l 330 237 l 673 237 z m 496 780 l 509 780 l 630 391 l 374 391 z "},"À":{"ha":1017,"x_min":0,"x_max":0,"o":"m 433 1078 l 580 1078 l 463 1297 l 261 1297 z m 747 0 l 969 0 l 629 979 l 389 979 l 49 0 l 254 0 l 330 237 l 673 237 z m 496 780 l 509 780 l 630 391 l 374 391 z "},"Á":{"ha":1017,"x_min":0,"x_max":0,"o":"m 585 1078 l 756 1297 l 554 1297 l 438 1078 z m 747 0 l 969 0 l 629 979 l 389 979 l 49 0 l 254 0 l 330 237 l 673 237 z m 496 780 l 509 780 l 630 391 l 374 391 z "},"Ä":{"ha":1017,"x_min":0,"x_max":0,"o":"m 346 1088 b 451 1192 404 1088 451 1133 b 346 1295 451 1250 404 1295 b 240 1192 288 1295 240 1250 b 346 1088 240 1133 288 1088 z m 672 1088 b 777 1192 730 1088 777 1133 b 672 1295 777 1250 730 1295 b 566 1192 614 1295 566 1250 b 672 1088 566 1133 614 1088 z m 747 0 l 969 0 l 629 979 l 389 979 l 49 0 l 254 0 l 330 237 l 673 237 z m 496 780 l 509 780 l 630 391 l 374 391 z "},"Ǟ":{"ha":1017,"x_min":0,"x_max":0,"o":"m 256 1461 l 256 1350 l 762 1350 l 762 1461 z m 350 1270 b 246 1171 290 1270 246 1228 b 350 1071 246 1113 290 1071 b 454 1171 410 1071 454 1113 b 350 1270 454 1228 410 1270 z m 667 1270 b 564 1171 608 1270 564 1228 b 667 1071 564 1113 608 1071 b 772 1171 728 1071 772 1113 b 667 1270 772 1228 728 1270 z m 747 0 l 969 0 l 629 979 l 389 979 l 49 0 l 254 0 l 330 237 l 673 237 z m 496 780 l 509 780 l 630 391 l 374 391 z "},"Å":{"ha":1017,"x_min":0,"x_max":0,"o":"m 509 1042 b 651 1181 587 1042 651 1103 b 509 1320 651 1260 587 1320 b 367 1181 431 1320 367 1260 b 509 1042 367 1103 431 1042 z m 509 1120 b 446 1181 473 1120 446 1145 b 509 1243 446 1217 473 1243 b 572 1181 544 1243 572 1217 b 509 1120 572 1145 544 1120 z m 747 0 l 969 0 l 629 979 l 389 979 l 49 0 l 254 0 l 330 237 l 673 237 z m 496 780 l 509 780 l 630 391 l 374 391 z "},"Ǻ":{"ha":1017,"x_min":0,"x_max":0,"o":"m 503 1499 l 429 1371 l 590 1371 l 682 1499 z m 509 1039 b 655 1181 592 1039 655 1099 b 509 1322 655 1262 592 1322 b 363 1181 426 1322 363 1262 b 509 1039 363 1099 426 1039 z m 509 1121 b 450 1180 475 1121 450 1146 b 509 1238 450 1213 475 1238 b 567 1180 542 1238 567 1213 b 509 1121 567 1147 543 1121 z m 747 0 l 969 0 l 629 979 l 389 979 l 49 0 l 254 0 l 330 237 l 673 237 z m 496 780 l 509 780 l 630 391 l 374 391 z "},"Ã":{"ha":1017,"x_min":0,"x_max":0,"o":"m 609 1070 b 778 1284 709 1070 778 1151 l 655 1284 b 603 1188 655 1224 640 1188 b 413 1287 542 1188 522 1287 b 246 1073 314 1287 246 1208 l 369 1073 b 421 1164 369 1133 385 1164 b 609 1070 478 1164 499 1070 z m 747 0 l 969 0 l 629 979 l 389 979 l 49 0 l 254 0 l 330 237 l 673 237 z m 496 780 l 509 780 l 630 391 l 374 391 z "},"Ằ":{"ha":1017,"x_min":0,"x_max":0,"o":"m 597 1302 l 473 1473 l 290 1473 l 445 1302 z m 780 1293 l 639 1293 b 509 1185 637 1228 587 1185 b 378 1293 430 1185 380 1228 l 238 1293 b 509 1071 238 1163 341 1071 b 780 1293 676 1071 780 1163 z m 747 0 l 969 0 l 629 979 l 389 979 l 49 0 l 254 0 l 330 237 l 673 237 z m 496 780 l 509 780 l 630 391 l 374 391 z "},"Ǡ":{"ha":1017,"x_min":0,"x_max":0,"o":"m 762 1461 l 256 1461 l 256 1350 l 762 1350 z m 509 1069 b 614 1168 570 1069 614 1112 b 509 1267 614 1225 570 1267 b 403 1168 447 1267 403 1225 b 509 1069 403 1112 447 1069 z m 747 0 l 969 0 l 629 979 l 389 979 l 49 0 l 254 0 l 330 237 l 673 237 z m 496 780 l 509 780 l 630 391 l 374 391 z "},"Ḁ":{"ha":1017,"x_min":0,"x_max":0,"o":"m 747 0 l 969 0 l 629 979 l 389 979 l 49 0 l 254 0 l 330 237 l 673 237 z m 496 780 l 509 780 l 630 391 l 374 391 z m 501 -354 b 667 -193 591 -354 667 -286 b 501 -31 667 -100 591 -31 b 335 -193 411 -31 335 -100 b 501 -354 335 -286 411 -354 z m 501 -264 b 429 -193 461 -264 429 -234 b 501 -121 429 -151 461 -121 b 574 -193 541 -121 574 -151 b 501 -264 574 -234 541 -264 z "},"Â":{"ha":1017,"x_min":0,"x_max":0,"o":"m 416 1297 l 224 1078 l 404 1078 l 503 1200 l 515 1200 l 614 1078 l 793 1078 l 601 1297 z m 747 0 l 969 0 l 629 979 l 389 979 l 49 0 l 254 0 l 330 237 l 673 237 z m 496 780 l 509 780 l 630 391 l 374 391 z "},"Ậ":{"ha":1017,"x_min":0,"x_max":0,"o":"m 416 1297 l 224 1078 l 404 1078 l 503 1200 l 515 1200 l 614 1078 l 793 1078 l 601 1297 z m 747 0 l 969 0 l 629 979 l 389 979 l 49 0 l 254 0 l 330 237 l 673 237 z m 496 780 l 509 780 l 630 391 l 374 391 z m 501 -302 b 612 -193 562 -302 612 -254 b 501 -83 612 -132 562 -83 b 389 -193 440 -83 389 -132 b 501 -302 389 -254 440 -302 z "},"Ấ":{"ha":1017,"x_min":0,"x_max":0,"o":"m 669 1276 l 834 1276 l 978 1473 l 793 1473 z m 410 1251 l 222 1071 l 406 1071 l 502 1167 l 515 1167 l 611 1071 l 795 1071 l 607 1251 z m 747 0 l 969 0 l 629 979 l 389 979 l 49 0 l 254 0 l 330 237 l 673 237 z m 496 780 l 509 780 l 630 391 l 374 391 z "},"Ẫ":{"ha":1017,"x_min":0,"x_max":0,"o":"m 610 1284 b 774 1473 706 1284 774 1356 l 656 1473 b 597 1398 653 1421 629 1398 b 408 1482 532 1398 517 1482 b 244 1296 311 1482 244 1413 l 361 1296 b 420 1369 364 1343 386 1369 b 610 1284 486 1369 500 1284 z m 410 1248 l 222 1071 l 406 1071 l 502 1167 l 515 1167 l 611 1071 l 795 1071 l 607 1248 z m 747 0 l 969 0 l 629 979 l 389 979 l 49 0 l 254 0 l 330 237 l 673 237 z m 496 780 l 509 780 l 630 391 l 374 391 z "},"Ầ":{"ha":1017,"x_min":0,"x_max":0,"o":"m 866 1276 l 743 1473 l 557 1473 l 701 1276 z m 410 1251 l 222 1071 l 406 1071 l 502 1167 l 515 1167 l 611 1071 l 795 1071 l 607 1251 z m 747 0 l 969 0 l 629 979 l 389 979 l 49 0 l 254 0 l 330 237 l 673 237 z m 496 780 l 509 780 l 630 391 l 374 391 z "},"Ẩ":{"ha":1017,"x_min":0,"x_max":0,"o":"m 607 1373 b 670 1383 622 1379 646 1383 b 734 1334 709 1383 734 1364 b 673 1265 734 1307 714 1281 l 745 1198 b 859 1350 818 1225 859 1281 b 700 1482 859 1430 796 1482 b 607 1470 662 1482 627 1476 z m 410 1251 l 222 1071 l 406 1071 l 502 1167 l 515 1167 l 611 1071 l 795 1071 l 607 1251 z m 747 0 l 969 0 l 629 979 l 389 979 l 49 0 l 254 0 l 330 237 l 673 237 z m 496 780 l 509 780 l 630 391 l 374 391 z "},"Ă":{"ha":1017,"x_min":0,"x_max":0,"o":"m 241 1295 b 509 1072 241 1164 341 1072 b 777 1295 676 1072 777 1164 l 635 1295 b 509 1185 634 1230 587 1185 b 382 1295 430 1185 383 1230 z m 747 0 l 969 0 l 629 979 l 389 979 l 49 0 l 254 0 l 330 237 l 673 237 z m 496 780 l 509 780 l 630 391 l 374 391 z "},"Ắ":{"ha":1017,"x_min":0,"x_max":0,"o":"m 420 1302 l 572 1302 l 728 1473 l 545 1473 z m 238 1293 b 509 1071 238 1163 341 1071 b 780 1293 676 1071 780 1163 l 639 1293 b 509 1185 637 1228 587 1185 b 378 1293 430 1185 380 1228 z m 747 0 l 969 0 l 629 979 l 389 979 l 49 0 l 254 0 l 330 237 l 673 237 z m 496 780 l 509 780 l 630 391 l 374 391 z "},"Ẵ":{"ha":1017,"x_min":0,"x_max":0,"o":"m 613 1293 b 768 1466 705 1293 768 1362 l 651 1466 b 595 1402 649 1423 625 1402 b 405 1482 533 1402 508 1482 b 249 1311 313 1482 249 1415 l 367 1311 b 422 1373 368 1350 390 1373 b 613 1293 485 1373 510 1293 z m 250 1257 b 509 1071 250 1159 349 1071 b 768 1257 669 1071 768 1159 l 634 1257 b 509 1179 633 1219 586 1179 b 383 1257 431 1179 385 1219 z m 747 0 l 969 0 l 629 979 l 389 979 l 49 0 l 254 0 l 330 237 l 673 237 z m 496 780 l 509 780 l 630 391 l 374 391 z "},"Ẳ":{"ha":1017,"x_min":0,"x_max":0,"o":"m 374 1399 b 441 1411 392 1407 417 1411 b 508 1360 481 1411 508 1391 b 444 1291 508 1333 486 1305 l 503 1220 b 628 1376 584 1251 628 1307 b 463 1508 628 1457 564 1508 b 374 1493 429 1508 396 1501 z m 245 1270 b 509 1061 245 1147 347 1061 b 772 1270 671 1061 772 1147 l 645 1270 b 509 1171 642 1210 592 1171 b 372 1270 425 1171 376 1210 z m 747 0 l 969 0 l 629 979 l 389 979 l 49 0 l 254 0 l 330 237 l 673 237 z m 496 780 l 509 780 l 630 391 l 374 391 z "},"Ặ":{"ha":1017,"x_min":0,"x_max":0,"o":"m 241 1295 b 509 1072 241 1164 341 1072 b 777 1295 676 1072 777 1164 l 635 1295 b 509 1185 634 1230 587 1185 b 382 1295 430 1185 383 1230 z m 747 0 l 969 0 l 629 979 l 389 979 l 49 0 l 254 0 l 330 237 l 673 237 z m 496 780 l 509 780 l 630 391 l 374 391 z m 501 -302 b 612 -193 562 -302 612 -254 b 501 -83 612 -132 562 -83 b 389 -193 440 -83 389 -132 b 501 -302 389 -254 440 -302 z "},"Ȃ":{"ha":1017,"x_min":0,"x_max":0,"o":"m 777 1072 b 509 1295 777 1202 676 1295 b 241 1072 341 1295 241 1202 l 382 1072 b 509 1181 383 1137 430 1181 b 635 1072 587 1181 634 1137 z m 747 0 l 969 0 l 629 979 l 389 979 l 49 0 l 254 0 l 330 237 l 673 237 z m 496 780 l 509 780 l 630 391 l 374 391 z "},"Ǎ":{"ha":1017,"x_min":0,"x_max":0,"o":"m 601 1078 l 793 1297 l 614 1297 l 515 1174 l 503 1174 l 404 1297 l 224 1297 l 416 1078 z m 747 0 l 969 0 l 629 979 l 389 979 l 49 0 l 254 0 l 330 237 l 673 237 z m 496 780 l 509 780 l 630 391 l 374 391 z "},"Ȧ":{"ha":1017,"x_min":0,"x_max":0,"o":"m 509 1083 b 621 1193 570 1083 621 1132 b 509 1303 621 1255 570 1303 b 397 1193 448 1303 397 1255 b 509 1083 397 1132 448 1083 z m 747 0 l 969 0 l 629 979 l 389 979 l 49 0 l 254 0 l 330 237 l 673 237 z m 496 780 l 509 780 l 630 391 l 374 391 z "},"Ạ":{"ha":1017,"x_min":0,"x_max":0,"o":"m 747 0 l 969 0 l 629 979 l 389 979 l 49 0 l 254 0 l 330 237 l 673 237 z m 496 780 l 509 780 l 630 391 l 374 391 z m 501 -302 b 612 -193 562 -302 612 -254 b 501 -83 612 -132 562 -83 b 389 -193 440 -83 389 -132 b 501 -302 389 -254 440 -302 z "},"Ả":{"ha":1017,"x_min":0,"x_max":0,"o":"m 369 1236 b 444 1249 386 1243 415 1249 b 517 1196 489 1249 517 1227 b 445 1124 517 1167 488 1140 l 508 1048 b 643 1214 591 1080 643 1140 b 474 1354 643 1299 574 1354 b 369 1338 431 1354 392 1346 z m 747 0 l 969 0 l 629 979 l 389 979 l 49 0 l 254 0 l 330 237 l 673 237 z m 496 780 l 509 780 l 630 391 l 374 391 z "},"Ȁ":{"ha":1017,"x_min":0,"x_max":0,"o":"m 713 1078 l 640 1297 l 469 1297 l 578 1078 z m 457 1078 l 350 1297 l 164 1297 l 320 1078 z m 747 0 l 969 0 l 629 979 l 389 979 l 49 0 l 254 0 l 330 237 l 673 237 z m 496 780 l 509 780 l 630 391 l 374 391 z "},"Ā":{"ha":1017,"x_min":0,"x_max":0,"o":"m 755 1249 l 263 1249 l 263 1129 l 755 1129 z m 747 0 l 969 0 l 629 979 l 389 979 l 49 0 l 254 0 l 330 237 l 673 237 z m 496 780 l 509 780 l 630 391 l 374 391 z "},"Ą":{"ha":1017,"x_min":0,"x_max":0,"o":"m 841 -315 b 939 -300 871 -315 908 -310 l 939 -189 b 892 -195 922 -193 906 -195 b 806 -125 834 -195 806 -166 b 948 0 806 -70 859 -17 l 969 0 l 629 979 l 389 979 l 49 0 l 254 0 l 330 237 l 673 237 l 747 1 b 654 -162 685 -46 654 -106 b 841 -315 654 -254 729 -315 z m 496 780 l 509 780 l 630 391 l 374 391 z "},"B":{"ha":963,"x_min":0,"x_max":0,"o":"m 558 0 b 897 280 767 0 897 108 b 673 513 897 406 802 503 l 673 526 b 850 734 773 541 850 631 b 547 979 850 886 736 979 l 119 979 l 119 0 z m 323 827 l 494 827 b 648 699 592 827 648 779 b 477 572 648 618 588 572 l 323 572 z m 323 153 l 323 437 l 501 437 b 688 296 622 437 688 388 b 506 153 688 203 624 153 z "},"Ḇ":{"ha":963,"x_min":0,"x_max":0,"o":"m 558 0 b 897 280 767 0 897 108 b 673 513 897 406 802 503 l 673 526 b 850 734 773 541 850 631 b 547 979 850 886 736 979 l 119 979 l 119 0 z m 323 827 l 494 827 b 648 699 592 827 648 779 b 477 572 648 618 588 572 l 323 572 z m 323 153 l 323 437 l 501 437 b 688 296 622 437 688 388 b 506 153 688 203 624 153 z m 682 -133 l 191 -133 l 191 -252 l 682 -252 z "},"Ḅ":{"ha":963,"x_min":0,"x_max":0,"o":"m 558 0 b 897 280 767 0 897 108 b 673 513 897 406 802 503 l 673 526 b 850 734 773 541 850 631 b 547 979 850 886 736 979 l 119 979 l 119 0 z m 323 827 l 494 827 b 648 699 592 827 648 779 b 477 572 648 618 588 572 l 323 572 z m 323 153 l 323 437 l 501 437 b 688 296 622 437 688 388 b 506 153 688 203 624 153 z m 436 -302 b 548 -193 498 -302 548 -254 b 436 -83 548 -132 498 -83 b 325 -193 375 -83 325 -132 b 436 -302 325 -254 375 -302 z "},"Ḃ":{"ha":963,"x_min":0,"x_max":0,"o":"m 436 1083 b 548 1193 498 1083 548 1132 b 436 1303 548 1255 498 1303 b 325 1193 375 1303 325 1255 b 436 1083 325 1132 375 1083 z m 558 0 b 897 280 767 0 897 108 b 673 513 897 406 802 503 l 673 526 b 850 734 773 541 850 631 b 547 979 850 886 736 979 l 119 979 l 119 0 z m 323 827 l 494 827 b 648 699 592 827 648 779 b 477 572 648 618 588 572 l 323 572 z m 323 153 l 323 437 l 501 437 b 688 296 622 437 688 388 b 506 153 688 203 624 153 z "},"C":{"ha":1029,"x_min":0,"x_max":0,"o":"m 534 -25 b 960 327 770 -25 943 118 l 760 327 b 535 150 741 219 652 150 b 285 490 380 150 285 280 b 534 829 285 699 380 829 b 760 642 651 829 740 755 l 959 642 b 534 1004 944 852 766 1004 b 75 490 250 1004 75 808 b 534 -25 75 172 251 -25 z "},"Ć":{"ha":1029,"x_min":0,"x_max":0,"o":"m 610 1078 l 782 1297 l 580 1297 l 463 1078 z m 534 -25 b 960 327 770 -25 943 118 l 760 327 b 535 150 741 219 652 150 b 285 490 380 150 285 280 b 534 829 285 699 380 829 b 760 642 651 829 740 755 l 959 642 b 534 1004 944 852 766 1004 b 75 490 250 1004 75 808 b 534 -25 75 172 251 -25 z "},"Č":{"ha":1029,"x_min":0,"x_max":0,"o":"m 627 1078 l 819 1297 l 640 1297 l 541 1174 l 528 1174 l 429 1297 l 250 1297 l 442 1078 z m 534 -25 b 960 327 770 -25 943 118 l 760 327 b 535 150 741 219 652 150 b 285 490 380 150 285 280 b 534 829 285 699 380 829 b 760 642 651 829 740 755 l 959 642 b 534 1004 944 852 766 1004 b 75 490 250 1004 75 808 b 534 -25 75 172 251 -25 z "},"Ĉ":{"ha":1029,"x_min":0,"x_max":0,"o":"m 442 1297 l 250 1078 l 429 1078 l 528 1200 l 541 1200 l 640 1078 l 819 1078 l 627 1297 z m 534 -25 b 960 327 770 -25 943 118 l 760 327 b 535 150 741 219 652 150 b 285 490 380 150 285 280 b 534 829 285 699 380 829 b 760 642 651 829 740 755 l 959 642 b 534 1004 944 852 766 1004 b 75 490 250 1004 75 808 b 534 -25 75 172 251 -25 z "},"Ċ":{"ha":1029,"x_min":0,"x_max":0,"o":"m 534 1083 b 646 1193 595 1083 646 1132 b 534 1303 646 1255 595 1303 b 422 1193 473 1303 422 1255 b 534 1083 422 1132 473 1083 z m 534 -25 b 960 327 770 -25 943 118 l 760 327 b 535 150 741 219 652 150 b 285 490 380 150 285 280 b 534 829 285 699 380 829 b 760 642 651 829 740 755 l 959 642 b 534 1004 944 852 766 1004 b 75 490 250 1004 75 808 b 534 -25 75 172 251 -25 z "},"Ç":{"ha":1029,"x_min":0,"x_max":0,"o":"m 431 -162 l 476 -162 b 564 -199 534 -162 564 -171 b 484 -238 564 -229 524 -238 b 410 -229 452 -238 420 -232 l 410 -321 b 509 -333 437 -328 474 -333 b 700 -193 619 -333 700 -289 b 561 -73 700 -121 644 -79 l 593 -22 b 960 327 798 -1 944 136 l 760 327 b 535 150 741 219 652 150 b 285 490 380 150 285 280 b 534 829 285 699 380 829 b 760 642 651 829 740 755 l 959 642 b 534 1004 944 852 766 1004 b 75 490 250 1004 75 808 b 469 -22 75 196 224 7 l 431 -83 z "},"Ḉ":{"ha":1029,"x_min":0,"x_max":0,"o":"m 610 1078 l 782 1297 l 580 1297 l 463 1078 z m 431 -162 l 476 -162 b 564 -199 534 -162 564 -171 b 484 -238 564 -229 524 -238 b 410 -229 452 -238 420 -232 l 410 -321 b 509 -333 437 -328 474 -333 b 700 -193 619 -333 700 -289 b 561 -73 700 -121 644 -79 l 593 -22 b 960 327 798 -1 944 136 l 760 327 b 535 150 741 219 652 150 b 285 490 380 150 285 280 b 534 829 285 699 380 829 b 760 642 651 829 740 755 l 959 642 b 534 1004 944 852 766 1004 b 75 490 250 1004 75 808 b 469 -22 75 196 224 7 l 431 -83 z "},"D":{"ha":1038,"x_min":0,"x_max":0,"o":"m 119 979 l 119 0 l 504 0 b 963 496 797 0 963 179 b 504 979 963 803 795 979 z m 323 810 l 471 810 b 754 492 649 810 754 694 b 471 169 754 283 652 169 l 323 169 z "},"Ḋ":{"ha":1038,"x_min":0,"x_max":0,"o":"m 440 1083 b 552 1193 502 1083 552 1132 b 440 1303 552 1255 502 1303 b 329 1193 379 1303 329 1255 b 440 1083 329 1132 379 1083 z m 119 979 l 119 0 l 504 0 b 963 496 797 0 963 179 b 504 979 963 803 795 979 z m 323 810 l 471 810 b 754 492 649 810 754 694 b 471 169 754 283 652 169 l 323 169 z "},"Ḓ":{"ha":1038,"x_min":0,"x_max":0,"o":"m 119 979 l 119 0 l 504 0 b 963 496 797 0 963 179 b 504 979 963 803 795 979 z m 323 810 l 471 810 b 754 492 649 810 754 694 b 471 169 754 283 652 169 l 323 169 z m 348 -86 l 155 -305 l 335 -305 l 434 -182 l 446 -182 l 545 -305 l 725 -305 l 532 -86 z "},"Ḑ":{"ha":1038,"x_min":0,"x_max":0,"o":"m 119 979 l 119 0 l 504 0 b 963 496 797 0 963 179 b 504 979 963 803 795 979 z m 323 810 l 471 810 b 754 492 649 810 754 694 b 471 169 754 283 652 169 l 323 169 z m 423 -335 l 536 -86 l 345 -86 l 279 -335 z "},"Ḏ":{"ha":1038,"x_min":0,"x_max":0,"o":"m 119 979 l 119 0 l 504 0 b 963 496 797 0 963 179 b 504 979 963 803 795 979 z m 323 810 l 471 810 b 754 492 649 810 754 694 b 471 169 754 283 652 169 l 323 169 z m 686 -133 l 195 -133 l 195 -252 l 686 -252 z "},"Ď":{"ha":1038,"x_min":0,"x_max":0,"o":"m 532 1078 l 725 1297 l 545 1297 l 446 1174 l 434 1174 l 335 1297 l 155 1297 l 348 1078 z m 119 979 l 119 0 l 504 0 b 963 496 797 0 963 179 b 504 979 963 803 795 979 z m 323 810 l 471 810 b 754 492 649 810 754 694 b 471 169 754 283 652 169 l 323 169 z "},"Ḍ":{"ha":1038,"x_min":0,"x_max":0,"o":"m 119 979 l 119 0 l 504 0 b 963 496 797 0 963 179 b 504 979 963 803 795 979 z m 323 810 l 471 810 b 754 492 649 810 754 694 b 471 169 754 283 652 169 l 323 169 z m 440 -302 b 552 -193 502 -302 552 -254 b 440 -83 552 -132 502 -83 b 329 -193 379 -83 329 -132 b 440 -302 329 -254 379 -302 z "},"Đ":{"ha":1038,"x_min":0,"x_max":0,"o":"m 34 422 l 119 422 l 119 0 l 504 0 b 963 496 797 0 963 179 b 504 979 963 803 795 979 l 119 979 l 119 572 l 34 572 z m 323 810 l 471 810 b 754 492 649 810 754 694 b 471 169 754 283 652 169 l 323 169 l 323 422 l 498 422 l 498 572 l 323 572 z "},"E":{"ha":864,"x_min":0,"x_max":0,"o":"m 767 169 l 323 169 l 323 416 l 742 416 l 742 574 l 323 574 l 323 810 l 767 810 l 767 979 l 119 979 l 119 0 l 767 0 z "},"È":{"ha":864,"x_min":0,"x_max":0,"o":"m 368 1078 l 514 1078 l 397 1297 l 195 1297 z m 767 169 l 323 169 l 323 416 l 742 416 l 742 574 l 323 574 l 323 810 l 767 810 l 767 979 l 119 979 l 119 0 l 767 0 z "},"Ȅ":{"ha":864,"x_min":0,"x_max":0,"o":"m 648 1078 l 574 1297 l 403 1297 l 513 1078 z m 391 1078 l 284 1297 l 98 1297 l 254 1078 z m 767 169 l 323 169 l 323 416 l 742 416 l 742 574 l 323 574 l 323 810 l 767 810 l 767 979 l 119 979 l 119 0 l 767 0 z "},"É":{"ha":864,"x_min":0,"x_max":0,"o":"m 519 1078 l 690 1297 l 488 1297 l 372 1078 z m 767 169 l 323 169 l 323 416 l 742 416 l 742 574 l 323 574 l 323 810 l 767 810 l 767 979 l 119 979 l 119 0 l 767 0 z "},"Ê":{"ha":864,"x_min":0,"x_max":0,"o":"m 351 1297 l 158 1078 l 338 1078 l 437 1200 l 449 1200 l 548 1078 l 728 1078 l 535 1297 z m 767 169 l 323 169 l 323 416 l 742 416 l 742 574 l 323 574 l 323 810 l 767 810 l 767 979 l 119 979 l 119 0 l 767 0 z "},"Ể":{"ha":864,"x_min":0,"x_max":0,"o":"m 541 1373 b 604 1383 556 1379 580 1383 b 668 1334 643 1383 668 1364 b 608 1265 668 1307 648 1281 l 679 1198 b 793 1350 752 1225 793 1281 b 634 1482 793 1430 730 1482 b 541 1470 596 1482 561 1476 z m 345 1251 l 156 1071 l 340 1071 l 436 1167 l 450 1167 l 545 1071 l 730 1071 l 541 1251 z m 767 169 l 323 169 l 323 416 l 742 416 l 742 574 l 323 574 l 323 810 l 767 810 l 767 979 l 119 979 l 119 0 l 767 0 z "},"Ề":{"ha":864,"x_min":0,"x_max":0,"o":"m 800 1276 l 677 1473 l 492 1473 l 635 1276 z m 345 1251 l 156 1071 l 340 1071 l 436 1167 l 450 1167 l 545 1071 l 730 1071 l 541 1251 z m 767 169 l 323 169 l 323 416 l 742 416 l 742 574 l 323 574 l 323 810 l 767 810 l 767 979 l 119 979 l 119 0 l 767 0 z "},"Ễ":{"ha":864,"x_min":0,"x_max":0,"o":"m 544 1284 b 708 1473 640 1284 708 1356 l 591 1473 b 532 1398 587 1421 563 1398 b 342 1482 466 1398 451 1482 b 178 1296 245 1482 178 1413 l 296 1296 b 355 1369 298 1343 320 1369 b 544 1284 420 1369 435 1284 z m 345 1248 l 156 1071 l 340 1071 l 436 1167 l 450 1167 l 545 1071 l 730 1071 l 541 1248 z m 767 169 l 323 169 l 323 416 l 742 416 l 742 574 l 323 574 l 323 810 l 767 810 l 767 979 l 119 979 l 119 0 l 767 0 z "},"Ệ":{"ha":864,"x_min":0,"x_max":0,"o":"m 351 1297 l 158 1078 l 338 1078 l 437 1200 l 449 1200 l 548 1078 l 728 1078 l 535 1297 z m 767 169 l 323 169 l 323 416 l 742 416 l 742 574 l 323 574 l 323 810 l 767 810 l 767 979 l 119 979 l 119 0 l 767 0 z m 443 -302 b 555 -193 505 -302 555 -254 b 443 -83 555 -132 505 -83 b 332 -193 382 -83 332 -132 b 443 -302 332 -254 382 -302 z "},"Ế":{"ha":864,"x_min":0,"x_max":0,"o":"m 604 1276 l 768 1276 l 912 1473 l 728 1473 z m 345 1251 l 156 1071 l 340 1071 l 436 1167 l 450 1167 l 545 1071 l 730 1071 l 541 1251 z m 767 169 l 323 169 l 323 416 l 742 416 l 742 574 l 323 574 l 323 810 l 767 810 l 767 979 l 119 979 l 119 0 l 767 0 z "},"Ë":{"ha":864,"x_min":0,"x_max":0,"o":"m 280 1088 b 385 1192 338 1088 385 1133 b 280 1295 385 1250 338 1295 b 174 1192 222 1295 174 1250 b 280 1088 174 1133 222 1088 z m 606 1088 b 711 1192 665 1088 711 1133 b 606 1295 711 1250 665 1295 b 500 1192 548 1295 500 1250 b 606 1088 500 1133 548 1088 z m 767 169 l 323 169 l 323 416 l 742 416 l 742 574 l 323 574 l 323 810 l 767 810 l 767 979 l 119 979 l 119 0 l 767 0 z "},"Ẹ":{"ha":864,"x_min":0,"x_max":0,"o":"m 767 169 l 323 169 l 323 416 l 742 416 l 742 574 l 323 574 l 323 810 l 767 810 l 767 979 l 119 979 l 119 0 l 767 0 z m 443 -302 b 555 -193 505 -302 555 -254 b 443 -83 555 -132 505 -83 b 332 -193 382 -83 332 -132 b 443 -302 332 -254 382 -302 z "},"Ȇ":{"ha":864,"x_min":0,"x_max":0,"o":"m 711 1072 b 443 1295 711 1202 610 1295 b 176 1072 275 1295 176 1202 l 316 1072 b 443 1181 317 1137 364 1181 b 570 1072 522 1181 568 1137 z m 767 169 l 323 169 l 323 416 l 742 416 l 742 574 l 323 574 l 323 810 l 767 810 l 767 979 l 119 979 l 119 0 l 767 0 z "},"Ẻ":{"ha":864,"x_min":0,"x_max":0,"o":"m 303 1236 b 378 1249 320 1243 349 1249 b 452 1196 423 1249 452 1227 b 379 1124 452 1167 422 1140 l 442 1048 b 577 1214 526 1080 577 1140 b 408 1354 577 1299 508 1354 b 303 1338 365 1354 326 1346 z m 767 169 l 323 169 l 323 416 l 742 416 l 742 574 l 323 574 l 323 810 l 767 810 l 767 979 l 119 979 l 119 0 l 767 0 z "},"Ě":{"ha":864,"x_min":0,"x_max":0,"o":"m 535 1078 l 728 1297 l 548 1297 l 449 1174 l 437 1174 l 338 1297 l 158 1297 l 351 1078 z m 767 169 l 323 169 l 323 416 l 742 416 l 742 574 l 323 574 l 323 810 l 767 810 l 767 979 l 119 979 l 119 0 l 767 0 z "},"Ē":{"ha":864,"x_min":0,"x_max":0,"o":"m 689 1249 l 197 1249 l 197 1129 l 689 1129 z m 767 169 l 323 169 l 323 416 l 742 416 l 742 574 l 323 574 l 323 810 l 767 810 l 767 979 l 119 979 l 119 0 l 767 0 z "},"Ḕ":{"ha":864,"x_min":0,"x_max":0,"o":"m 526 1297 l 418 1473 l 225 1473 l 353 1297 z m 191 1093 l 696 1093 l 696 1211 l 191 1211 z m 767 169 l 323 169 l 323 416 l 742 416 l 742 574 l 323 574 l 323 810 l 767 810 l 767 979 l 119 979 l 119 0 l 767 0 z "},"Ḗ":{"ha":864,"x_min":0,"x_max":0,"o":"m 360 1296 l 533 1296 l 661 1472 l 468 1472 z m 696 1093 l 696 1211 l 191 1211 l 191 1093 z m 767 169 l 323 169 l 323 416 l 742 416 l 742 574 l 323 574 l 323 810 l 767 810 l 767 979 l 119 979 l 119 0 l 767 0 z "},"Ẽ":{"ha":864,"x_min":0,"x_max":0,"o":"m 543 1070 b 712 1284 644 1070 712 1151 l 589 1284 b 537 1188 589 1224 574 1188 b 347 1287 476 1188 456 1287 b 180 1073 248 1287 180 1208 l 303 1073 b 355 1164 303 1133 319 1164 b 543 1070 412 1164 433 1070 z m 767 169 l 323 169 l 323 416 l 742 416 l 742 574 l 323 574 l 323 810 l 767 810 l 767 979 l 119 979 l 119 0 l 767 0 z "},"Ḙ":{"ha":864,"x_min":0,"x_max":0,"o":"m 767 169 l 323 169 l 323 416 l 742 416 l 742 574 l 323 574 l 323 810 l 767 810 l 767 979 l 119 979 l 119 0 l 767 0 z m 542 -86 l 345 -86 l 172 -326 l 347 -326 l 437 -182 l 449 -182 l 540 -326 l 715 -326 z "},"Ĕ":{"ha":864,"x_min":0,"x_max":0,"o":"m 176 1295 b 443 1072 176 1164 275 1072 b 711 1295 610 1072 711 1164 l 570 1295 b 443 1185 568 1230 522 1185 b 316 1295 364 1185 317 1230 z m 767 169 l 323 169 l 323 416 l 742 416 l 742 574 l 323 574 l 323 810 l 767 810 l 767 979 l 119 979 l 119 0 l 767 0 z "},"Ḛ":{"ha":864,"x_min":0,"x_max":0,"o":"m 767 169 l 323 169 l 323 416 l 742 416 l 742 574 l 323 574 l 323 810 l 767 810 l 767 979 l 119 979 l 119 0 l 767 0 z m 543 -300 b 712 -87 644 -300 712 -220 l 589 -87 b 537 -183 589 -147 574 -183 b 347 -84 476 -183 456 -84 b 180 -298 248 -84 180 -163 l 303 -298 b 355 -206 303 -238 319 -206 b 543 -300 412 -206 433 -300 z "},"Ė":{"ha":864,"x_min":0,"x_max":0,"o":"m 443 1083 b 555 1193 505 1083 555 1132 b 443 1303 555 1255 505 1303 b 332 1193 382 1303 332 1255 b 443 1083 332 1132 382 1083 z m 767 169 l 323 169 l 323 416 l 742 416 l 742 574 l 323 574 l 323 810 l 767 810 l 767 979 l 119 979 l 119 0 l 767 0 z "},"Ȩ":{"ha":864,"x_min":0,"x_max":0,"o":"m 340 -162 l 385 -162 b 473 -199 444 -162 473 -171 b 393 -238 473 -229 433 -238 b 319 -229 361 -238 329 -232 l 319 -321 b 418 -333 347 -328 382 -333 b 609 -193 528 -333 609 -289 b 470 -73 609 -121 552 -79 l 515 0 l 767 0 l 767 169 l 323 169 l 323 416 l 742 416 l 742 574 l 323 574 l 323 810 l 767 810 l 767 979 l 119 979 l 119 0 l 391 0 l 340 -83 z "},"Ḝ":{"ha":864,"x_min":0,"x_max":0,"o":"m 176 1295 b 443 1072 176 1164 275 1072 b 711 1295 610 1072 711 1164 l 570 1295 b 443 1185 568 1230 522 1185 b 316 1295 364 1185 317 1230 z m 340 -162 l 385 -162 b 473 -199 444 -162 473 -171 b 393 -238 473 -229 433 -238 b 319 -229 361 -238 329 -232 l 319 -321 b 418 -333 347 -328 382 -333 b 609 -193 528 -333 609 -289 b 470 -73 609 -121 552 -79 l 515 0 l 767 0 l 767 169 l 323 169 l 323 416 l 742 416 l 742 574 l 323 574 l 323 810 l 767 810 l 767 979 l 119 979 l 119 0 l 391 0 l 340 -83 z "},"Ę":{"ha":864,"x_min":0,"x_max":0,"o":"m 660 -315 b 758 -300 690 -315 727 -310 l 758 -189 b 711 -195 741 -193 725 -195 b 625 -125 653 -195 625 -166 b 767 0 625 -70 678 -17 l 767 169 l 323 169 l 323 416 l 742 416 l 742 574 l 323 574 l 323 810 l 767 810 l 767 979 l 119 979 l 119 0 l 564 0 b 473 -162 503 -47 473 -107 b 660 -315 473 -254 548 -315 z "},"F":{"ha":830,"x_min":0,"x_max":0,"o":"m 323 0 l 323 385 l 722 385 l 722 547 l 323 547 l 323 810 l 760 810 l 760 979 l 119 979 l 119 0 z "},"Ḟ":{"ha":830,"x_min":0,"x_max":0,"o":"m 439 1083 b 551 1193 500 1083 551 1132 b 439 1303 551 1255 500 1303 b 328 1193 378 1303 328 1255 b 439 1083 328 1132 378 1083 z m 323 0 l 323 385 l 722 385 l 722 547 l 323 547 l 323 810 l 760 810 l 760 979 l 119 979 l 119 0 z "},"G":{"ha":1056,"x_min":0,"x_max":0,"o":"m 979 397 l 979 522 l 568 522 l 568 372 l 780 372 l 779 354 b 548 150 775 232 682 150 b 285 492 387 150 285 279 b 540 829 285 701 382 829 b 766 669 654 829 736 771 l 970 669 b 540 1004 941 871 771 1004 b 75 490 255 1004 75 805 b 545 -25 75 171 254 -25 b 979 397 812 -25 979 138 z "},"Ǵ":{"ha":1056,"x_min":0,"x_max":0,"o":"m 616 1078 l 787 1297 l 585 1297 l 469 1078 z m 979 397 l 979 522 l 568 522 l 568 372 l 780 372 l 779 354 b 548 150 775 232 682 150 b 285 492 387 150 285 279 b 540 829 285 701 382 829 b 766 669 654 829 736 771 l 970 669 b 540 1004 941 871 771 1004 b 75 490 255 1004 75 805 b 545 -25 75 171 254 -25 b 979 397 812 -25 979 138 z "},"Ǧ":{"ha":1056,"x_min":0,"x_max":0,"o":"m 632 1078 l 825 1297 l 645 1297 l 546 1175 l 534 1175 l 435 1297 l 255 1297 l 448 1078 z m 979 397 l 979 522 l 568 522 l 568 372 l 780 372 l 779 354 b 548 150 775 232 682 150 b 285 492 387 150 285 279 b 540 829 285 701 382 829 b 766 669 654 829 736 771 l 970 669 b 540 1004 941 871 771 1004 b 75 490 255 1004 75 805 b 545 -25 75 171 254 -25 b 979 397 812 -25 979 138 z "},"Ĝ":{"ha":1056,"x_min":0,"x_max":0,"o":"m 448 1297 l 255 1078 l 435 1078 l 534 1201 l 546 1201 l 645 1078 l 825 1078 l 632 1297 z m 979 397 l 979 522 l 568 522 l 568 372 l 780 372 l 779 354 b 548 150 775 232 682 150 b 285 492 387 150 285 279 b 540 829 285 701 382 829 b 766 669 654 829 736 771 l 970 669 b 540 1004 941 871 771 1004 b 75 490 255 1004 75 805 b 545 -25 75 171 254 -25 b 979 397 812 -25 979 138 z "},"Ğ":{"ha":1056,"x_min":0,"x_max":0,"o":"m 273 1295 b 540 1072 273 1165 372 1072 b 808 1295 707 1072 808 1165 l 667 1295 b 540 1185 665 1230 618 1185 b 413 1295 461 1185 414 1230 z m 979 397 l 979 522 l 568 522 l 568 372 l 780 372 l 779 354 b 548 150 775 232 682 150 b 285 492 387 150 285 279 b 540 829 285 701 382 829 b 766 669 654 829 736 771 l 970 669 b 540 1004 941 871 771 1004 b 75 490 255 1004 75 805 b 545 -25 75 171 254 -25 b 979 397 812 -25 979 138 z "},"Ḡ":{"ha":1056,"x_min":0,"x_max":0,"o":"m 786 1250 l 294 1250 l 294 1130 l 786 1130 z m 979 397 l 979 522 l 568 522 l 568 372 l 780 372 l 779 354 b 548 150 775 232 682 150 b 285 492 387 150 285 279 b 540 829 285 701 382 829 b 766 669 654 829 736 771 l 970 669 b 540 1004 941 871 771 1004 b 75 490 255 1004 75 805 b 545 -25 75 171 254 -25 b 979 397 812 -25 979 138 z "},"Ġ":{"ha":1056,"x_min":0,"x_max":0,"o":"m 540 1084 b 652 1194 602 1084 652 1133 b 540 1304 652 1255 602 1304 b 429 1194 479 1304 429 1255 b 540 1084 429 1133 479 1084 z m 979 397 l 979 522 l 568 522 l 568 372 l 780 372 l 779 354 b 548 150 775 232 682 150 b 285 492 387 150 285 279 b 540 829 285 701 382 829 b 766 669 654 829 736 771 l 970 669 b 540 1004 941 871 771 1004 b 75 490 255 1004 75 805 b 545 -25 75 171 254 -25 b 979 397 812 -25 979 138 z "},"Ģ":{"ha":1056,"x_min":0,"x_max":0,"o":"m 979 397 l 979 522 l 568 522 l 568 372 l 780 372 l 779 354 b 548 150 775 232 682 150 b 285 492 387 150 285 279 b 540 829 285 701 382 829 b 766 669 654 829 736 771 l 970 669 b 540 1004 941 871 771 1004 b 75 490 255 1004 75 805 b 545 -25 75 171 254 -25 b 979 397 812 -25 979 138 z m 528 -335 l 640 -86 l 449 -86 l 383 -335 z "},"H":{"ha":1088,"x_min":0,"x_max":0,"o":"m 969 0 l 969 979 l 764 979 l 764 581 l 323 581 l 323 979 l 119 979 l 119 0 l 323 0 l 323 412 l 764 412 l 764 0 z "},"Ḧ":{"ha":1088,"x_min":0,"x_max":0,"o":"m 381 1088 b 486 1192 439 1088 486 1133 b 381 1295 486 1250 439 1295 b 275 1192 323 1295 275 1250 b 381 1088 275 1133 323 1088 z m 707 1088 b 812 1192 766 1088 812 1133 b 707 1295 812 1250 766 1295 b 602 1192 649 1295 602 1250 b 707 1088 602 1133 649 1088 z m 969 0 l 969 979 l 764 979 l 764 581 l 323 581 l 323 979 l 119 979 l 119 0 l 323 0 l 323 412 l 764 412 l 764 0 z "},"Ȟ":{"ha":1088,"x_min":0,"x_max":0,"o":"m 636 1078 l 829 1297 l 649 1297 l 550 1174 l 538 1174 l 439 1297 l 259 1297 l 452 1078 z m 969 0 l 969 979 l 764 979 l 764 581 l 323 581 l 323 979 l 119 979 l 119 0 l 323 0 l 323 412 l 764 412 l 764 0 z "},"Ĥ":{"ha":1088,"x_min":0,"x_max":0,"o":"m 452 1297 l 259 1078 l 439 1078 l 538 1200 l 550 1200 l 649 1078 l 829 1078 l 636 1297 z m 969 0 l 969 979 l 764 979 l 764 581 l 323 581 l 323 979 l 119 979 l 119 0 l 323 0 l 323 412 l 764 412 l 764 0 z "},"Ḥ":{"ha":1088,"x_min":0,"x_max":0,"o":"m 969 0 l 969 979 l 764 979 l 764 581 l 323 581 l 323 979 l 119 979 l 119 0 l 323 0 l 323 412 l 764 412 l 764 0 z m 544 -302 b 656 -193 606 -302 656 -254 b 544 -83 656 -132 606 -83 b 433 -193 483 -83 433 -132 b 544 -302 433 -254 483 -302 z "},"Ḣ":{"ha":1088,"x_min":0,"x_max":0,"o":"m 544 1083 b 656 1193 606 1083 656 1132 b 544 1303 656 1255 606 1303 b 433 1193 483 1303 433 1255 b 544 1083 433 1132 483 1083 z m 969 0 l 969 979 l 764 979 l 764 581 l 323 581 l 323 979 l 119 979 l 119 0 l 323 0 l 323 412 l 764 412 l 764 0 z "},"Ḫ":{"ha":1088,"x_min":0,"x_max":0,"o":"m 969 0 l 969 979 l 764 979 l 764 581 l 323 581 l 323 979 l 119 979 l 119 0 l 323 0 l 323 412 l 764 412 l 764 0 z m 278 -72 b 544 -313 278 -214 376 -313 b 810 -72 712 -313 810 -214 l 669 -72 b 544 -198 668 -149 625 -198 b 419 -72 463 -198 420 -149 z "},"Ḩ":{"ha":1088,"x_min":0,"x_max":0,"o":"m 149 -162 l 193 -162 b 281 -199 252 -162 281 -171 b 201 -238 281 -229 241 -238 b 127 -229 170 -238 138 -232 l 127 -321 b 227 -333 155 -328 191 -333 b 417 -193 336 -333 417 -289 b 278 -73 417 -121 361 -79 l 323 0 l 323 412 l 764 412 l 764 0 l 969 0 l 969 979 l 764 979 l 764 581 l 323 581 l 323 979 l 119 979 l 119 0 l 200 0 l 149 -83 z "},"Ħ":{"ha":1088,"x_min":0,"x_max":0,"o":"m 12 709 l 119 709 l 119 0 l 323 0 l 323 412 l 764 412 l 764 0 l 969 0 l 969 709 l 1076 709 l 1076 859 l 969 859 l 969 979 l 764 979 l 764 859 l 323 859 l 323 979 l 119 979 l 119 859 l 12 859 z m 323 581 l 323 709 l 764 709 l 764 581 z "},"I":{"ha":442,"x_min":0,"x_max":0,"o":"m 323 0 l 323 979 l 119 979 l 119 0 z "},"İ":{"ha":442,"x_min":0,"x_max":0,"o":"m 221 1083 b 333 1193 283 1083 333 1132 b 221 1303 333 1255 283 1303 b 110 1193 160 1303 110 1255 b 221 1083 110 1132 160 1083 z m 323 0 l 323 979 l 119 979 l 119 0 z "},"Ì":{"ha":442,"x_min":0,"x_max":0,"o":"m 146 1078 l 292 1078 l 176 1297 l -26 1297 z m 323 0 l 323 979 l 119 979 l 119 0 z "},"Ȉ":{"ha":442,"x_min":0,"x_max":0,"o":"m 426 1078 l 353 1297 l 181 1297 l 291 1078 z m 170 1078 l 62 1297 l -123 1297 l 33 1078 z m 323 0 l 323 979 l 119 979 l 119 0 z "},"Í":{"ha":442,"x_min":0,"x_max":0,"o":"m 297 1078 l 469 1297 l 267 1297 l 151 1078 z m 323 0 l 323 979 l 119 979 l 119 0 z "},"Î":{"ha":442,"x_min":0,"x_max":0,"o":"m 129 1297 l -64 1078 l 116 1078 l 215 1200 l 227 1200 l 326 1078 l 506 1078 l 313 1297 z m 323 0 l 323 979 l 119 979 l 119 0 z "},"Ǐ":{"ha":442,"x_min":0,"x_max":0,"o":"m 313 1078 l 506 1297 l 326 1297 l 227 1174 l 215 1174 l 116 1297 l -64 1297 l 129 1078 z m 323 0 l 323 979 l 119 979 l 119 0 z "},"Ï":{"ha":442,"x_min":0,"x_max":0,"o":"m 58 1088 b 163 1192 117 1088 163 1133 b 58 1295 163 1250 117 1295 b -47 1192 0 1295 -47 1250 b 58 1088 -47 1133 0 1088 z m 385 1088 b 490 1192 443 1088 490 1133 b 385 1295 490 1250 443 1295 b 279 1192 326 1295 279 1250 b 385 1088 279 1133 326 1088 z m 323 0 l 323 979 l 119 979 l 119 0 z "},"Ḯ":{"ha":442,"x_min":0,"x_max":0,"o":"m 140 1310 l 302 1310 l 450 1473 l 252 1473 z m 62 1071 b 168 1172 123 1071 168 1114 b 62 1273 168 1230 123 1273 b -43 1172 1 1273 -43 1230 b 62 1071 -43 1114 1 1071 z m 380 1071 b 486 1172 441 1071 486 1114 b 380 1273 486 1230 441 1273 b 275 1172 319 1273 275 1230 b 380 1071 275 1114 319 1071 z m 323 0 l 323 979 l 119 979 l 119 0 z "},"Ĭ":{"ha":442,"x_min":0,"x_max":0,"o":"m -46 1295 b 221 1072 -46 1164 54 1072 b 489 1295 389 1072 489 1164 l 348 1295 b 221 1185 347 1230 300 1185 b 94 1295 142 1185 96 1230 z m 323 0 l 323 979 l 119 979 l 119 0 z "},"Ị":{"ha":442,"x_min":0,"x_max":0,"o":"m 323 0 l 323 979 l 119 979 l 119 0 z m 221 -302 b 333 -193 283 -302 333 -254 b 221 -83 333 -132 283 -83 b 110 -193 160 -83 110 -132 b 221 -302 110 -254 160 -302 z "},"Ȋ":{"ha":442,"x_min":0,"x_max":0,"o":"m 489 1072 b 221 1295 489 1202 389 1295 b -46 1072 54 1295 -46 1202 l 94 1072 b 221 1181 96 1137 142 1181 b 348 1072 300 1181 347 1137 z m 323 0 l 323 979 l 119 979 l 119 0 z "},"Ī":{"ha":442,"x_min":0,"x_max":0,"o":"m 467 1249 l -24 1249 l -24 1129 l 467 1129 z m 323 0 l 323 979 l 119 979 l 119 0 z "},"Ḭ":{"ha":442,"x_min":0,"x_max":0,"o":"m 323 0 l 323 979 l 119 979 l 119 0 z m 321 -300 b 490 -87 422 -300 490 -220 l 368 -87 b 315 -183 368 -147 352 -183 b 125 -84 254 -183 235 -84 b -41 -298 26 -84 -41 -163 l 81 -298 b 134 -206 81 -238 98 -206 b 321 -300 191 -206 212 -300 z "},"Ỉ":{"ha":442,"x_min":0,"x_max":0,"o":"m 81 1236 b 157 1249 98 1243 127 1249 b 230 1196 201 1249 230 1227 b 157 1124 230 1167 200 1140 l 220 1048 b 355 1214 304 1080 355 1140 b 186 1354 355 1299 286 1354 b 81 1338 143 1354 104 1346 z m 323 0 l 323 979 l 119 979 l 119 0 z "},"Ĩ":{"ha":442,"x_min":0,"x_max":0,"o":"m 321 1070 b 490 1284 422 1070 490 1151 l 368 1284 b 315 1188 368 1224 352 1188 b 125 1287 254 1188 235 1287 b -41 1073 26 1287 -41 1208 l 81 1073 b 134 1164 81 1133 98 1164 b 321 1070 191 1164 212 1070 z m 323 0 l 323 979 l 119 979 l 119 0 z "},"Į":{"ha":442,"x_min":0,"x_max":0,"o":"m 216 -315 b 315 -300 247 -315 283 -310 l 315 -189 b 268 -195 297 -193 281 -195 b 182 -125 210 -195 182 -166 b 323 0 182 -70 235 -17 l 323 979 l 119 979 l 119 0 l 121 0 b 30 -162 60 -47 30 -107 b 216 -315 30 -254 104 -315 z "},"J":{"ha":835,"x_min":0,"x_max":0,"o":"m 52 283 b 384 -25 52 94 183 -25 b 716 301 591 -25 716 93 l 716 979 l 511 979 l 511 302 b 381 152 511 204 465 152 b 250 283 302 152 251 203 z "},"Ĵ":{"ha":835,"x_min":0,"x_max":0,"o":"m 522 1297 l 329 1078 l 509 1078 l 608 1200 l 620 1200 l 719 1078 l 899 1078 l 706 1297 z m 52 283 b 384 -25 52 94 183 -25 b 716 301 591 -25 716 93 l 716 979 l 511 979 l 511 302 b 381 152 511 204 465 152 b 250 283 302 152 251 203 z "},"K":{"ha":985,"x_min":0,"x_max":0,"o":"m 323 0 l 323 299 l 420 416 l 705 0 l 950 0 l 568 550 l 925 979 l 697 979 l 336 539 l 323 539 l 323 979 l 119 979 l 119 0 z "},"Ḱ":{"ha":985,"x_min":0,"x_max":0,"o":"m 551 1078 l 724 1297 l 522 1297 l 405 1078 z m 323 0 l 323 299 l 420 416 l 705 0 l 950 0 l 568 550 l 925 979 l 697 979 l 336 539 l 323 539 l 323 979 l 119 979 l 119 0 z "},"Ǩ":{"ha":985,"x_min":0,"x_max":0,"o":"m 568 1078 l 761 1297 l 581 1297 l 482 1174 l 470 1174 l 371 1297 l 191 1297 l 384 1078 z m 323 0 l 323 299 l 420 416 l 705 0 l 950 0 l 568 550 l 925 979 l 697 979 l 336 539 l 323 539 l 323 979 l 119 979 l 119 0 z "},"Ḳ":{"ha":985,"x_min":0,"x_max":0,"o":"m 323 0 l 323 299 l 420 416 l 705 0 l 950 0 l 568 550 l 925 979 l 697 979 l 336 539 l 323 539 l 323 979 l 119 979 l 119 0 z m 476 -302 b 587 -193 537 -302 587 -254 b 476 -83 587 -132 537 -83 b 364 -193 415 -83 364 -132 b 476 -302 364 -254 415 -302 z "},"Ḵ":{"ha":985,"x_min":0,"x_max":0,"o":"m 323 0 l 323 299 l 420 416 l 705 0 l 950 0 l 568 550 l 925 979 l 697 979 l 336 539 l 323 539 l 323 979 l 119 979 l 119 0 z m 722 -133 l 230 -133 l 230 -252 l 722 -252 z "},"Ķ":{"ha":985,"x_min":0,"x_max":0,"o":"m 323 0 l 323 299 l 420 416 l 705 0 l 950 0 l 568 550 l 925 979 l 697 979 l 336 539 l 323 539 l 323 979 l 119 979 l 119 0 z m 459 -335 l 572 -86 l 380 -86 l 315 -335 z "},"L":{"ha":826,"x_min":0,"x_max":0,"o":"m 759 172 l 323 172 l 323 979 l 119 979 l 119 0 l 759 0 z "},"Ĺ":{"ha":826,"x_min":0,"x_max":0,"o":"m 297 1078 l 469 1297 l 267 1297 l 151 1078 z m 759 172 l 323 172 l 323 979 l 119 979 l 119 0 l 759 0 z "},"Ḽ":{"ha":826,"x_min":0,"x_max":0,"o":"m 759 172 l 323 172 l 323 979 l 119 979 l 119 0 l 759 0 z m 534 -86 l 337 -86 l 164 -326 l 339 -326 l 429 -182 l 441 -182 l 532 -326 l 707 -326 z "},"Ŀ":{"ha":837,"x_min":0,"x_max":0,"o":"m 759 172 l 323 172 l 323 979 l 119 979 l 119 0 l 759 0 z m 559 375 b 679 490 632 375 679 423 b 559 605 679 557 632 605 b 439 490 486 605 439 557 b 559 375 439 423 486 375 z "},"Ḷ":{"ha":826,"x_min":0,"x_max":0,"o":"m 759 172 l 323 172 l 323 979 l 119 979 l 119 0 l 759 0 z m 435 -302 b 547 -193 497 -302 547 -254 b 435 -83 547 -132 497 -83 b 324 -193 374 -83 324 -132 b 435 -302 324 -254 374 -302 z "},"Ḹ":{"ha":826,"x_min":0,"x_max":0,"o":"m 467 1249 l -24 1249 l -24 1129 l 467 1129 z m 759 172 l 323 172 l 323 979 l 119 979 l 119 0 l 759 0 z m 435 -302 b 547 -193 497 -302 547 -254 b 435 -83 547 -132 497 -83 b 324 -193 374 -83 324 -132 b 435 -302 324 -254 374 -302 z "},"Ḻ":{"ha":826,"x_min":0,"x_max":0,"o":"m 759 172 l 323 172 l 323 979 l 119 979 l 119 0 l 759 0 z m 682 -133 l 190 -133 l 190 -252 l 682 -252 z "},"Ļ":{"ha":826,"x_min":0,"x_max":0,"o":"m 759 172 l 323 172 l 323 979 l 119 979 l 119 0 l 759 0 z m 418 -335 l 531 -86 l 340 -86 l 274 -335 z "},"Ľ":{"ha":826,"x_min":0,"x_max":0,"o":"m 484 1086 l 484 721 l 603 721 l 645 1086 z m 759 172 l 323 172 l 323 979 l 119 979 l 119 0 l 759 0 z "},"Ł":{"ha":826,"x_min":0,"x_max":0,"o":"m 759 172 l 323 172 l 323 553 l 484 635 l 484 770 l 323 688 l 323 979 l 119 979 l 119 585 l 16 532 l 16 397 l 119 450 l 119 0 l 759 0 z "},"M":{"ha":1274,"x_min":0,"x_max":0,"o":"m 1155 0 l 1155 979 l 914 979 l 643 304 l 631 304 l 360 979 l 119 979 l 119 0 l 309 0 l 309 663 l 319 663 l 569 48 l 705 48 l 954 663 l 965 663 l 965 0 z "},"Ḿ":{"ha":1274,"x_min":0,"x_max":0,"o":"m 713 1078 l 884 1297 l 682 1297 l 566 1078 z m 1155 0 l 1155 979 l 914 979 l 643 304 l 631 304 l 360 979 l 119 979 l 119 0 l 309 0 l 309 663 l 319 663 l 569 48 l 705 48 l 954 663 l 965 663 l 965 0 z "},"Ṁ":{"ha":1274,"x_min":0,"x_max":0,"o":"m 637 1083 b 749 1193 699 1083 749 1132 b 637 1303 749 1255 699 1303 b 526 1193 576 1303 526 1255 b 637 1083 526 1132 576 1083 z m 1155 0 l 1155 979 l 914 979 l 643 304 l 631 304 l 360 979 l 119 979 l 119 0 l 309 0 l 309 663 l 319 663 l 569 48 l 705 48 l 954 663 l 965 663 l 965 0 z "},"Ṃ":{"ha":1274,"x_min":0,"x_max":0,"o":"m 1155 0 l 1155 979 l 914 979 l 643 304 l 631 304 l 360 979 l 119 979 l 119 0 l 309 0 l 309 663 l 319 663 l 569 48 l 705 48 l 954 663 l 965 663 l 965 0 z m 637 -302 b 749 -193 699 -302 749 -254 b 637 -83 749 -132 699 -83 b 526 -193 576 -83 526 -132 b 637 -302 526 -254 576 -302 z "},"N":{"ha":1067,"x_min":0,"x_max":0,"o":"m 315 0 l 315 626 l 327 626 l 779 0 l 948 0 l 948 979 l 752 979 l 752 355 l 740 355 l 290 979 l 119 979 l 119 0 z "},"Ǹ":{"ha":1067,"x_min":0,"x_max":0,"o":"m 455 1078 l 602 1078 l 486 1297 l 283 1297 z m 315 0 l 315 626 l 327 626 l 779 0 l 948 0 l 948 979 l 752 979 l 752 355 l 740 355 l 290 979 l 119 979 l 119 0 z "},"Ń":{"ha":1067,"x_min":0,"x_max":0,"o":"m 606 1078 l 779 1297 l 576 1297 l 460 1078 z m 315 0 l 315 626 l 327 626 l 779 0 l 948 0 l 948 979 l 752 979 l 752 355 l 740 355 l 290 979 l 119 979 l 119 0 z "},"Ñ":{"ha":1067,"x_min":0,"x_max":0,"o":"m 631 1070 b 800 1284 732 1070 800 1151 l 677 1284 b 625 1188 677 1224 662 1188 b 435 1287 564 1188 545 1287 b 268 1073 336 1287 268 1208 l 391 1073 b 443 1164 391 1133 408 1164 b 631 1070 500 1164 522 1070 z m 315 0 l 315 626 l 327 626 l 779 0 l 948 0 l 948 979 l 752 979 l 752 355 l 740 355 l 290 979 l 119 979 l 119 0 z "},"Ṇ":{"ha":1067,"x_min":0,"x_max":0,"o":"m 315 0 l 315 626 l 327 626 l 779 0 l 948 0 l 948 979 l 752 979 l 752 355 l 740 355 l 290 979 l 119 979 l 119 0 z m 531 -302 b 642 -193 592 -302 642 -254 b 531 -83 642 -132 592 -83 b 419 -193 470 -83 419 -132 b 531 -302 419 -254 470 -302 z "},"Ṅ":{"ha":1067,"x_min":0,"x_max":0,"o":"m 531 1083 b 642 1193 592 1083 642 1132 b 531 1303 642 1255 592 1303 b 419 1193 470 1303 419 1255 b 531 1083 419 1132 470 1083 z m 315 0 l 315 626 l 327 626 l 779 0 l 948 0 l 948 979 l 752 979 l 752 355 l 740 355 l 290 979 l 119 979 l 119 0 z "},"Ň":{"ha":1067,"x_min":0,"x_max":0,"o":"m 623 1078 l 816 1297 l 636 1297 l 537 1174 l 525 1174 l 426 1297 l 246 1297 l 439 1078 z m 315 0 l 315 626 l 327 626 l 779 0 l 948 0 l 948 979 l 752 979 l 752 355 l 740 355 l 290 979 l 119 979 l 119 0 z "},"Ṋ":{"ha":1067,"x_min":0,"x_max":0,"o":"m 315 0 l 315 626 l 327 626 l 779 0 l 948 0 l 948 979 l 752 979 l 752 355 l 740 355 l 290 979 l 119 979 l 119 0 z m 629 -86 l 432 -86 l 259 -326 l 434 -326 l 525 -182 l 537 -182 l 627 -326 l 802 -326 z "},"Ṉ":{"ha":1067,"x_min":0,"x_max":0,"o":"m 315 0 l 315 626 l 327 626 l 779 0 l 948 0 l 948 979 l 752 979 l 752 355 l 740 355 l 290 979 l 119 979 l 119 0 z m 777 -133 l 285 -133 l 285 -252 l 777 -252 z "},"Ņ":{"ha":1067,"x_min":0,"x_max":0,"o":"m 315 0 l 315 626 l 327 626 l 779 0 l 948 0 l 948 979 l 752 979 l 752 355 l 740 355 l 290 979 l 119 979 l 119 0 z m 514 -335 l 627 -86 l 435 -86 l 370 -335 z "},"O":{"ha":1093,"x_min":0,"x_max":0,"o":"m 547 1004 b 75 490 258 1004 75 807 b 547 -25 75 173 256 -25 b 1017 490 836 -25 1017 173 b 547 1004 1017 806 835 1004 z m 547 830 b 808 490 705 830 808 698 b 547 149 808 282 706 149 b 285 490 385 149 285 282 b 547 830 285 698 387 830 z "},"Ö":{"ha":1093,"x_min":0,"x_max":0,"o":"m 383 1088 b 489 1192 441 1088 489 1133 b 383 1295 489 1250 441 1295 b 278 1192 326 1295 278 1250 b 383 1088 278 1133 326 1088 z m 709 1088 b 815 1192 768 1088 815 1133 b 709 1295 815 1250 768 1295 b 604 1192 652 1295 604 1250 b 709 1088 604 1133 652 1088 z m 547 1004 b 75 490 258 1004 75 807 b 547 -25 75 173 256 -25 b 1017 490 836 -25 1017 173 b 547 1004 1017 806 835 1004 z m 547 830 b 808 490 705 830 808 698 b 547 149 808 282 706 149 b 285 490 385 149 285 282 b 547 830 285 698 387 830 z "},"Ø":{"ha":1093,"x_min":0,"x_max":0,"o":"m 547 1004 b 75 490 258 1004 75 807 b 169 154 75 354 109 240 l 90 64 l 177 -17 l 252 68 b 547 -24 328 8 429 -24 b 1017 490 836 -24 1017 174 b 922 827 1017 627 983 741 l 1000 915 l 912 996 l 839 913 b 547 1004 762 972 663 1004 z m 547 840 b 717 774 614 840 672 817 l 306 309 b 275 490 286 360 275 421 b 547 840 275 703 380 840 z m 818 490 b 547 140 818 277 713 140 b 374 206 477 140 418 163 l 785 672 b 818 490 806 621 818 559 z "},"Õ":{"ha":1093,"x_min":0,"x_max":0,"o":"m 646 1070 b 815 1284 747 1070 815 1151 l 692 1284 b 641 1188 692 1224 677 1188 b 450 1287 579 1188 560 1287 b 283 1073 351 1287 283 1208 l 406 1073 b 458 1164 406 1133 423 1164 b 646 1070 516 1164 537 1070 z m 547 1004 b 75 490 258 1004 75 807 b 547 -25 75 173 256 -25 b 1017 490 836 -25 1017 173 b 547 1004 1017 806 835 1004 z m 547 830 b 808 490 705 830 808 698 b 547 149 808 282 706 149 b 285 490 385 149 285 282 b 547 830 285 698 387 830 z "},"Ó":{"ha":1093,"x_min":0,"x_max":0,"o":"m 622 1078 l 794 1297 l 592 1297 l 475 1078 z m 547 1004 b 75 490 258 1004 75 807 b 547 -25 75 173 256 -25 b 1017 490 836 -25 1017 173 b 547 1004 1017 806 835 1004 z m 547 830 b 808 490 705 830 808 698 b 547 149 808 282 706 149 b 285 490 385 149 285 282 b 547 830 285 698 387 830 z "},"Ô":{"ha":1093,"x_min":0,"x_max":0,"o":"m 454 1297 l 262 1078 l 441 1078 l 541 1200 l 553 1200 l 652 1078 l 831 1078 l 639 1297 z m 547 1004 b 75 490 258 1004 75 807 b 547 -25 75 173 256 -25 b 1017 490 836 -25 1017 173 b 547 1004 1017 806 835 1004 z m 547 830 b 808 490 705 830 808 698 b 547 149 808 282 706 149 b 285 490 385 149 285 282 b 547 830 285 698 387 830 z "},"Ò":{"ha":1093,"x_min":0,"x_max":0,"o":"m 471 1078 l 617 1078 l 501 1297 l 299 1297 z m 547 1004 b 75 490 258 1004 75 807 b 547 -25 75 173 256 -25 b 1017 490 836 -25 1017 173 b 547 1004 1017 806 835 1004 z m 547 830 b 808 490 705 830 808 698 b 547 149 808 282 706 149 b 285 490 385 149 285 282 b 547 830 285 698 387 830 z "},"Ổ":{"ha":1093,"x_min":0,"x_max":0,"o":"m 644 1373 b 707 1383 660 1379 684 1383 b 772 1334 747 1383 772 1364 b 711 1265 772 1307 752 1281 l 783 1198 b 897 1350 856 1225 897 1281 b 737 1482 897 1430 833 1482 b 644 1470 699 1482 664 1476 z m 448 1251 l 260 1071 l 444 1071 l 540 1167 l 553 1167 l 649 1071 l 833 1071 l 645 1251 z m 547 1004 b 75 490 258 1004 75 807 b 547 -25 75 173 256 -25 b 1017 490 836 -25 1017 173 b 547 1004 1017 806 835 1004 z m 547 830 b 808 490 705 830 808 698 b 547 149 808 282 706 149 b 285 490 385 149 285 282 b 547 830 285 698 387 830 z "},"Ồ":{"ha":1093,"x_min":0,"x_max":0,"o":"m 904 1276 l 780 1473 l 595 1473 l 739 1276 z m 448 1251 l 260 1071 l 444 1071 l 540 1167 l 553 1167 l 649 1071 l 833 1071 l 645 1251 z m 547 1004 b 75 490 258 1004 75 807 b 547 -25 75 173 256 -25 b 1017 490 836 -25 1017 173 b 547 1004 1017 806 835 1004 z m 547 830 b 808 490 705 830 808 698 b 547 149 808 282 706 149 b 285 490 385 149 285 282 b 547 830 285 698 387 830 z "},"Ọ":{"ha":1093,"x_min":0,"x_max":0,"o":"m 547 1004 b 75 490 258 1004 75 807 b 547 -25 75 173 256 -25 b 1017 490 836 -25 1017 173 b 547 1004 1017 806 835 1004 z m 547 830 b 808 490 705 830 808 698 b 547 149 808 282 706 149 b 285 490 385 149 285 282 b 547 830 285 698 387 830 z m 547 -302 b 659 -193 608 -302 659 -254 b 547 -83 659 -132 608 -83 b 435 -193 486 -83 435 -132 b 547 -302 435 -254 486 -302 z "},"Ȍ":{"ha":1093,"x_min":0,"x_max":0,"o":"m 751 1078 l 677 1297 l 506 1297 l 616 1078 z m 494 1078 l 387 1297 l 201 1297 l 357 1078 z m 547 1004 b 75 490 258 1004 75 807 b 547 -25 75 173 256 -25 b 1017 490 836 -25 1017 173 b 547 1004 1017 806 835 1004 z m 547 830 b 808 490 705 830 808 698 b 547 149 808 282 706 149 b 285 490 385 149 285 282 b 547 830 285 698 387 830 z "},"Ṍ":{"ha":1093,"x_min":0,"x_max":0,"o":"m 481 1310 l 654 1310 l 782 1473 l 589 1473 z m 651 1071 b 818 1259 747 1071 818 1143 l 694 1259 b 635 1187 691 1207 667 1187 b 442 1269 570 1187 551 1269 b 275 1078 346 1269 275 1198 l 399 1078 b 458 1153 401 1129 424 1153 b 651 1071 524 1153 542 1071 z m 547 1004 b 75 490 258 1004 75 807 b 547 -25 75 173 256 -25 b 1017 490 836 -25 1017 173 b 547 1004 1017 806 835 1004 z m 547 830 b 808 490 705 830 808 698 b 547 149 808 282 706 149 b 285 490 385 149 285 282 b 547 830 285 698 387 830 z "},"Ṓ":{"ha":1093,"x_min":0,"x_max":0,"o":"m 464 1296 l 637 1296 l 764 1472 l 572 1472 z m 799 1093 l 799 1211 l 294 1211 l 294 1093 z m 547 1004 b 75 490 258 1004 75 807 b 547 -25 75 173 256 -25 b 1017 490 836 -25 1017 173 b 547 1004 1017 806 835 1004 z m 547 830 b 808 490 705 830 808 698 b 547 149 808 282 706 149 b 285 490 385 149 285 282 b 547 830 285 698 387 830 z "},"Ỗ":{"ha":1093,"x_min":0,"x_max":0,"o":"m 648 1284 b 811 1473 744 1284 811 1356 l 694 1473 b 635 1398 691 1421 667 1398 b 446 1482 570 1398 555 1482 b 281 1296 349 1482 281 1413 l 399 1296 b 458 1369 401 1343 424 1369 b 648 1284 524 1369 538 1284 z m 448 1248 l 260 1071 l 444 1071 l 540 1167 l 553 1167 l 649 1071 l 833 1071 l 645 1248 z m 547 1004 b 75 490 258 1004 75 807 b 547 -25 75 173 256 -25 b 1017 490 836 -25 1017 173 b 547 1004 1017 806 835 1004 z m 547 830 b 808 490 705 830 808 698 b 547 149 808 282 706 149 b 285 490 385 149 285 282 b 547 830 285 698 387 830 z "},"Ȱ":{"ha":1093,"x_min":0,"x_max":0,"o":"m 799 1461 l 294 1461 l 294 1350 l 799 1350 z m 547 1069 b 652 1168 608 1069 652 1112 b 547 1267 652 1225 608 1267 b 441 1168 485 1267 441 1225 b 547 1069 441 1112 485 1069 z m 547 1004 b 75 490 258 1004 75 807 b 547 -25 75 173 256 -25 b 1017 490 836 -25 1017 173 b 547 1004 1017 806 835 1004 z m 547 830 b 808 490 705 830 808 698 b 547 149 808 282 706 149 b 285 490 385 149 285 282 b 547 830 285 698 387 830 z "},"Ṑ":{"ha":1093,"x_min":0,"x_max":0,"o":"m 629 1297 l 522 1473 l 328 1473 l 456 1297 z m 294 1093 l 799 1093 l 799 1211 l 294 1211 z m 547 1004 b 75 490 258 1004 75 807 b 547 -25 75 173 256 -25 b 1017 490 836 -25 1017 173 b 547 1004 1017 806 835 1004 z m 547 830 b 808 490 705 830 808 698 b 547 149 808 282 706 149 b 285 490 385 149 285 282 b 547 830 285 698 387 830 z "},"Ǒ":{"ha":1093,"x_min":0,"x_max":0,"o":"m 639 1078 l 831 1297 l 652 1297 l 553 1174 l 541 1174 l 441 1297 l 262 1297 l 454 1078 z m 547 1004 b 75 490 258 1004 75 807 b 547 -25 75 173 256 -25 b 1017 490 836 -25 1017 173 b 547 1004 1017 806 835 1004 z m 547 830 b 808 490 705 830 808 698 b 547 149 808 282 706 149 b 285 490 385 149 285 282 b 547 830 285 698 387 830 z "},"Ǿ":{"ha":1093,"x_min":0,"x_max":0,"o":"m 622 1078 l 794 1297 l 592 1297 l 475 1078 z m 547 1004 b 75 490 258 1004 75 807 b 169 154 75 354 109 240 l 90 64 l 177 -17 l 252 68 b 547 -24 328 8 429 -24 b 1017 490 836 -24 1017 174 b 922 827 1017 627 983 741 l 1000 915 l 912 996 l 839 913 b 547 1004 762 972 663 1004 z m 547 840 b 717 774 614 840 672 817 l 306 309 b 275 490 286 360 275 421 b 547 840 275 703 380 840 z m 818 490 b 547 140 818 277 713 140 b 374 206 477 140 418 163 l 785 672 b 818 490 806 621 818 559 z "},"Ő":{"ha":1093,"x_min":0,"x_max":0,"o":"m 342 1078 l 477 1078 l 587 1297 l 415 1297 z m 598 1078 l 735 1078 l 891 1297 l 705 1297 z m 547 1004 b 75 490 258 1004 75 807 b 547 -25 75 173 256 -25 b 1017 490 836 -25 1017 173 b 547 1004 1017 806 835 1004 z m 547 830 b 808 490 705 830 808 698 b 547 149 808 282 706 149 b 285 490 385 149 285 282 b 547 830 285 698 387 830 z "},"Ŏ":{"ha":1093,"x_min":0,"x_max":0,"o":"m 279 1295 b 547 1072 279 1164 379 1072 b 814 1295 714 1072 814 1164 l 673 1295 b 547 1185 672 1230 625 1185 b 420 1295 468 1185 421 1230 z m 547 1004 b 75 490 258 1004 75 807 b 547 -25 75 173 256 -25 b 1017 490 836 -25 1017 173 b 547 1004 1017 806 835 1004 z m 547 830 b 808 490 705 830 808 698 b 547 149 808 282 706 149 b 285 490 385 149 285 282 b 547 830 285 698 387 830 z "},"Ȏ":{"ha":1093,"x_min":0,"x_max":0,"o":"m 814 1072 b 547 1295 814 1202 714 1295 b 279 1072 379 1295 279 1202 l 420 1072 b 547 1181 421 1137 468 1181 b 673 1072 625 1181 672 1137 z m 547 1004 b 75 490 258 1004 75 807 b 547 -25 75 173 256 -25 b 1017 490 836 -25 1017 173 b 547 1004 1017 806 835 1004 z m 547 830 b 808 490 705 830 808 698 b 547 149 808 282 706 149 b 285 490 385 149 285 282 b 547 830 285 698 387 830 z "},"Ỏ":{"ha":1093,"x_min":0,"x_max":0,"o":"m 406 1236 b 481 1249 424 1243 452 1249 b 555 1196 526 1249 555 1227 b 483 1124 555 1167 526 1140 l 545 1048 b 681 1214 629 1080 681 1140 b 511 1354 681 1299 611 1354 b 406 1338 468 1354 430 1346 z m 547 1004 b 75 490 258 1004 75 807 b 547 -25 75 173 256 -25 b 1017 490 836 -25 1017 173 b 547 1004 1017 806 835 1004 z m 547 830 b 808 490 705 830 808 698 b 547 149 808 282 706 149 b 285 490 385 149 285 282 b 547 830 285 698 387 830 z "},"Ȫ":{"ha":1093,"x_min":0,"x_max":0,"o":"m 294 1461 l 294 1350 l 799 1350 l 799 1461 z m 388 1270 b 283 1171 328 1270 283 1228 b 388 1071 283 1113 328 1071 b 492 1171 448 1071 492 1113 b 388 1270 492 1228 448 1270 z m 705 1270 b 602 1171 645 1270 602 1228 b 705 1071 602 1113 645 1071 b 809 1171 766 1071 809 1113 b 705 1270 809 1228 766 1270 z m 547 1004 b 75 490 258 1004 75 807 b 547 -25 75 173 256 -25 b 1017 490 836 -25 1017 173 b 547 1004 1017 806 835 1004 z m 547 830 b 808 490 705 830 808 698 b 547 149 808 282 706 149 b 285 490 385 149 285 282 b 547 830 285 698 387 830 z "},"Ȭ":{"ha":1093,"x_min":0,"x_max":0,"o":"m 799 1461 l 294 1461 l 294 1344 l 799 1344 z m 651 1071 b 818 1259 747 1071 818 1143 l 694 1259 b 635 1187 691 1207 667 1187 b 442 1269 570 1187 551 1269 b 275 1078 346 1269 275 1198 l 399 1078 b 458 1153 401 1129 424 1153 b 651 1071 524 1153 542 1071 z m 547 1004 b 75 490 258 1004 75 807 b 547 -25 75 173 256 -25 b 1017 490 836 -25 1017 173 b 547 1004 1017 806 835 1004 z m 547 830 b 808 490 705 830 808 698 b 547 149 808 282 706 149 b 285 490 385 149 285 282 b 547 830 285 698 387 830 z "},"Ȯ":{"ha":1093,"x_min":0,"x_max":0,"o":"m 547 1083 b 658 1193 608 1083 658 1132 b 547 1303 658 1255 608 1303 b 435 1193 486 1303 435 1255 b 547 1083 435 1132 486 1083 z m 547 1004 b 75 490 258 1004 75 807 b 547 -25 75 173 256 -25 b 1017 490 836 -25 1017 173 b 547 1004 1017 806 835 1004 z m 547 830 b 808 490 705 830 808 698 b 547 149 808 282 706 149 b 285 490 385 149 285 282 b 547 830 285 698 387 830 z "},"Ộ":{"ha":1093,"x_min":0,"x_max":0,"o":"m 454 1297 l 262 1078 l 441 1078 l 541 1200 l 553 1200 l 652 1078 l 831 1078 l 639 1297 z m 547 1004 b 75 490 258 1004 75 807 b 547 -25 75 173 256 -25 b 1017 490 836 -25 1017 173 b 547 1004 1017 806 835 1004 z m 547 830 b 808 490 705 830 808 698 b 547 149 808 282 706 149 b 285 490 385 149 285 282 b 547 830 285 698 387 830 z m 547 -302 b 659 -193 608 -302 659 -254 b 547 -83 659 -132 608 -83 b 435 -193 486 -83 435 -132 b 547 -302 435 -254 486 -302 z "},"Ố":{"ha":1093,"x_min":0,"x_max":0,"o":"m 707 1276 l 872 1276 l 1016 1473 l 831 1473 z m 448 1251 l 260 1071 l 444 1071 l 540 1167 l 553 1167 l 649 1071 l 833 1071 l 645 1251 z m 547 1004 b 75 490 258 1004 75 807 b 547 -25 75 173 256 -25 b 1017 490 836 -25 1017 173 b 547 1004 1017 806 835 1004 z m 547 830 b 808 490 705 830 808 698 b 547 149 808 282 706 149 b 285 490 385 149 285 282 b 547 830 285 698 387 830 z "},"Ṏ":{"ha":1093,"x_min":0,"x_max":0,"o":"m 398 1476 b 304 1395 342 1476 304 1443 b 398 1313 304 1347 342 1313 b 492 1395 454 1313 492 1347 b 398 1476 492 1443 454 1476 z m 695 1476 b 602 1395 640 1476 602 1443 b 695 1313 602 1347 640 1313 b 788 1395 751 1313 788 1347 b 695 1476 788 1443 751 1476 z m 651 1068 b 818 1256 747 1068 818 1140 l 694 1256 b 635 1183 691 1204 667 1183 b 442 1265 570 1183 551 1265 b 275 1076 346 1265 275 1196 l 399 1076 b 458 1150 401 1126 424 1150 b 651 1068 524 1150 542 1068 z m 547 1004 b 75 490 258 1004 75 807 b 547 -25 75 173 256 -25 b 1017 490 836 -25 1017 173 b 547 1004 1017 806 835 1004 z m 547 830 b 808 490 705 830 808 698 b 547 149 808 282 706 149 b 285 490 385 149 285 282 b 547 830 285 698 387 830 z "},"Ō":{"ha":1093,"x_min":0,"x_max":0,"o":"m 792 1249 l 300 1249 l 300 1129 l 792 1129 z m 547 1004 b 75 490 258 1004 75 807 b 547 -25 75 173 256 -25 b 1017 490 836 -25 1017 173 b 547 1004 1017 806 835 1004 z m 547 830 b 808 490 705 830 808 698 b 547 149 808 282 706 149 b 285 490 385 149 285 282 b 547 830 285 698 387 830 z "},"Ǫ":{"ha":1093,"x_min":0,"x_max":0,"o":"m 722 -315 b 817 -300 753 -315 785 -310 l 817 -189 b 767 -195 797 -194 781 -195 b 688 -127 712 -195 688 -160 b 835 63 688 -61 758 -3 b 1017 490 951 151 1017 298 b 547 1004 1017 806 835 1004 b 75 490 258 1004 75 807 b 547 -25 75 173 256 -25 b 625 -20 574 -25 600 -23 b 536 -174 568 -64 536 -118 b 722 -315 536 -262 610 -315 z m 547 830 b 808 490 705 830 808 698 b 547 149 808 282 706 149 b 285 490 385 149 285 282 b 547 830 285 698 387 830 z "},"Ǭ":{"ha":1093,"x_min":0,"x_max":0,"o":"m 792 1249 l 300 1249 l 300 1129 l 792 1129 z m 722 -315 b 817 -300 753 -315 785 -310 l 817 -189 b 767 -195 797 -194 781 -195 b 688 -127 712 -195 688 -160 b 835 63 688 -61 758 -3 b 1017 490 951 151 1017 298 b 547 1004 1017 806 835 1004 b 75 490 258 1004 75 807 b 547 -25 75 173 256 -25 b 625 -20 574 -25 600 -23 b 536 -174 568 -64 536 -118 b 722 -315 536 -262 610 -315 z m 547 830 b 808 490 705 830 808 698 b 547 149 808 282 706 149 b 285 490 385 149 285 282 b 547 830 285 698 387 830 z "},"Ơ":{"ha":1129,"x_min":0,"x_max":0,"o":"m 547 -25 b 1017 490 836 -25 1017 173 b 888 834 1017 638 964 777 l 888 845 l 929 845 b 1069 984 1016 845 1069 895 l 1069 1141 l 913 1141 l 913 1031 b 840 970 913 990 892 970 b 547 1004 731 970 665 1004 b 75 490 259 1004 75 807 b 547 -25 75 173 256 -25 z m 547 149 b 285 490 386 149 285 282 b 547 830 285 698 388 830 b 808 490 706 830 808 698 b 547 149 808 282 706 149 z "},"Ợ":{"ha":1129,"x_min":0,"x_max":0,"o":"m 547 -25 b 1017 490 836 -25 1017 173 b 888 834 1017 638 964 777 l 888 845 l 929 845 b 1069 984 1016 845 1069 895 l 1069 1141 l 913 1141 l 913 1031 b 840 970 913 990 892 970 b 547 1004 731 970 665 1004 b 75 490 259 1004 75 807 b 547 -25 75 173 256 -25 z m 547 149 b 285 490 386 149 285 282 b 547 830 285 698 388 830 b 808 490 706 830 808 698 b 547 149 808 282 706 149 z m 547 -302 b 659 -193 608 -302 659 -254 b 547 -83 659 -132 608 -83 b 435 -193 486 -83 435 -132 b 547 -302 435 -254 486 -302 z "},"Ở":{"ha":1129,"x_min":0,"x_max":0,"o":"m 403 1236 b 478 1249 420 1243 449 1249 b 551 1196 523 1249 551 1227 b 479 1124 551 1167 522 1140 l 542 1048 b 677 1214 625 1080 677 1140 b 508 1354 677 1299 608 1354 b 403 1338 465 1354 426 1346 z m 547 -25 b 1017 490 836 -25 1017 173 b 888 834 1017 638 964 777 l 888 845 l 929 845 b 1069 984 1016 845 1069 895 l 1069 1141 l 913 1141 l 913 1031 b 840 970 913 990 892 970 b 547 1004 731 970 665 1004 b 75 490 259 1004 75 807 b 547 -25 75 173 256 -25 z m 547 149 b 285 490 386 149 285 282 b 547 830 285 698 388 830 b 808 490 706 830 808 698 b 547 149 808 282 706 149 z "},"Ỡ":{"ha":1129,"x_min":0,"x_max":0,"o":"m 643 1070 b 812 1284 743 1070 812 1151 l 689 1284 b 637 1188 689 1224 673 1188 b 447 1287 576 1188 556 1287 b 280 1073 348 1287 280 1208 l 403 1073 b 455 1164 403 1133 419 1164 b 643 1070 512 1164 533 1070 z m 547 -25 b 1017 490 836 -25 1017 173 b 888 834 1017 638 964 777 l 888 845 l 929 845 b 1069 984 1016 845 1069 895 l 1069 1141 l 913 1141 l 913 1031 b 840 970 913 990 892 970 b 547 1004 731 970 665 1004 b 75 490 259 1004 75 807 b 547 -25 75 173 256 -25 z m 547 149 b 285 490 386 149 285 282 b 547 830 285 698 388 830 b 808 490 706 830 808 698 b 547 149 808 282 706 149 z "},"Ờ":{"ha":1129,"x_min":0,"x_max":0,"o":"m 467 1078 l 614 1078 l 497 1297 l 295 1297 z m 547 -25 b 1017 490 836 -25 1017 173 b 888 834 1017 638 964 777 l 888 845 l 929 845 b 1069 984 1016 845 1069 895 l 1069 1141 l 913 1141 l 913 1031 b 840 970 913 990 892 970 b 547 1004 731 970 665 1004 b 75 490 259 1004 75 807 b 547 -25 75 173 256 -25 z m 547 149 b 285 490 386 149 285 282 b 547 830 285 698 388 830 b 808 490 706 830 808 698 b 547 149 808 282 706 149 z "},"Ớ":{"ha":1129,"x_min":0,"x_max":0,"o":"m 618 1078 l 790 1297 l 588 1297 l 472 1078 z m 547 -25 b 1017 490 836 -25 1017 173 b 888 834 1017 638 964 777 l 888 845 l 929 845 b 1069 984 1016 845 1069 895 l 1069 1141 l 913 1141 l 913 1031 b 840 970 913 990 892 970 b 547 1004 731 970 665 1004 b 75 490 259 1004 75 807 b 547 -25 75 173 256 -25 z m 547 149 b 285 490 386 149 285 282 b 547 830 285 698 388 830 b 808 490 706 830 808 698 b 547 149 808 282 706 149 z "},"P":{"ha":936,"x_min":0,"x_max":0,"o":"m 119 979 l 119 0 l 323 0 l 323 309 l 517 309 b 866 642 723 309 866 443 b 527 979 866 844 728 979 z m 323 816 l 473 816 b 658 642 591 816 658 755 b 472 469 658 530 589 469 l 323 469 z "},"Ṗ":{"ha":936,"x_min":0,"x_max":0,"o":"m 408 1083 b 519 1193 469 1083 519 1132 b 408 1303 519 1255 469 1303 b 296 1193 347 1303 296 1255 b 408 1083 296 1132 347 1083 z m 119 979 l 119 0 l 323 0 l 323 309 l 517 309 b 866 642 723 309 866 443 b 527 979 866 844 728 979 z m 323 816 l 473 816 b 658 642 591 816 658 755 b 472 469 658 530 589 469 l 323 469 z "},"Ṕ":{"ha":936,"x_min":0,"x_max":0,"o":"m 484 1078 l 655 1297 l 453 1297 l 337 1078 z m 119 979 l 119 0 l 323 0 l 323 309 l 517 309 b 866 642 723 309 866 443 b 527 979 866 844 728 979 z m 323 816 l 473 816 b 658 642 591 816 658 755 b 472 469 658 530 589 469 l 323 469 z "},"Q":{"ha":1092,"x_min":0,"x_max":0,"o":"m 547 -25 b 719 2 609 -25 667 -16 l 793 -97 l 984 -97 l 854 77 b 1017 490 958 162 1017 307 b 547 1004 1017 807 834 1004 b 75 490 259 1004 75 807 b 547 -25 75 170 257 -25 z m 547 142 b 279 490 385 142 279 275 b 547 838 279 703 385 838 b 812 490 708 838 812 703 b 734 236 812 379 785 290 l 669 322 l 477 322 l 608 149 b 547 142 588 144 568 142 z "},"R":{"ha":964,"x_min":0,"x_max":0,"o":"m 323 358 l 491 358 l 673 0 l 905 0 l 699 389 b 877 667 812 433 877 541 b 530 979 877 860 745 979 l 119 979 l 119 0 l 323 0 z m 323 819 l 501 819 b 667 664 603 819 667 759 b 503 511 667 567 606 511 l 323 511 z "},"Ř":{"ha":964,"x_min":0,"x_max":0,"o":"m 534 1078 l 727 1297 l 547 1297 l 448 1174 l 436 1174 l 337 1297 l 157 1297 l 350 1078 z m 323 358 l 491 358 l 673 0 l 905 0 l 699 389 b 877 667 812 433 877 541 b 530 979 877 860 745 979 l 119 979 l 119 0 l 323 0 z m 323 819 l 501 819 b 667 664 603 819 667 759 b 503 511 667 567 606 511 l 323 511 z "},"Ṟ":{"ha":964,"x_min":0,"x_max":0,"o":"m 323 358 l 491 358 l 673 0 l 905 0 l 699 389 b 877 667 812 433 877 541 b 530 979 877 860 745 979 l 119 979 l 119 0 l 323 0 z m 323 819 l 501 819 b 667 664 603 819 667 759 b 503 511 667 567 606 511 l 323 511 z m 688 -133 l 197 -133 l 197 -252 l 688 -252 z "},"Ṝ":{"ha":964,"x_min":0,"x_max":0,"o":"m 688 1249 l 197 1249 l 197 1129 l 688 1129 z m 323 358 l 491 358 l 673 0 l 905 0 l 699 389 b 877 667 812 433 877 541 b 530 979 877 860 745 979 l 119 979 l 119 0 l 323 0 z m 323 819 l 501 819 b 667 664 603 819 667 759 b 503 511 667 567 606 511 l 323 511 z m 442 -302 b 554 -193 504 -302 554 -254 b 442 -83 554 -132 504 -83 b 331 -193 381 -83 331 -132 b 442 -302 331 -254 381 -302 z "},"Ȑ":{"ha":964,"x_min":0,"x_max":0,"o":"m 647 1078 l 574 1297 l 402 1297 l 512 1078 z m 391 1078 l 283 1297 l 98 1297 l 254 1078 z m 323 358 l 491 358 l 673 0 l 905 0 l 699 389 b 877 667 812 433 877 541 b 530 979 877 860 745 979 l 119 979 l 119 0 l 323 0 z m 323 819 l 501 819 b 667 664 603 819 667 759 b 503 511 667 567 606 511 l 323 511 z "},"Ȓ":{"ha":964,"x_min":0,"x_max":0,"o":"m 710 1072 b 442 1295 710 1202 610 1295 b 175 1072 275 1295 175 1202 l 315 1072 b 442 1181 317 1137 363 1181 b 569 1072 521 1181 568 1137 z m 323 358 l 491 358 l 673 0 l 905 0 l 699 389 b 877 667 812 433 877 541 b 530 979 877 860 745 979 l 119 979 l 119 0 l 323 0 z m 323 819 l 501 819 b 667 664 603 819 667 759 b 503 511 667 567 606 511 l 323 511 z "},"Ŕ":{"ha":964,"x_min":0,"x_max":0,"o":"m 518 1078 l 690 1297 l 488 1297 l 372 1078 z m 323 358 l 491 358 l 673 0 l 905 0 l 699 389 b 877 667 812 433 877 541 b 530 979 877 860 745 979 l 119 979 l 119 0 l 323 0 z m 323 819 l 501 819 b 667 664 603 819 667 759 b 503 511 667 567 606 511 l 323 511 z "},"Ṛ":{"ha":964,"x_min":0,"x_max":0,"o":"m 323 358 l 491 358 l 673 0 l 905 0 l 699 389 b 877 667 812 433 877 541 b 530 979 877 860 745 979 l 119 979 l 119 0 l 323 0 z m 323 819 l 501 819 b 667 664 603 819 667 759 b 503 511 667 567 606 511 l 323 511 z m 442 -302 b 554 -193 504 -302 554 -254 b 442 -83 554 -132 504 -83 b 331 -193 381 -83 331 -132 b 442 -302 331 -254 381 -302 z "},"Ṙ":{"ha":964,"x_min":0,"x_max":0,"o":"m 442 1083 b 554 1193 504 1083 554 1132 b 442 1303 554 1255 504 1303 b 331 1193 381 1303 331 1255 b 442 1083 331 1132 381 1083 z m 323 358 l 491 358 l 673 0 l 905 0 l 699 389 b 877 667 812 433 877 541 b 530 979 877 860 745 979 l 119 979 l 119 0 l 323 0 z m 323 819 l 501 819 b 667 664 603 819 667 759 b 503 511 667 567 606 511 l 323 511 z "},"Ŗ":{"ha":964,"x_min":0,"x_max":0,"o":"m 323 358 l 491 358 l 673 0 l 905 0 l 699 389 b 877 667 812 433 877 541 b 530 979 877 860 745 979 l 119 979 l 119 0 l 323 0 z m 323 819 l 501 819 b 667 664 603 819 667 759 b 503 511 667 567 606 511 l 323 511 z m 425 -335 l 538 -86 l 347 -86 l 281 -335 z "},"S":{"ha":938,"x_min":0,"x_max":0,"o":"m 75 271 b 467 -25 82 90 233 -25 b 863 291 712 -25 863 96 b 582 569 863 442 779 527 l 464 594 b 302 717 349 619 302 655 b 473 843 302 793 370 843 b 653 711 572 843 644 791 l 846 711 b 471 1004 840 884 687 1004 b 97 701 245 1004 97 883 b 363 422 97 552 184 460 l 490 395 b 659 267 610 368 659 331 b 477 137 659 191 584 137 b 273 271 362 137 282 189 z "},"Š":{"ha":938,"x_min":0,"x_max":0,"o":"m 564 1078 l 757 1297 l 577 1297 l 478 1174 l 466 1174 l 367 1297 l 187 1297 l 380 1078 z m 75 271 b 467 -25 82 90 233 -25 b 863 291 712 -25 863 96 b 582 569 863 442 779 527 l 464 594 b 302 717 349 619 302 655 b 473 843 302 793 370 843 b 653 711 572 843 644 791 l 846 711 b 471 1004 840 884 687 1004 b 97 701 245 1004 97 883 b 363 422 97 552 184 460 l 490 395 b 659 267 610 368 659 331 b 477 137 659 191 584 137 b 273 271 362 137 282 189 z "},"Ş":{"ha":938,"x_min":0,"x_max":0,"o":"m 75 271 b 401 -22 81 106 205 -3 l 364 -83 l 364 -162 l 409 -162 b 497 -199 467 -162 497 -171 b 417 -238 497 -229 456 -238 b 342 -229 385 -238 353 -232 l 342 -321 b 442 -333 370 -328 406 -333 b 633 -193 552 -333 633 -289 b 494 -73 633 -121 576 -79 l 525 -22 b 863 291 736 -5 863 111 b 582 569 863 442 779 527 l 464 594 b 302 717 349 619 302 655 b 473 843 302 793 370 843 b 653 711 572 843 644 791 l 846 711 b 471 1004 840 884 687 1004 b 97 701 245 1004 97 883 b 363 422 97 552 184 460 l 490 395 b 659 267 610 368 659 331 b 477 137 659 191 584 137 b 273 271 362 137 282 189 z "},"Ṡ":{"ha":938,"x_min":0,"x_max":0,"o":"m 472 1083 b 584 1193 534 1083 584 1132 b 472 1303 584 1255 534 1303 b 361 1193 411 1303 361 1255 b 472 1083 361 1132 411 1083 z m 75 271 b 467 -25 82 90 233 -25 b 863 291 712 -25 863 96 b 582 569 863 442 779 527 l 464 594 b 302 717 349 619 302 655 b 473 843 302 793 370 843 b 653 711 572 843 644 791 l 846 711 b 471 1004 840 884 687 1004 b 97 701 245 1004 97 883 b 363 422 97 552 184 460 l 490 395 b 659 267 610 368 659 331 b 477 137 659 191 584 137 b 273 271 362 137 282 189 z "},"Ṣ":{"ha":938,"x_min":0,"x_max":0,"o":"m 75 271 b 467 -25 82 90 233 -25 b 863 291 712 -25 863 96 b 582 569 863 442 779 527 l 464 594 b 302 717 349 619 302 655 b 473 843 302 793 370 843 b 653 711 572 843 644 791 l 846 711 b 471 1004 840 884 687 1004 b 97 701 245 1004 97 883 b 363 422 97 552 184 460 l 490 395 b 659 267 610 368 659 331 b 477 137 659 191 584 137 b 273 271 362 137 282 189 z m 467 -302 b 578 -193 528 -302 578 -254 b 467 -83 578 -132 528 -83 b 355 -193 406 -83 355 -132 b 467 -302 355 -254 406 -302 z "},"Ș":{"ha":938,"x_min":0,"x_max":0,"o":"m 75 271 b 467 -25 82 90 233 -25 b 863 291 712 -25 863 96 b 582 569 863 442 779 527 l 464 594 b 302 717 349 619 302 655 b 473 843 302 793 370 843 b 653 711 572 843 644 791 l 846 711 b 471 1004 840 884 687 1004 b 97 701 245 1004 97 883 b 363 422 97 552 184 460 l 490 395 b 659 267 610 368 659 331 b 477 137 659 191 584 137 b 273 271 362 137 282 189 z m 450 -335 l 562 -86 l 371 -86 l 305 -335 z "},"Ṩ":{"ha":938,"x_min":0,"x_max":0,"o":"m 472 1083 b 584 1193 534 1083 584 1132 b 472 1303 584 1255 534 1303 b 361 1193 411 1303 361 1255 b 472 1083 361 1132 411 1083 z m 75 271 b 467 -25 82 90 233 -25 b 863 291 712 -25 863 96 b 582 569 863 442 779 527 l 464 594 b 302 717 349 619 302 655 b 473 843 302 793 370 843 b 653 711 572 843 644 791 l 846 711 b 471 1004 840 884 687 1004 b 97 701 245 1004 97 883 b 363 422 97 552 184 460 l 490 395 b 659 267 610 368 659 331 b 477 137 659 191 584 137 b 273 271 362 137 282 189 z m 467 -302 b 578 -193 528 -302 578 -254 b 467 -83 578 -132 528 -83 b 355 -193 406 -83 355 -132 b 467 -302 355 -254 406 -302 z "},"Ṧ":{"ha":938,"x_min":0,"x_max":0,"o":"m 472 1294 b 578 1393 534 1294 578 1337 b 472 1492 578 1450 534 1492 b 366 1393 410 1492 366 1450 b 472 1294 366 1337 410 1294 z m 374 1071 l 570 1071 l 759 1251 l 574 1251 l 479 1155 l 465 1155 l 370 1251 l 185 1251 z m 75 271 b 467 -25 82 90 233 -25 b 863 291 712 -25 863 96 b 582 569 863 442 779 527 l 464 594 b 302 717 349 619 302 655 b 473 843 302 793 370 843 b 653 711 572 843 644 791 l 846 711 b 471 1004 840 884 687 1004 b 97 701 245 1004 97 883 b 363 422 97 552 184 460 l 490 395 b 659 267 610 368 659 331 b 477 137 659 191 584 137 b 273 271 362 137 282 189 z "},"Ŝ":{"ha":938,"x_min":0,"x_max":0,"o":"m 380 1297 l 187 1078 l 367 1078 l 466 1200 l 478 1200 l 577 1078 l 757 1078 l 564 1297 z m 75 271 b 467 -25 82 90 233 -25 b 863 291 712 -25 863 96 b 582 569 863 442 779 527 l 464 594 b 302 717 349 619 302 655 b 473 843 302 793 370 843 b 653 711 572 843 644 791 l 846 711 b 471 1004 840 884 687 1004 b 97 701 245 1004 97 883 b 363 422 97 552 184 460 l 490 395 b 659 267 610 368 659 331 b 477 137 659 191 584 137 b 273 271 362 137 282 189 z "},"Ṥ":{"ha":938,"x_min":0,"x_max":0,"o":"m 319 1104 b 430 1214 380 1104 430 1153 b 319 1324 430 1275 380 1324 b 207 1214 258 1324 207 1275 b 319 1104 207 1153 258 1104 z m 628 1078 l 800 1297 l 598 1297 l 481 1078 z m 75 271 b 467 -25 82 90 233 -25 b 863 291 712 -25 863 96 b 582 569 863 442 779 527 l 464 594 b 302 717 349 619 302 655 b 473 843 302 793 370 843 b 653 711 572 843 644 791 l 846 711 b 471 1004 840 884 687 1004 b 97 701 245 1004 97 883 b 363 422 97 552 184 460 l 490 395 b 659 267 610 368 659 331 b 477 137 659 191 584 137 b 273 271 362 137 282 189 z "},"Ś":{"ha":938,"x_min":0,"x_max":0,"o":"m 548 1078 l 720 1297 l 517 1297 l 401 1078 z m 75 271 b 467 -25 82 90 233 -25 b 863 291 712 -25 863 96 b 582 569 863 442 779 527 l 464 594 b 302 717 349 619 302 655 b 473 843 302 793 370 843 b 653 711 572 843 644 791 l 846 711 b 471 1004 840 884 687 1004 b 97 701 245 1004 97 883 b 363 422 97 552 184 460 l 490 395 b 659 267 610 368 659 331 b 477 137 659 191 584 137 b 273 271 362 137 282 189 z "},"ẞ":{"ha":1060,"x_min":0,"x_max":0,"o":"m 671 -17 b 985 275 860 -17 985 100 l 985 276 b 738 550 985 418 905 507 l 932 775 l 932 909 b 553 995 806 963 663 995 b 118 610 277 995 118 854 l 118 0 l 323 0 l 323 587 b 565 821 323 739 411 823 b 722 793 616 821 667 811 l 532 570 l 532 437 l 614 421 b 777 283 725 400 777 356 l 777 282 b 642 157 777 205 725 157 b 448 208 580 157 521 172 l 448 24 b 671 -17 514 -3 590 -17 z "},"T":{"ha":917,"x_min":0,"x_max":0,"o":"m 561 0 l 561 810 l 854 810 l 854 979 l 62 979 l 62 810 l 356 810 l 356 0 z "},"Ṱ":{"ha":917,"x_min":0,"x_max":0,"o":"m 561 0 l 561 810 l 854 810 l 854 979 l 62 979 l 62 810 l 356 810 l 356 0 z m 557 -86 l 360 -86 l 187 -326 l 362 -326 l 452 -182 l 465 -182 l 555 -326 l 730 -326 z "},"Ṭ":{"ha":917,"x_min":0,"x_max":0,"o":"m 561 0 l 561 810 l 854 810 l 854 979 l 62 979 l 62 810 l 356 810 l 356 0 z m 458 -302 b 570 -193 520 -302 570 -254 b 458 -83 570 -132 520 -83 b 347 -193 397 -83 347 -132 b 458 -302 347 -254 397 -302 z "},"Ț":{"ha":917,"x_min":0,"x_max":0,"o":"m 561 0 l 561 810 l 854 810 l 854 979 l 62 979 l 62 810 l 356 810 l 356 0 z m 441 -335 l 554 -86 l 363 -86 l 297 -335 z "},"Ṫ":{"ha":917,"x_min":0,"x_max":0,"o":"m 458 1083 b 570 1193 520 1083 570 1132 b 458 1303 570 1255 520 1303 b 347 1193 397 1303 347 1255 b 458 1083 347 1132 397 1083 z m 561 0 l 561 810 l 854 810 l 854 979 l 62 979 l 62 810 l 356 810 l 356 0 z "},"Ţ":{"ha":917,"x_min":0,"x_max":0,"o":"m 386 -162 l 431 -162 b 519 -199 489 -162 519 -171 b 439 -238 519 -229 479 -238 b 365 -229 407 -238 375 -232 l 365 -321 b 464 -333 392 -328 429 -333 b 654 -193 574 -333 654 -289 b 515 -73 654 -121 598 -79 l 561 0 l 561 810 l 854 810 l 854 979 l 62 979 l 62 810 l 356 810 l 356 0 l 437 0 l 386 -83 z "},"Ṯ":{"ha":917,"x_min":0,"x_max":0,"o":"m 561 0 l 561 810 l 854 810 l 854 979 l 62 979 l 62 810 l 356 810 l 356 0 z m 705 -133 l 213 -133 l 213 -252 l 705 -252 z "},"Ť":{"ha":917,"x_min":0,"x_max":0,"o":"m 551 1078 l 743 1297 l 564 1297 l 465 1174 l 452 1174 l 353 1297 l 174 1297 l 366 1078 z m 561 0 l 561 810 l 854 810 l 854 979 l 62 979 l 62 810 l 356 810 l 356 0 z "},"Ŧ":{"ha":917,"x_min":0,"x_max":0,"o":"m 161 395 l 356 395 l 356 0 l 561 0 l 561 395 l 755 395 l 755 546 l 561 546 l 561 810 l 854 810 l 854 979 l 62 979 l 62 810 l 356 810 l 356 546 l 161 546 z "},"U":{"ha":1056,"x_min":0,"x_max":0,"o":"m 323 979 l 118 979 l 118 338 b 528 -25 118 121 278 -25 b 938 338 779 -25 938 121 l 938 979 l 733 979 l 733 357 b 528 151 733 232 659 151 b 323 357 397 151 323 232 z "},"Ù":{"ha":1056,"x_min":0,"x_max":0,"o":"m 452 1078 l 599 1078 l 483 1297 l 281 1297 z m 323 979 l 118 979 l 118 338 b 528 -25 118 121 278 -25 b 938 338 779 -25 938 121 l 938 979 l 733 979 l 733 357 b 528 151 733 232 659 151 b 323 357 397 151 323 232 z "},"Ȕ":{"ha":1056,"x_min":0,"x_max":0,"o":"m 732 1078 l 659 1297 l 488 1297 l 598 1078 z m 476 1078 l 369 1297 l 183 1297 l 339 1078 z m 323 979 l 118 979 l 118 338 b 528 -25 118 121 278 -25 b 938 338 779 -25 938 121 l 938 979 l 733 979 l 733 357 b 528 151 733 232 659 151 b 323 357 397 151 323 232 z "},"Ú":{"ha":1056,"x_min":0,"x_max":0,"o":"m 604 1078 l 776 1297 l 574 1297 l 457 1078 z m 323 979 l 118 979 l 118 338 b 528 -25 118 121 278 -25 b 938 338 779 -25 938 121 l 938 979 l 733 979 l 733 357 b 528 151 733 232 659 151 b 323 357 397 151 323 232 z "},"Ű":{"ha":1056,"x_min":0,"x_max":0,"o":"m 323 1078 l 458 1078 l 568 1297 l 397 1297 z m 580 1078 l 717 1078 l 873 1297 l 687 1297 z m 323 979 l 118 979 l 118 338 b 528 -25 118 121 278 -25 b 938 338 779 -25 938 121 l 938 979 l 733 979 l 733 357 b 528 151 733 232 659 151 b 323 357 397 151 323 232 z "},"Û":{"ha":1056,"x_min":0,"x_max":0,"o":"m 436 1297 l 243 1078 l 423 1078 l 522 1200 l 534 1200 l 633 1078 l 813 1078 l 621 1297 z m 323 979 l 118 979 l 118 338 b 528 -25 118 121 278 -25 b 938 338 779 -25 938 121 l 938 979 l 733 979 l 733 357 b 528 151 733 232 659 151 b 323 357 397 151 323 232 z "},"Ǔ":{"ha":1056,"x_min":0,"x_max":0,"o":"m 621 1078 l 813 1297 l 633 1297 l 534 1174 l 522 1174 l 423 1297 l 243 1297 l 436 1078 z m 323 979 l 118 979 l 118 338 b 528 -25 118 121 278 -25 b 938 338 779 -25 938 121 l 938 979 l 733 979 l 733 357 b 528 151 733 232 659 151 b 323 357 397 151 323 232 z "},"Ṷ":{"ha":1056,"x_min":0,"x_max":0,"o":"m 323 979 l 118 979 l 118 338 b 528 -25 118 121 278 -25 b 938 338 779 -25 938 121 l 938 979 l 733 979 l 733 357 b 528 151 733 232 659 151 b 323 357 397 151 323 232 z m 627 -86 l 429 -86 l 256 -326 l 431 -326 l 522 -182 l 534 -182 l 625 -326 l 800 -326 z "},"Ü":{"ha":1056,"x_min":0,"x_max":0,"o":"m 365 1088 b 471 1192 423 1088 471 1133 b 365 1295 471 1250 423 1295 b 260 1192 307 1295 260 1250 b 365 1088 260 1133 307 1088 z m 691 1088 b 797 1192 749 1088 797 1133 b 691 1295 797 1250 749 1295 b 586 1192 633 1295 586 1250 b 691 1088 586 1133 633 1088 z m 323 979 l 118 979 l 118 338 b 528 -25 118 121 278 -25 b 938 338 779 -25 938 121 l 938 979 l 733 979 l 733 357 b 528 151 733 232 659 151 b 323 357 397 151 323 232 z "},"Ǜ":{"ha":1056,"x_min":0,"x_max":0,"o":"m 616 1310 l 503 1473 l 305 1473 l 453 1310 z m 370 1071 b 475 1172 430 1071 475 1114 b 370 1273 475 1230 430 1273 b 264 1172 309 1273 264 1230 b 370 1071 264 1114 309 1071 z m 687 1071 b 792 1172 748 1071 792 1114 b 687 1273 792 1230 748 1273 b 582 1172 626 1273 582 1230 b 687 1071 582 1114 626 1071 z m 323 979 l 118 979 l 118 338 b 528 -25 118 121 278 -25 b 938 338 779 -25 938 121 l 938 979 l 733 979 l 733 357 b 528 151 733 232 659 151 b 323 357 397 151 323 232 z "},"Ǘ":{"ha":1056,"x_min":0,"x_max":0,"o":"m 447 1310 l 610 1310 l 758 1473 l 559 1473 z m 370 1071 b 475 1172 430 1071 475 1114 b 370 1273 475 1230 430 1273 b 264 1172 309 1273 264 1230 b 370 1071 264 1114 309 1071 z m 687 1071 b 792 1172 748 1071 792 1114 b 687 1273 792 1230 748 1273 b 582 1172 626 1273 582 1230 b 687 1071 582 1114 626 1071 z m 323 979 l 118 979 l 118 338 b 528 -25 118 121 278 -25 b 938 338 779 -25 938 121 l 938 979 l 733 979 l 733 357 b 528 151 733 232 659 151 b 323 357 397 151 323 232 z "},"Ǖ":{"ha":1056,"x_min":0,"x_max":0,"o":"m 275 1461 l 275 1350 l 781 1350 l 781 1461 z m 370 1270 b 265 1171 309 1270 265 1228 b 370 1071 265 1113 309 1071 b 473 1171 429 1071 473 1113 b 370 1270 473 1228 429 1270 z m 687 1270 b 583 1171 627 1270 583 1228 b 687 1071 583 1113 627 1071 b 791 1171 747 1071 791 1113 b 687 1270 791 1228 747 1270 z m 323 979 l 118 979 l 118 338 b 528 -25 118 121 278 -25 b 938 338 779 -25 938 121 l 938 979 l 733 979 l 733 357 b 528 151 733 232 659 151 b 323 357 397 151 323 232 z "},"Ǚ":{"ha":1056,"x_min":0,"x_max":0,"o":"m 437 1293 l 620 1293 l 808 1492 l 630 1492 l 535 1381 l 522 1381 l 427 1492 l 248 1492 z m 370 1254 b 267 1158 309 1254 267 1213 b 370 1061 267 1103 309 1061 b 472 1158 429 1061 472 1103 b 370 1254 472 1213 429 1254 z m 687 1254 b 584 1158 627 1254 584 1213 b 687 1061 584 1103 627 1061 b 789 1158 747 1061 789 1103 b 687 1254 789 1213 747 1254 z m 323 979 l 118 979 l 118 338 b 528 -25 118 121 278 -25 b 938 338 779 -25 938 121 l 938 979 l 733 979 l 733 357 b 528 151 733 232 659 151 b 323 357 397 151 323 232 z "},"Ṳ":{"ha":1056,"x_min":0,"x_max":0,"o":"m 323 979 l 118 979 l 118 338 b 528 -25 118 121 278 -25 b 938 338 779 -25 938 121 l 938 979 l 733 979 l 733 357 b 528 151 733 232 659 151 b 323 357 397 151 323 232 z m 365 -296 b 471 -193 423 -296 471 -251 b 365 -89 471 -134 423 -89 b 260 -193 307 -89 260 -134 b 365 -296 260 -251 307 -296 z m 691 -296 b 797 -193 749 -296 797 -251 b 691 -89 797 -134 749 -89 b 586 -193 633 -89 586 -134 b 691 -296 586 -251 633 -296 z "},"Ṵ":{"ha":1056,"x_min":0,"x_max":0,"o":"m 323 979 l 118 979 l 118 338 b 528 -25 118 121 278 -25 b 938 338 779 -25 938 121 l 938 979 l 733 979 l 733 357 b 528 151 733 232 659 151 b 323 357 397 151 323 232 z m 628 -300 b 797 -87 729 -300 797 -220 l 674 -87 b 623 -183 674 -147 659 -183 b 432 -84 561 -183 542 -84 b 265 -298 333 -84 265 -163 l 388 -298 b 440 -206 388 -238 405 -206 b 628 -300 498 -206 519 -300 z "},"Ủ":{"ha":1056,"x_min":0,"x_max":0,"o":"m 388 1236 b 463 1249 406 1243 434 1249 b 536 1196 508 1249 536 1227 b 465 1124 536 1167 507 1140 l 527 1048 b 663 1214 611 1080 663 1140 b 493 1354 663 1299 593 1354 b 388 1338 450 1354 412 1346 z m 323 979 l 118 979 l 118 338 b 528 -25 118 121 278 -25 b 938 338 779 -25 938 121 l 938 979 l 733 979 l 733 357 b 528 151 733 232 659 151 b 323 357 397 151 323 232 z "},"Ŭ":{"ha":1056,"x_min":0,"x_max":0,"o":"m 260 1295 b 528 1072 260 1164 361 1072 b 795 1295 696 1072 795 1164 l 655 1295 b 528 1185 654 1230 607 1185 b 401 1295 450 1185 403 1230 z m 323 979 l 118 979 l 118 338 b 528 -25 118 121 278 -25 b 938 338 779 -25 938 121 l 938 979 l 733 979 l 733 357 b 528 151 733 232 659 151 b 323 357 397 151 323 232 z "},"Ȗ":{"ha":1056,"x_min":0,"x_max":0,"o":"m 795 1072 b 528 1295 795 1202 696 1295 b 260 1072 361 1295 260 1202 l 401 1072 b 528 1181 403 1137 450 1181 b 655 1072 607 1181 654 1137 z m 323 979 l 118 979 l 118 338 b 528 -25 118 121 278 -25 b 938 338 779 -25 938 121 l 938 979 l 733 979 l 733 357 b 528 151 733 232 659 151 b 323 357 397 151 323 232 z "},"Ṹ":{"ha":1056,"x_min":0,"x_max":0,"o":"m 463 1310 l 635 1310 l 764 1473 l 571 1473 z m 633 1071 b 800 1259 729 1071 800 1143 l 675 1259 b 616 1187 673 1207 648 1187 b 424 1269 551 1187 533 1269 b 256 1078 328 1269 256 1198 l 381 1078 b 439 1153 383 1129 406 1153 b 633 1071 505 1153 524 1071 z m 323 979 l 118 979 l 118 338 b 528 -25 118 121 278 -25 b 938 338 779 -25 938 121 l 938 979 l 733 979 l 733 357 b 528 151 733 232 659 151 b 323 357 397 151 323 232 z "},"Ụ":{"ha":1056,"x_min":0,"x_max":0,"o":"m 323 979 l 118 979 l 118 338 b 528 -25 118 121 278 -25 b 938 338 779 -25 938 121 l 938 979 l 733 979 l 733 357 b 528 151 733 232 659 151 b 323 357 397 151 323 232 z m 528 -302 b 640 -193 589 -302 640 -254 b 528 -83 640 -132 589 -83 b 416 -193 467 -83 416 -132 b 528 -302 416 -254 467 -302 z "},"Ũ":{"ha":1056,"x_min":0,"x_max":0,"o":"m 628 1070 b 797 1284 729 1070 797 1151 l 674 1284 b 623 1188 674 1224 659 1188 b 432 1287 561 1188 542 1287 b 265 1073 333 1287 265 1208 l 388 1073 b 440 1164 388 1133 405 1164 b 628 1070 498 1164 519 1070 z m 323 979 l 118 979 l 118 338 b 528 -25 118 121 278 -25 b 938 338 779 -25 938 121 l 938 979 l 733 979 l 733 357 b 528 151 733 232 659 151 b 323 357 397 151 323 232 z "},"Ū":{"ha":1056,"x_min":0,"x_max":0,"o":"m 774 1249 l 282 1249 l 282 1129 l 774 1129 z m 323 979 l 118 979 l 118 338 b 528 -25 118 121 278 -25 b 938 338 779 -25 938 121 l 938 979 l 733 979 l 733 357 b 528 151 733 232 659 151 b 323 357 397 151 323 232 z "},"Ṻ":{"ha":1056,"x_min":0,"x_max":0,"o":"m 378 1283 b 477 1379 436 1283 477 1326 b 378 1476 477 1434 436 1476 b 279 1379 320 1476 279 1434 b 378 1283 279 1326 320 1283 z m 678 1283 b 777 1379 736 1283 777 1326 b 678 1476 777 1434 736 1476 b 579 1379 620 1476 579 1434 b 678 1283 579 1326 620 1283 z m 781 1093 l 781 1211 l 275 1211 l 275 1093 z m 323 979 l 118 979 l 118 338 b 528 -25 118 121 278 -25 b 938 338 779 -25 938 121 l 938 979 l 733 979 l 733 357 b 528 151 733 232 659 151 b 323 357 397 151 323 232 z "},"Ů":{"ha":1056,"x_min":0,"x_max":0,"o":"m 528 1042 b 670 1181 606 1042 670 1103 b 528 1320 670 1260 606 1320 b 386 1181 450 1320 386 1260 b 528 1042 386 1103 450 1042 z m 528 1120 b 465 1181 493 1120 465 1145 b 528 1243 465 1217 493 1243 b 591 1181 564 1243 591 1217 b 528 1120 591 1145 564 1120 z m 323 979 l 118 979 l 118 338 b 528 -25 118 121 278 -25 b 938 338 779 -25 938 121 l 938 979 l 733 979 l 733 357 b 528 151 733 232 659 151 b 323 357 397 151 323 232 z "},"Ų":{"ha":1056,"x_min":0,"x_max":0,"o":"m 699 -315 b 793 -300 730 -315 762 -310 l 793 -189 b 744 -195 774 -194 758 -195 b 665 -127 689 -195 665 -160 b 803 56 665 -63 730 -8 b 938 338 889 119 938 218 l 938 979 l 733 979 l 733 357 b 528 151 733 232 659 151 b 323 357 397 151 323 232 l 323 979 l 118 979 l 118 338 b 528 -25 118 121 278 -25 b 601 -21 553 -25 577 -24 b 513 -174 544 -65 513 -119 b 699 -315 513 -262 587 -315 z "},"Ư":{"ha":1183,"x_min":0,"x_max":0,"o":"m 528 -25 b 938 338 776 -25 938 119 l 938 848 l 1002 848 b 1156 992 1095 848 1156 898 l 1156 1154 l 1000 1154 l 1000 1031 b 945 979 1000 996 981 979 l 733 979 l 733 357 b 528 151 733 229 656 151 b 323 357 401 151 323 229 l 323 979 l 118 979 l 118 338 b 528 -25 118 119 281 -25 z "},"Ừ":{"ha":1183,"x_min":0,"x_max":0,"o":"m 452 1078 l 599 1078 l 483 1297 l 281 1297 z m 528 -25 b 938 338 776 -25 938 119 l 938 848 l 1002 848 b 1156 992 1095 848 1156 898 l 1156 1154 l 1000 1154 l 1000 1031 b 945 979 1000 996 981 979 l 733 979 l 733 357 b 528 151 733 229 656 151 b 323 357 401 151 323 229 l 323 979 l 118 979 l 118 338 b 528 -25 118 119 281 -25 z "},"Ứ":{"ha":1183,"x_min":0,"x_max":0,"o":"m 604 1078 l 776 1297 l 574 1297 l 457 1078 z m 528 -25 b 938 338 776 -25 938 119 l 938 848 l 1002 848 b 1156 992 1095 848 1156 898 l 1156 1154 l 1000 1154 l 1000 1031 b 945 979 1000 996 981 979 l 733 979 l 733 357 b 528 151 733 229 656 151 b 323 357 401 151 323 229 l 323 979 l 118 979 l 118 338 b 528 -25 118 119 281 -25 z "},"Ự":{"ha":1183,"x_min":0,"x_max":0,"o":"m 528 -25 b 938 338 776 -25 938 119 l 938 848 l 1002 848 b 1156 992 1095 848 1156 898 l 1156 1154 l 1000 1154 l 1000 1031 b 945 979 1000 996 981 979 l 733 979 l 733 357 b 528 151 733 229 656 151 b 323 357 401 151 323 229 l 323 979 l 118 979 l 118 338 b 528 -25 118 119 281 -25 z m 528 -302 b 640 -193 589 -302 640 -254 b 528 -83 640 -132 589 -83 b 416 -193 467 -83 416 -132 b 528 -302 416 -254 467 -302 z "},"Ử":{"ha":1183,"x_min":0,"x_max":0,"o":"m 388 1236 b 463 1249 406 1243 434 1249 b 536 1196 508 1249 536 1227 b 465 1124 536 1167 507 1140 l 527 1048 b 663 1214 611 1080 663 1140 b 493 1354 663 1299 593 1354 b 388 1338 450 1354 412 1346 z m 528 -25 b 938 338 776 -25 938 119 l 938 848 l 1002 848 b 1156 992 1095 848 1156 898 l 1156 1154 l 1000 1154 l 1000 1031 b 945 979 1000 996 981 979 l 733 979 l 733 357 b 528 151 733 229 656 151 b 323 357 401 151 323 229 l 323 979 l 118 979 l 118 338 b 528 -25 118 119 281 -25 z "},"Ữ":{"ha":1183,"x_min":0,"x_max":0,"o":"m 628 1070 b 797 1284 729 1070 797 1151 l 674 1284 b 623 1188 674 1224 659 1188 b 432 1287 561 1188 542 1287 b 265 1073 333 1287 265 1208 l 388 1073 b 440 1164 388 1133 405 1164 b 628 1070 498 1164 519 1070 z m 528 -25 b 938 338 776 -25 938 119 l 938 848 l 1002 848 b 1156 992 1095 848 1156 898 l 1156 1154 l 1000 1154 l 1000 1031 b 945 979 1000 996 981 979 l 733 979 l 733 357 b 528 151 733 229 656 151 b 323 357 401 151 323 229 l 323 979 l 118 979 l 118 338 b 528 -25 118 119 281 -25 z "},"V":{"ha":1002,"x_min":0,"x_max":0,"o":"m 627 0 l 954 979 l 733 979 l 515 224 l 503 224 l 280 979 l 49 979 l 380 0 z "},"Ṽ":{"ha":1002,"x_min":0,"x_max":0,"o":"m 604 1070 b 772 1284 705 1070 772 1151 l 650 1284 b 598 1188 650 1224 635 1188 b 408 1287 536 1188 517 1287 b 241 1073 309 1287 241 1208 l 363 1073 b 416 1164 363 1133 380 1164 b 604 1070 473 1164 494 1070 z m 627 0 l 954 979 l 733 979 l 515 224 l 503 224 l 280 979 l 49 979 l 380 0 z "},"Ṿ":{"ha":1002,"x_min":0,"x_max":0,"o":"m 627 0 l 954 979 l 733 979 l 515 224 l 503 224 l 280 979 l 49 979 l 380 0 z m 504 -302 b 615 -193 565 -302 615 -254 b 504 -83 615 -132 565 -83 b 392 -193 443 -83 392 -132 b 504 -302 392 -254 443 -302 z "},"W":{"ha":1402,"x_min":0,"x_max":0,"o":"m 695 659 l 706 659 l 891 0 l 1083 0 l 1343 979 l 1131 979 l 980 279 l 969 279 l 787 979 l 614 979 l 436 279 l 425 279 l 273 979 l 60 979 l 319 0 l 512 0 z "},"Ẁ":{"ha":1402,"x_min":0,"x_max":0,"o":"m 625 1078 l 772 1078 l 656 1297 l 454 1297 z m 695 659 l 706 659 l 891 0 l 1083 0 l 1343 979 l 1131 979 l 980 279 l 969 279 l 787 979 l 614 979 l 436 279 l 425 279 l 273 979 l 60 979 l 319 0 l 512 0 z "},"Ẃ":{"ha":1402,"x_min":0,"x_max":0,"o":"m 777 1078 l 949 1297 l 747 1297 l 630 1078 z m 695 659 l 706 659 l 891 0 l 1083 0 l 1343 979 l 1131 979 l 980 279 l 969 279 l 787 979 l 614 979 l 436 279 l 425 279 l 273 979 l 60 979 l 319 0 l 512 0 z "},"Ẇ":{"ha":1402,"x_min":0,"x_max":0,"o":"m 701 1083 b 812 1193 762 1083 812 1132 b 701 1303 812 1255 762 1303 b 589 1193 640 1303 589 1255 b 701 1083 589 1132 640 1083 z m 695 659 l 706 659 l 891 0 l 1083 0 l 1343 979 l 1131 979 l 980 279 l 969 279 l 787 979 l 614 979 l 436 279 l 425 279 l 273 979 l 60 979 l 319 0 l 512 0 z "},"Ẉ":{"ha":1402,"x_min":0,"x_max":0,"o":"m 695 659 l 706 659 l 891 0 l 1083 0 l 1343 979 l 1131 979 l 980 279 l 969 279 l 787 979 l 614 979 l 436 279 l 425 279 l 273 979 l 60 979 l 319 0 l 512 0 z m 701 -302 b 812 -193 762 -302 812 -254 b 701 -83 812 -132 762 -83 b 589 -193 640 -83 589 -132 b 701 -302 589 -254 640 -302 z "},"Ẅ":{"ha":1402,"x_min":0,"x_max":0,"o":"m 538 1088 b 644 1192 596 1088 644 1133 b 538 1295 644 1250 596 1295 b 433 1192 480 1295 433 1250 b 538 1088 433 1133 480 1088 z m 864 1088 b 970 1192 922 1088 970 1133 b 864 1295 970 1250 922 1295 b 759 1192 806 1295 759 1250 b 864 1088 759 1133 806 1088 z m 695 659 l 706 659 l 891 0 l 1083 0 l 1343 979 l 1131 979 l 980 279 l 969 279 l 787 979 l 614 979 l 436 279 l 425 279 l 273 979 l 60 979 l 319 0 l 512 0 z "},"Ŵ":{"ha":1402,"x_min":0,"x_max":0,"o":"m 609 1297 l 416 1078 l 596 1078 l 695 1200 l 707 1200 l 806 1078 l 986 1078 l 793 1297 z m 695 659 l 706 659 l 891 0 l 1083 0 l 1343 979 l 1131 979 l 980 279 l 969 279 l 787 979 l 614 979 l 436 279 l 425 279 l 273 979 l 60 979 l 319 0 l 512 0 z "},"X":{"ha":1013,"x_min":0,"x_max":0,"o":"m 60 0 l 281 0 l 494 336 l 506 336 l 716 0 l 949 0 l 632 490 l 954 979 l 725 979 l 519 632 l 507 632 l 302 979 l 62 979 l 372 493 z "},"Ẋ":{"ha":1013,"x_min":0,"x_max":0,"o":"m 511 1083 b 623 1193 572 1083 623 1132 b 511 1303 623 1255 572 1303 b 399 1193 450 1303 399 1255 b 511 1083 399 1132 450 1083 z m 60 0 l 281 0 l 494 336 l 506 336 l 716 0 l 949 0 l 632 490 l 954 979 l 725 979 l 519 632 l 507 632 l 302 979 l 62 979 l 372 493 z "},"Ẍ":{"ha":1013,"x_min":0,"x_max":0,"o":"m 348 1088 b 453 1192 406 1088 453 1133 b 348 1295 453 1250 406 1295 b 242 1192 290 1295 242 1250 b 348 1088 242 1133 290 1088 z m 674 1088 b 779 1192 732 1088 779 1133 b 674 1295 779 1250 732 1295 b 568 1192 616 1295 568 1250 b 674 1088 568 1133 616 1088 z m 60 0 l 281 0 l 494 336 l 506 336 l 716 0 l 949 0 l 632 490 l 954 979 l 725 979 l 519 632 l 507 632 l 302 979 l 62 979 l 372 493 z "},"Y":{"ha":984,"x_min":0,"x_max":0,"o":"m 595 0 l 595 366 l 935 979 l 713 979 l 498 567 l 486 567 l 271 979 l 49 979 l 390 366 l 390 0 z "},"Ỳ":{"ha":984,"x_min":0,"x_max":0,"o":"m 416 1078 l 563 1078 l 447 1297 l 245 1297 z m 595 0 l 595 366 l 935 979 l 713 979 l 498 567 l 486 567 l 271 979 l 49 979 l 390 366 l 390 0 z "},"Ý":{"ha":984,"x_min":0,"x_max":0,"o":"m 568 1078 l 740 1297 l 538 1297 l 421 1078 z m 595 0 l 595 366 l 935 979 l 713 979 l 498 567 l 486 567 l 271 979 l 49 979 l 390 366 l 390 0 z "},"Ẏ":{"ha":984,"x_min":0,"x_max":0,"o":"m 492 1083 b 604 1193 553 1083 604 1132 b 492 1303 604 1255 553 1303 b 380 1193 431 1303 380 1255 b 492 1083 380 1132 431 1083 z m 595 0 l 595 366 l 935 979 l 713 979 l 498 567 l 486 567 l 271 979 l 49 979 l 390 366 l 390 0 z "},"Ỵ":{"ha":984,"x_min":0,"x_max":0,"o":"m 595 0 l 595 366 l 935 979 l 713 979 l 498 567 l 486 567 l 271 979 l 49 979 l 390 366 l 390 0 z m 492 -302 b 604 -193 553 -302 604 -254 b 492 -83 604 -132 553 -83 b 380 -193 431 -83 380 -132 b 492 -302 380 -254 431 -302 z "},"Ÿ":{"ha":984,"x_min":0,"x_max":0,"o":"m 329 1088 b 435 1192 387 1088 435 1133 b 329 1295 435 1250 387 1295 b 224 1192 271 1295 224 1250 b 329 1088 224 1133 271 1088 z m 655 1088 b 761 1192 713 1088 761 1133 b 655 1295 761 1250 713 1295 b 550 1192 597 1295 550 1250 b 655 1088 550 1133 597 1088 z m 595 0 l 595 366 l 935 979 l 713 979 l 498 567 l 486 567 l 271 979 l 49 979 l 390 366 l 390 0 z "},"Ỹ":{"ha":984,"x_min":0,"x_max":0,"o":"m 592 1070 b 761 1284 693 1070 761 1151 l 638 1284 b 587 1188 638 1224 623 1188 b 396 1287 525 1188 506 1287 b 229 1073 297 1287 229 1208 l 352 1073 b 404 1164 352 1133 369 1164 b 592 1070 462 1164 483 1070 z m 595 0 l 595 366 l 935 979 l 713 979 l 498 567 l 486 567 l 271 979 l 49 979 l 390 366 l 390 0 z "},"Ŷ":{"ha":984,"x_min":0,"x_max":0,"o":"m 400 1297 l 208 1078 l 387 1078 l 486 1200 l 498 1200 l 597 1078 l 777 1078 l 585 1297 z m 595 0 l 595 366 l 935 979 l 713 979 l 498 567 l 486 567 l 271 979 l 49 979 l 390 366 l 390 0 z "},"Ȳ":{"ha":984,"x_min":0,"x_max":0,"o":"m 738 1249 l 246 1249 l 246 1129 l 738 1129 z m 595 0 l 595 366 l 935 979 l 713 979 l 498 567 l 486 567 l 271 979 l 49 979 l 390 366 l 390 0 z "},"Ỷ":{"ha":984,"x_min":0,"x_max":0,"o":"m 352 1236 b 427 1249 370 1243 398 1249 b 500 1196 472 1249 500 1227 b 429 1124 500 1167 471 1140 l 491 1048 b 627 1214 575 1080 627 1140 b 457 1354 627 1299 557 1354 b 352 1338 414 1354 376 1346 z m 595 0 l 595 366 l 935 979 l 713 979 l 498 567 l 486 567 l 271 979 l 49 979 l 390 366 l 390 0 z "},"Z":{"ha":939,"x_min":0,"x_max":0,"o":"m 92 0 l 847 0 l 847 169 l 342 169 l 342 181 l 833 846 l 833 979 l 103 979 l 103 810 l 584 810 l 584 798 l 92 134 z "},"Ź":{"ha":939,"x_min":0,"x_max":0,"o":"m 545 1078 l 717 1297 l 515 1297 l 399 1078 z m 92 0 l 847 0 l 847 169 l 342 169 l 342 181 l 833 846 l 833 979 l 103 979 l 103 810 l 584 810 l 584 798 l 92 134 z "},"Ž":{"ha":939,"x_min":0,"x_max":0,"o":"m 562 1078 l 754 1297 l 574 1297 l 475 1174 l 463 1174 l 364 1297 l 184 1297 l 377 1078 z m 92 0 l 847 0 l 847 169 l 342 169 l 342 181 l 833 846 l 833 979 l 103 979 l 103 810 l 584 810 l 584 798 l 92 134 z "},"Ẑ":{"ha":939,"x_min":0,"x_max":0,"o":"m 377 1297 l 184 1078 l 364 1078 l 463 1200 l 475 1200 l 574 1078 l 754 1078 l 562 1297 z m 92 0 l 847 0 l 847 169 l 342 169 l 342 181 l 833 846 l 833 979 l 103 979 l 103 810 l 584 810 l 584 798 l 92 134 z "},"Ẕ":{"ha":939,"x_min":0,"x_max":0,"o":"m 92 0 l 847 0 l 847 169 l 342 169 l 342 181 l 833 846 l 833 979 l 103 979 l 103 810 l 584 810 l 584 798 l 92 134 z m 715 -133 l 224 -133 l 224 -252 l 715 -252 z "},"Ẓ":{"ha":939,"x_min":0,"x_max":0,"o":"m 92 0 l 847 0 l 847 169 l 342 169 l 342 181 l 833 846 l 833 979 l 103 979 l 103 810 l 584 810 l 584 798 l 92 134 z m 469 -302 b 581 -193 531 -302 581 -254 b 469 -83 581 -132 531 -83 b 358 -193 408 -83 358 -132 b 469 -302 358 -254 408 -302 z "},"Ż":{"ha":939,"x_min":0,"x_max":0,"o":"m 469 1083 b 581 1193 531 1083 581 1132 b 469 1303 581 1255 531 1303 b 358 1193 408 1303 358 1255 b 469 1083 358 1132 408 1083 z m 92 0 l 847 0 l 847 169 l 342 169 l 342 181 l 833 846 l 833 979 l 103 979 l 103 810 l 584 810 l 584 798 l 92 134 z "},"Æ":{"ha":1396,"x_min":0,"x_max":0,"o":"m 671 0 l 1300 0 l 1300 169 l 859 169 l 859 413 l 1275 413 l 1275 570 l 859 570 l 859 810 l 1300 810 l 1300 979 l 452 979 l 49 0 l 252 0 l 356 253 l 671 253 z m 584 821 l 671 821 l 671 406 l 415 406 z "},"Ǣ":{"ha":1396,"x_min":0,"x_max":0,"o":"m 1120 1249 l 628 1249 l 628 1129 l 1120 1129 z m 671 0 l 1300 0 l 1300 169 l 859 169 l 859 413 l 1275 413 l 1275 570 l 859 570 l 859 810 l 1300 810 l 1300 979 l 452 979 l 49 0 l 252 0 l 356 253 l 671 253 z m 584 821 l 671 821 l 671 406 l 415 406 z "},"Ǽ":{"ha":1396,"x_min":0,"x_max":0,"o":"m 949 1078 l 1122 1297 l 920 1297 l 803 1078 z m 671 0 l 1300 0 l 1300 169 l 859 169 l 859 413 l 1275 413 l 1275 570 l 859 570 l 859 810 l 1300 810 l 1300 979 l 452 979 l 49 0 l 252 0 l 356 253 l 671 253 z m 584 821 l 671 821 l 671 406 l 415 406 z "},"Œ":{"ha":1562,"x_min":0,"x_max":0,"o":"m 844 0 l 1465 0 l 1465 169 l 1015 169 l 1015 416 l 1440 416 l 1440 574 l 1015 574 l 1015 810 l 1465 810 l 1465 979 l 844 979 l 844 825 l 831 825 b 516 1004 785 930 654 1004 b 75 490 240 1004 75 812 b 516 -25 75 168 240 -25 b 831 159 656 -25 782 49 l 844 159 z m 550 830 b 808 490 709 830 808 699 b 550 149 808 281 709 149 b 285 490 387 149 285 281 b 550 830 285 698 388 830 z "},"Ð":{"ha":1038,"x_min":0,"x_max":0,"o":"m 34 422 l 119 422 l 119 0 l 504 0 b 963 496 797 0 963 179 b 504 979 963 803 795 979 l 119 979 l 119 572 l 34 572 z m 323 810 l 471 810 b 754 492 649 810 754 694 b 471 169 754 283 652 169 l 323 169 l 323 422 l 498 422 l 498 572 l 323 572 z "},"Þ":{"ha":935,"x_min":0,"x_max":0,"o":"m 119 979 l 119 0 l 323 0 l 323 199 l 523 199 b 855 509 713 199 855 316 b 533 819 855 703 718 819 l 325 819 l 325 979 z m 323 656 l 477 656 b 647 509 581 656 647 607 b 477 360 647 410 581 360 l 323 360 z "},"Ǝ":{"ha":864,"x_min":0,"x_max":0,"o":"m 97 169 l 97 0 l 745 0 l 745 979 l 97 979 l 97 810 l 541 810 l 541 574 l 122 574 l 122 416 l 541 416 l 541 169 z "},"Α":{"ha":1017,"x_min":0,"x_max":0,"o":"m 747 0 l 969 0 l 629 979 l 389 979 l 49 0 l 254 0 l 330 237 l 673 237 z m 496 780 l 509 780 l 630 391 l 374 391 z "},"Β":{"ha":963,"x_min":0,"x_max":0,"o":"m 558 0 b 897 280 767 0 897 108 b 673 513 897 406 802 503 l 673 526 b 850 734 773 541 850 631 b 547 979 850 886 736 979 l 119 979 l 119 0 z m 323 827 l 494 827 b 648 699 592 827 648 779 b 477 572 648 618 588 572 l 323 572 z m 323 153 l 323 437 l 501 437 b 688 296 622 437 688 388 b 506 153 688 203 624 153 z "},"Γ":{"ha":817,"x_min":0,"x_max":0,"o":"m 323 0 l 323 810 l 746 810 l 746 979 l 119 979 l 119 0 z "},"Δ":{"ha":1021,"x_min":0,"x_max":0,"o":"m 945 0 l 945 117 l 631 979 l 391 979 l 77 117 l 77 0 z m 292 181 l 498 787 l 511 787 l 715 181 l 715 169 l 292 169 z "},"Ε":{"ha":864,"x_min":0,"x_max":0,"o":"m 767 169 l 323 169 l 323 416 l 742 416 l 742 574 l 323 574 l 323 810 l 767 810 l 767 979 l 119 979 l 119 0 l 767 0 z "},"Ζ":{"ha":939,"x_min":0,"x_max":0,"o":"m 92 0 l 847 0 l 847 169 l 342 169 l 342 181 l 833 846 l 833 979 l 103 979 l 103 810 l 584 810 l 584 798 l 92 134 z "},"Η":{"ha":1088,"x_min":0,"x_max":0,"o":"m 969 0 l 969 979 l 764 979 l 764 581 l 323 581 l 323 979 l 119 979 l 119 0 l 323 0 l 323 412 l 764 412 l 764 0 z "},"Θ":{"ha":1133,"x_min":0,"x_max":0,"o":"m 567 1004 b 75 490 261 1004 75 818 b 567 -25 75 164 261 -25 b 1057 490 872 -25 1057 165 b 567 1004 1057 818 873 1004 z m 567 833 b 847 490 739 833 847 709 b 567 146 847 271 740 146 b 286 490 393 146 286 271 b 567 833 286 709 395 833 z m 739 404 l 739 569 l 393 569 l 393 404 z "},"Ι":{"ha":442,"x_min":0,"x_max":0,"o":"m 323 0 l 323 979 l 119 979 l 119 0 z "},"Κ":{"ha":985,"x_min":0,"x_max":0,"o":"m 323 0 l 323 299 l 420 416 l 705 0 l 950 0 l 568 550 l 925 979 l 697 979 l 336 539 l 323 539 l 323 979 l 119 979 l 119 0 z "},"Λ":{"ha":1000,"x_min":0,"x_max":0,"o":"m 722 0 l 947 0 l 621 979 l 380 979 l 54 0 l 262 0 l 489 770 l 501 770 z "},"Μ":{"ha":1274,"x_min":0,"x_max":0,"o":"m 1155 0 l 1155 979 l 914 979 l 643 304 l 631 304 l 360 979 l 119 979 l 119 0 l 309 0 l 309 663 l 319 663 l 569 48 l 705 48 l 954 663 l 965 663 l 965 0 z "},"Ν":{"ha":1067,"x_min":0,"x_max":0,"o":"m 315 0 l 315 626 l 327 626 l 779 0 l 948 0 l 948 979 l 752 979 l 752 355 l 740 355 l 290 979 l 119 979 l 119 0 z "},"Ξ":{"ha":931,"x_min":0,"x_max":0,"o":"m 97 979 l 97 805 l 834 805 l 834 979 z m 775 412 l 775 575 l 156 575 l 156 412 z m 97 174 l 97 0 l 834 0 l 834 174 z "},"Ο":{"ha":1093,"x_min":0,"x_max":0,"o":"m 547 1004 b 75 490 258 1004 75 807 b 547 -25 75 173 256 -25 b 1017 490 836 -25 1017 173 b 547 1004 1017 806 835 1004 z m 547 830 b 808 490 705 830 808 698 b 547 149 808 282 706 149 b 285 490 385 149 285 282 b 547 830 285 698 387 830 z "},"Π":{"ha":1074,"x_min":0,"x_max":0,"o":"m 956 0 l 956 979 l 119 979 l 119 0 l 323 0 l 323 810 l 751 810 l 751 0 z "},"Ρ":{"ha":936,"x_min":0,"x_max":0,"o":"m 119 979 l 119 0 l 323 0 l 323 309 l 517 309 b 866 642 723 309 866 443 b 527 979 866 844 728 979 z m 323 816 l 473 816 b 658 642 591 816 658 755 b 472 469 658 530 589 469 l 323 469 z "},"Σ":{"ha":925,"x_min":0,"x_max":0,"o":"m 350 181 l 564 486 l 564 511 l 366 798 l 366 810 l 819 810 l 819 979 l 106 979 l 106 831 l 347 491 l 92 126 l 92 0 l 833 0 l 833 169 l 350 169 z "},"Τ":{"ha":917,"x_min":0,"x_max":0,"o":"m 561 0 l 561 810 l 854 810 l 854 979 l 62 979 l 62 810 l 356 810 l 356 0 z "},"Υ":{"ha":984,"x_min":0,"x_max":0,"o":"m 595 0 l 595 366 l 935 979 l 713 979 l 498 567 l 486 567 l 271 979 l 49 979 l 390 366 l 390 0 z "},"Φ":{"ha":1265,"x_min":0,"x_max":0,"o":"m 726 -71 l 726 31 b 1196 484 1005 44 1196 221 b 726 938 1196 747 1005 924 l 726 1041 l 538 1041 l 538 938 b 68 484 260 924 68 747 b 538 31 68 221 260 44 l 538 -71 z m 996 484 b 726 193 996 308 890 205 l 726 776 b 996 484 890 763 996 661 z m 270 484 b 538 776 270 661 374 763 l 538 193 b 270 484 374 205 270 307 z "},"Χ":{"ha":1013,"x_min":0,"x_max":0,"o":"m 60 0 l 281 0 l 494 336 l 506 336 l 716 0 l 949 0 l 632 490 l 954 979 l 725 979 l 519 632 l 507 632 l 302 979 l 62 979 l 372 493 z "},"Ψ":{"ha":1206,"x_min":0,"x_max":0,"o":"m 701 0 l 701 210 b 1107 612 951 214 1107 369 l 1107 979 l 912 979 l 912 611 b 701 376 912 465 840 385 l 701 979 l 506 979 l 506 376 b 295 611 368 385 295 465 l 295 979 l 100 979 l 100 612 b 506 210 100 369 256 214 l 506 0 z "},"Ω":{"ha":1103,"x_min":0,"x_max":0,"o":"m 819 534 b 634 206 819 386 760 281 l 634 0 l 1025 0 l 1025 162 l 834 162 l 834 174 b 1025 549 954 246 1025 387 b 551 1004 1025 819 832 1004 b 78 549 271 1004 78 819 b 269 174 78 387 150 246 l 269 162 l 78 162 l 78 0 l 469 0 l 469 206 b 283 534 343 281 283 386 b 551 830 283 716 387 830 b 819 534 716 830 819 716 z "},"Ά":{"ha":1040,"x_min":0,"x_max":0,"o":"m 770 0 l 991 0 l 652 979 l 411 979 l 71 0 l 277 0 l 353 237 l 696 237 z m 193 740 l 288 979 l 116 979 l 54 740 z m 519 780 l 532 780 l 653 391 l 396 391 z "},"Έ":{"ha":1135,"x_min":0,"x_max":0,"o":"m 189 740 l 284 979 l 113 979 l 51 740 z m 1038 169 l 594 169 l 594 416 l 1013 416 l 1013 574 l 594 574 l 594 810 l 1038 810 l 1038 979 l 389 979 l 389 0 l 1038 0 z "},"Ή":{"ha":1358,"x_min":0,"x_max":0,"o":"m 189 740 l 284 979 l 113 979 l 51 740 z m 1240 0 l 1240 979 l 1035 979 l 1035 581 l 594 581 l 594 979 l 389 979 l 389 0 l 594 0 l 594 412 l 1035 412 l 1035 0 z "},"Ί":{"ha":713,"x_min":0,"x_max":0,"o":"m 189 740 l 284 979 l 113 979 l 51 740 z m 594 0 l 594 979 l 389 979 l 389 0 z "},"Ϊ":{"ha":442,"x_min":0,"x_max":0,"o":"m 58 1088 b 163 1192 117 1088 163 1133 b 58 1295 163 1250 117 1295 b -47 1192 0 1295 -47 1250 b 58 1088 -47 1133 0 1088 z m 385 1088 b 490 1192 443 1088 490 1133 b 385 1295 490 1250 443 1295 b 279 1192 326 1295 279 1250 b 385 1088 279 1133 326 1088 z m 323 0 l 323 979 l 119 979 l 119 0 z "},"Ό":{"ha":1284,"x_min":0,"x_max":0,"o":"m 739 1004 b 267 490 450 1004 267 807 b 739 -25 267 173 448 -25 b 1209 490 1027 -25 1209 173 b 739 1004 1209 806 1027 1004 z m 189 740 l 284 979 l 113 979 l 51 740 z m 739 830 b 1000 490 897 830 1000 698 b 739 149 1000 282 898 149 b 477 490 577 149 477 282 b 739 830 477 698 579 830 z "},"Ύ":{"ha":1268,"x_min":0,"x_max":0,"o":"m 189 740 l 284 979 l 113 979 l 51 740 z m 879 0 l 879 366 l 1219 979 l 998 979 l 783 567 l 770 567 l 555 979 l 333 979 l 674 366 l 674 0 z "},"Ϋ":{"ha":984,"x_min":0,"x_max":0,"o":"m 329 1088 b 435 1192 387 1088 435 1133 b 329 1295 435 1250 387 1295 b 224 1192 271 1295 224 1250 b 329 1088 224 1133 271 1088 z m 655 1088 b 761 1192 713 1088 761 1133 b 655 1295 761 1250 713 1295 b 550 1192 597 1295 550 1250 b 655 1088 550 1133 597 1088 z m 595 0 l 595 366 l 935 979 l 713 979 l 498 567 l 486 567 l 271 979 l 49 979 l 390 366 l 390 0 z "},"Ώ":{"ha":1299,"x_min":0,"x_max":0,"o":"m 1016 534 b 831 206 1016 386 957 281 l 831 0 l 1222 0 l 1222 162 l 1031 162 l 1031 174 b 1222 549 1150 246 1222 387 b 748 1004 1222 819 1029 1004 b 275 549 467 1004 275 819 b 466 174 275 387 347 246 l 466 162 l 275 162 l 275 0 l 666 0 l 666 206 b 480 534 540 281 480 386 b 748 830 480 716 584 830 b 1016 534 913 830 1016 716 z m 189 740 l 284 979 l 113 979 l 51 740 z "},"Ϝ":{"ha":830,"x_min":0,"x_max":0,"o":"m 323 0 l 323 385 l 722 385 l 722 547 l 323 547 l 323 810 l 760 810 l 760 979 l 119 979 l 119 0 z "},"ϝ":{"ha":830,"x_min":0,"x_max":0,"o":"m 323 -239 l 323 146 l 722 146 l 722 309 l 323 309 l 323 571 l 760 571 l 760 740 l 119 740 l 119 -239 z "},"∇":{"ha":1021,"x_min":0,"x_max":0,"o":"m 77 979 l 77 862 l 391 0 l 631 0 l 945 862 l 945 979 z m 730 798 l 523 193 l 511 193 l 307 798 l 307 810 l 730 810 z "},"А":{"ha":1031,"x_min":0,"x_max":0,"o":"m 754 0 l 976 0 l 636 979 l 395 979 l 56 0 l 261 0 l 336 237 l 680 237 z m 503 780 l 515 780 l 637 391 l 380 391 z "},"Ӑ":{"ha":1031,"x_min":0,"x_max":0,"o":"m 259 1296 b 515 1079 259 1163 361 1079 b 772 1296 670 1079 772 1163 l 624 1296 b 515 1189 622 1230 578 1189 b 407 1296 454 1189 410 1230 z m 754 0 l 976 0 l 636 979 l 395 979 l 56 0 l 261 0 l 336 237 l 680 237 z m 503 780 l 515 780 l 637 391 l 380 391 z "},"Ӓ":{"ha":1031,"x_min":0,"x_max":0,"o":"m 353 1088 b 458 1192 411 1088 458 1133 b 353 1295 458 1250 411 1295 b 247 1192 294 1295 247 1250 b 353 1088 247 1133 294 1088 z m 679 1088 b 784 1192 737 1088 784 1133 b 679 1295 784 1250 737 1295 b 573 1192 621 1295 573 1250 b 679 1088 573 1133 621 1088 z m 754 0 l 976 0 l 636 979 l 395 979 l 56 0 l 261 0 l 336 237 l 680 237 z m 503 780 l 515 780 l 637 391 l 380 391 z "},"Б":{"ha":944,"x_min":0,"x_max":0,"o":"m 866 309 b 520 611 866 490 724 611 l 330 611 l 330 810 l 776 810 l 776 979 l 125 979 l 125 0 l 527 0 b 866 309 728 0 866 123 z m 330 163 l 330 455 l 475 455 b 656 309 590 455 656 404 b 476 163 656 214 590 163 z "},"В":{"ha":977,"x_min":0,"x_max":0,"o":"m 565 0 b 903 280 774 0 903 108 b 680 513 903 406 809 503 l 680 526 b 857 734 780 541 857 631 b 553 979 857 886 743 979 l 125 979 l 125 0 z m 330 827 l 501 827 b 655 699 599 827 655 779 b 484 572 655 618 595 572 l 330 572 z m 330 153 l 330 437 l 508 437 b 694 296 629 437 694 388 b 513 153 694 203 631 153 z "},"Г":{"ha":831,"x_min":0,"x_max":0,"o":"m 330 0 l 330 809 l 756 809 l 756 979 l 125 979 l 125 0 z "},"Ѓ":{"ha":831,"x_min":0,"x_max":0,"o":"m 517 1078 l 688 1297 l 486 1297 l 370 1078 z m 330 0 l 330 809 l 756 809 l 756 979 l 125 979 l 125 0 z "},"Ґ":{"ha":831,"x_min":0,"x_max":0,"o":"m 331 809 l 756 809 l 756 1172 l 571 1172 l 571 979 l 125 979 l 125 0 l 331 0 z "},"Ӷ":{"ha":831,"x_min":0,"x_max":0,"o":"m 267 -193 l 453 -193 l 453 169 l 330 169 l 330 809 l 756 809 l 756 979 l 125 979 l 125 0 l 267 0 z "},"Ғ":{"ha":831,"x_min":0,"x_max":0,"o":"m 330 0 l 330 404 l 653 404 l 653 555 l 330 555 l 330 809 l 756 809 l 756 979 l 125 979 l 125 555 l 54 555 l 54 404 l 125 404 l 125 0 z "},"Ӻ":{"ha":831,"x_min":0,"x_max":0,"o":"m 5 -258 b 58 -260 14 -260 44 -260 b 330 -21 237 -260 330 -183 l 330 404 l 665 404 l 665 555 l 330 555 l 330 809 l 756 809 l 756 979 l 125 979 l 125 555 l 54 555 l 54 404 l 125 404 l 125 -22 b 30 -111 125 -85 100 -111 b 5 -110 24 -111 9 -111 z "},"Д":{"ha":1096,"x_min":0,"x_max":0,"o":"m 213 0 l 863 0 l 863 -193 l 1048 -193 l 1048 170 l 926 170 l 926 979 l 226 979 l 192 426 b 96 170 184 293 164 216 l 27 170 l 27 -193 l 213 -193 z m 380 410 l 406 810 l 722 810 l 722 170 l 319 170 l 319 181 b 380 410 359 231 374 304 z "},"Е":{"ha":878,"x_min":0,"x_max":0,"o":"m 774 169 l 330 169 l 330 416 l 749 416 l 749 574 l 330 574 l 330 810 l 774 810 l 774 979 l 125 979 l 125 0 l 774 0 z "},"Ё":{"ha":878,"x_min":0,"x_max":0,"o":"m 287 1088 b 392 1192 345 1088 392 1133 b 287 1295 392 1250 345 1295 b 181 1192 229 1295 181 1250 b 287 1088 181 1133 229 1088 z m 613 1088 b 718 1192 671 1088 718 1133 b 613 1295 718 1250 671 1295 b 507 1192 555 1295 507 1250 b 613 1088 507 1133 555 1088 z m 774 169 l 330 169 l 330 416 l 749 416 l 749 574 l 330 574 l 330 810 l 774 810 l 774 979 l 125 979 l 125 0 l 774 0 z "},"Ӗ":{"ha":878,"x_min":0,"x_max":0,"o":"m 193 1296 b 450 1079 193 1163 296 1079 b 706 1296 604 1079 706 1163 l 558 1296 b 450 1189 556 1230 512 1189 b 341 1296 388 1189 344 1230 z m 774 169 l 330 169 l 330 416 l 749 416 l 749 574 l 330 574 l 330 810 l 774 810 l 774 979 l 125 979 l 125 0 l 774 0 z "},"Ѐ":{"ha":878,"x_min":0,"x_max":0,"o":"m 374 1078 l 521 1078 l 404 1297 l 202 1297 z m 774 169 l 330 169 l 330 416 l 749 416 l 749 574 l 330 574 l 330 810 l 774 810 l 774 979 l 125 979 l 125 0 l 774 0 z "},"Ж":{"ha":1458,"x_min":0,"x_max":0,"o":"m 829 560 l 829 979 l 627 979 l 627 560 l 591 560 l 286 979 l 61 979 l 422 495 l 39 0 l 279 0 l 590 407 l 627 407 l 627 0 l 829 0 l 829 407 l 866 407 l 1177 0 l 1420 0 l 1034 499 l 1392 979 l 1170 979 l 865 560 z "},"Ӂ":{"ha":1458,"x_min":0,"x_max":0,"o":"m 473 1296 b 729 1079 473 1163 574 1079 b 985 1296 883 1079 985 1163 l 838 1296 b 729 1189 835 1230 791 1189 b 621 1296 667 1189 623 1230 z m 829 560 l 829 979 l 627 979 l 627 560 l 591 560 l 286 979 l 61 979 l 422 495 l 39 0 l 279 0 l 590 407 l 627 407 l 627 0 l 829 0 l 829 407 l 866 407 l 1177 0 l 1420 0 l 1034 499 l 1392 979 l 1170 979 l 865 560 z "},"Ӝ":{"ha":1458,"x_min":0,"x_max":0,"o":"m 566 1088 b 671 1192 624 1088 671 1133 b 566 1295 671 1250 624 1295 b 460 1192 508 1295 460 1250 b 566 1088 460 1133 508 1088 z m 892 1088 b 998 1192 950 1088 998 1133 b 892 1295 998 1250 950 1295 b 787 1192 834 1295 787 1250 b 892 1088 787 1133 834 1088 z m 829 560 l 829 979 l 627 979 l 627 560 l 591 560 l 286 979 l 61 979 l 422 495 l 39 0 l 279 0 l 590 407 l 627 407 l 627 0 l 829 0 l 829 407 l 866 407 l 1177 0 l 1420 0 l 1034 499 l 1392 979 l 1170 979 l 865 560 z "},"Җ":{"ha":1479,"x_min":0,"x_max":0,"o":"m 829 560 l 829 979 l 627 979 l 627 560 l 591 560 l 286 979 l 61 979 l 422 495 l 39 0 l 279 0 l 590 407 l 627 407 l 627 0 l 829 0 l 829 407 l 866 407 l 1177 0 l 1244 0 l 1244 -193 l 1430 -193 l 1430 169 l 1289 169 l 1034 499 l 1392 979 l 1170 979 l 865 560 z "},"З":{"ha":924,"x_min":0,"x_max":0,"o":"m 325 417 l 456 417 b 640 284 572 417 640 367 b 460 140 640 199 568 140 b 269 278 349 140 275 194 l 73 278 b 458 -25 81 95 234 -25 b 850 271 682 -25 850 97 b 631 503 850 402 760 490 l 631 515 b 815 738 740 538 815 629 b 463 1004 815 897 671 1004 b 95 704 242 1004 102 887 l 284 704 b 458 844 290 790 357 844 b 620 713 559 844 620 793 b 454 576 620 631 555 576 l 325 576 z "},"Ӟ":{"ha":924,"x_min":0,"x_max":0,"o":"m 294 1088 b 400 1192 353 1088 400 1133 b 294 1295 400 1250 353 1295 b 189 1192 237 1295 189 1250 b 294 1088 189 1133 237 1088 z m 621 1088 b 726 1192 679 1088 726 1133 b 621 1295 726 1250 679 1295 b 515 1192 563 1295 515 1250 b 621 1088 515 1133 563 1088 z m 325 417 l 456 417 b 640 284 572 417 640 367 b 460 140 640 199 568 140 b 269 278 349 140 275 194 l 73 278 b 458 -25 81 95 234 -25 b 850 271 682 -25 850 97 b 631 503 850 402 760 490 l 631 515 b 815 738 740 538 815 629 b 463 1004 815 897 671 1004 b 95 704 242 1004 102 887 l 284 704 b 458 844 290 790 357 844 b 620 713 559 844 620 793 b 454 576 620 631 555 576 l 325 576 z "},"Ҙ":{"ha":924,"x_min":0,"x_max":0,"o":"m 325 417 l 456 417 b 640 284 572 417 640 367 b 460 140 640 199 568 140 b 269 278 349 140 275 194 l 73 278 b 368 -18 80 121 193 10 l 368 -193 l 553 -193 l 553 -18 b 850 271 728 12 850 122 b 631 503 850 402 760 490 l 631 515 b 815 738 740 538 815 629 b 463 1004 815 897 671 1004 b 95 704 242 1004 102 887 l 284 704 b 458 844 290 790 357 844 b 620 713 559 844 620 793 b 454 576 620 631 555 576 l 325 576 z "},"И":{"ha":1105,"x_min":0,"x_max":0,"o":"m 774 0 l 979 0 l 979 979 l 782 979 l 342 318 l 330 318 l 330 979 l 125 979 l 125 0 l 323 0 l 762 659 l 774 659 z "},"Й":{"ha":1105,"x_min":0,"x_max":0,"o":"m 299 1296 b 555 1079 299 1163 401 1079 b 812 1296 710 1079 812 1163 l 664 1296 b 555 1189 662 1230 618 1189 b 447 1296 494 1189 450 1230 z m 774 0 l 979 0 l 979 979 l 782 979 l 342 318 l 330 318 l 330 979 l 125 979 l 125 0 l 323 0 l 762 659 l 774 659 z "},"Ѝ":{"ha":1105,"x_min":0,"x_max":0,"o":"m 480 1078 l 627 1078 l 510 1297 l 308 1297 z m 774 0 l 979 0 l 979 979 l 782 979 l 342 318 l 330 318 l 330 979 l 125 979 l 125 0 l 323 0 l 762 659 l 774 659 z "},"Ӣ":{"ha":1105,"x_min":0,"x_max":0,"o":"m 802 1249 l 310 1249 l 310 1129 l 802 1129 z m 774 0 l 979 0 l 979 979 l 782 979 l 342 318 l 330 318 l 330 979 l 125 979 l 125 0 l 323 0 l 762 659 l 774 659 z "},"Ӥ":{"ha":1105,"x_min":0,"x_max":0,"o":"m 393 1088 b 498 1192 451 1088 498 1133 b 393 1295 498 1250 451 1295 b 287 1192 334 1295 287 1250 b 393 1088 287 1133 334 1088 z m 719 1088 b 824 1192 777 1088 824 1133 b 719 1295 824 1250 777 1295 b 613 1192 661 1295 613 1250 b 719 1088 613 1133 661 1088 z m 774 0 l 979 0 l 979 979 l 782 979 l 342 318 l 330 318 l 330 979 l 125 979 l 125 0 l 323 0 l 762 659 l 774 659 z "},"Ҋ":{"ha":1134,"x_min":0,"x_max":0,"o":"m 299 1296 b 555 1079 299 1163 401 1079 b 812 1296 710 1079 812 1163 l 664 1296 b 555 1189 662 1230 618 1189 b 447 1296 494 1189 450 1230 z m 774 0 l 892 0 l 838 -193 l 1019 -193 l 1100 127 l 1100 169 l 979 169 l 979 979 l 782 979 l 342 318 l 330 318 l 330 979 l 125 979 l 125 0 l 323 0 l 762 659 l 774 659 z "},"К":{"ha":999,"x_min":0,"x_max":0,"o":"m 330 562 l 330 979 l 125 979 l 125 0 l 330 0 l 330 406 l 366 406 l 711 0 l 959 0 l 538 500 l 932 979 l 704 979 l 365 562 z "},"Ќ":{"ha":999,"x_min":0,"x_max":0,"o":"m 576 1078 l 749 1297 l 547 1297 l 430 1078 z m 330 562 l 330 979 l 125 979 l 125 0 l 330 0 l 330 406 l 366 406 l 711 0 l 959 0 l 538 500 l 932 979 l 704 979 l 365 562 z "},"Қ":{"ha":1017,"x_min":0,"x_max":0,"o":"m 330 562 l 330 979 l 125 979 l 125 0 l 330 0 l 330 406 l 366 406 l 711 0 l 779 0 l 779 -193 l 964 -193 l 964 169 l 817 169 l 538 500 l 932 979 l 704 979 l 365 562 z "},"Ҝ":{"ha":1075,"x_min":0,"x_max":0,"o":"m 330 409 l 404 409 l 404 212 l 529 212 l 529 409 l 550 409 l 803 0 l 1037 0 l 728 501 l 1007 979 l 795 979 l 549 559 l 529 559 l 529 765 l 404 765 l 404 559 l 330 559 l 330 979 l 125 979 l 125 0 l 330 0 z "},"Ҟ":{"ha":999,"x_min":0,"x_max":0,"o":"m 330 562 l 330 752 l 419 752 l 419 903 l 330 903 l 330 979 l 125 979 l 125 903 l 44 903 l 44 752 l 125 752 l 125 0 l 330 0 l 330 406 l 366 406 l 711 0 l 959 0 l 538 500 l 932 979 l 704 979 l 365 562 z "},"Ҡ":{"ha":1356,"x_min":0,"x_max":0,"o":"m 62 828 l 483 828 l 483 0 l 688 0 l 688 406 l 723 406 l 1068 0 l 1316 0 l 895 500 l 1289 979 l 1061 979 l 722 562 l 688 562 l 688 979 l 62 979 z "},"Ӄ":{"ha":973,"x_min":0,"x_max":0,"o":"m 491 -284 b 887 131 726 -284 887 -109 b 563 530 887 321 762 477 l 564 530 l 932 979 l 704 979 l 365 562 l 330 562 l 330 979 l 125 979 l 125 0 l 330 0 l 330 393 l 352 393 b 680 125 551 393 680 285 b 465 -118 680 -12 598 -118 b 408 -115 441 -118 424 -117 l 408 -277 b 491 -284 427 -281 458 -284 z "},"Л":{"ha":1044,"x_min":0,"x_max":0,"o":"m 918 0 l 918 979 l 238 979 l 209 400 b 79 174 202 271 179 174 b 34 180 62 174 43 178 l 34 1 b 108 -8 47 -3 75 -8 b 397 387 311 -8 385 146 l 421 810 l 713 810 l 713 0 z "},"Ӆ":{"ha":1073,"x_min":0,"x_max":0,"o":"m 777 -193 l 957 -193 l 1039 127 l 1039 169 l 918 169 l 918 979 l 238 979 l 209 400 b 79 174 202 271 179 174 b 34 180 62 174 43 178 l 34 1 b 108 -8 47 -3 75 -8 b 397 387 311 -8 385 146 l 421 810 l 713 810 l 713 0 l 830 0 z "},"Ԯ":{"ha":1088,"x_min":0,"x_max":0,"o":"m 855 -193 l 1040 -193 l 1040 169 l 918 169 l 918 979 l 238 979 l 209 400 b 79 174 202 271 179 174 b 34 180 62 174 43 178 l 34 1 b 108 -8 47 -3 75 -8 b 397 387 311 -8 385 146 l 421 810 l 713 810 l 713 0 l 855 0 z "},"Ԓ":{"ha":1044,"x_min":0,"x_max":0,"o":"m 593 -258 b 646 -260 601 -260 631 -260 b 918 -21 825 -260 918 -183 l 918 979 l 238 979 l 209 400 b 79 174 202 271 179 174 b 34 180 62 174 43 178 l 34 1 b 108 -8 47 -3 75 -8 b 397 387 311 -8 385 146 l 421 810 l 713 810 l 713 -22 b 618 -111 713 -85 687 -111 b 593 -110 612 -111 597 -111 z "},"М":{"ha":1287,"x_min":0,"x_max":0,"o":"m 1162 0 l 1162 979 l 921 979 l 650 304 l 637 304 l 367 979 l 125 979 l 125 0 l 315 0 l 315 663 l 326 663 l 576 48 l 712 48 l 961 663 l 972 663 l 972 0 z "},"Ӎ":{"ha":1331,"x_min":0,"x_max":0,"o":"m 1035 -193 l 1216 -193 l 1297 127 l 1297 169 l 1162 169 l 1162 979 l 921 979 l 650 304 l 637 304 l 367 979 l 125 979 l 125 0 l 315 0 l 315 663 l 326 663 l 576 48 l 712 48 l 961 663 l 972 663 l 972 0 l 1089 0 z "},"Н":{"ha":1101,"x_min":0,"x_max":0,"o":"m 976 0 l 976 979 l 771 979 l 771 581 l 330 581 l 330 979 l 125 979 l 125 0 l 330 0 l 330 412 l 771 412 l 771 0 z "},"Ӈ":{"ha":1101,"x_min":0,"x_max":0,"o":"m 651 -258 b 703 -260 659 -260 690 -260 b 976 -21 883 -260 976 -183 l 976 979 l 771 979 l 771 581 l 330 581 l 330 979 l 125 979 l 125 0 l 330 0 l 330 412 l 771 412 l 771 -22 b 675 -111 771 -85 745 -111 b 651 -110 670 -111 655 -111 z "},"Ң":{"ha":1146,"x_min":0,"x_max":0,"o":"m 913 -193 l 1099 -193 l 1099 169 l 976 169 l 976 979 l 771 979 l 771 581 l 330 581 l 330 979 l 125 979 l 125 0 l 330 0 l 330 412 l 771 412 l 771 0 l 913 0 z "},"Ӊ":{"ha":1131,"x_min":0,"x_max":0,"o":"m 834 -193 l 1015 -193 l 1097 127 l 1097 169 l 976 169 l 976 979 l 771 979 l 771 581 l 330 581 l 330 979 l 125 979 l 125 0 l 330 0 l 330 412 l 771 412 l 771 0 l 888 0 z "},"Ҥ":{"ha":1476,"x_min":0,"x_max":0,"o":"m 976 0 l 976 810 l 1402 810 l 1402 979 l 771 979 l 771 581 l 330 581 l 330 979 l 125 979 l 125 0 l 330 0 l 330 412 l 771 412 l 771 0 z "},"О":{"ha":1106,"x_min":0,"x_max":0,"o":"m 553 1004 b 82 490 265 1004 82 807 b 553 -25 82 173 262 -25 b 1024 490 842 -25 1024 173 b 553 1004 1024 806 842 1004 z m 553 830 b 814 490 712 830 814 698 b 553 149 814 282 713 149 b 292 490 392 149 292 282 b 553 830 292 698 394 830 z "},"Ӧ":{"ha":1106,"x_min":0,"x_max":0,"o":"m 390 1088 b 496 1192 448 1088 496 1133 b 390 1295 496 1250 448 1295 b 285 1192 332 1295 285 1250 b 390 1088 285 1133 332 1088 z m 716 1088 b 822 1192 774 1088 822 1133 b 716 1295 822 1250 774 1295 b 611 1192 659 1295 611 1250 b 716 1088 611 1133 659 1088 z m 553 1004 b 82 490 265 1004 82 807 b 553 -25 82 173 262 -25 b 1024 490 842 -25 1024 173 b 553 1004 1024 806 842 1004 z m 553 830 b 814 490 712 830 814 698 b 553 149 814 282 713 149 b 292 490 392 149 292 282 b 553 830 292 698 394 830 z "},"Ө":{"ha":1105,"x_min":0,"x_max":0,"o":"m 553 1004 b 82 490 266 1004 82 807 b 553 -25 82 173 263 -25 b 1023 490 843 -25 1023 173 b 553 1004 1023 806 842 1004 z m 553 832 b 810 575 690 832 785 734 l 296 575 b 553 832 321 734 416 832 z m 553 146 b 294 419 410 147 315 252 l 812 419 b 553 146 791 252 695 146 z "},"Ӫ":{"ha":1105,"x_min":0,"x_max":0,"o":"m 390 1088 b 496 1192 448 1088 496 1133 b 390 1295 496 1250 448 1295 b 285 1192 332 1295 285 1250 b 390 1088 285 1133 332 1088 z m 716 1088 b 822 1192 774 1088 822 1133 b 716 1295 822 1250 774 1295 b 611 1192 659 1295 611 1250 b 716 1088 611 1133 659 1088 z m 553 1004 b 82 490 266 1004 82 807 b 553 -25 82 173 263 -25 b 1023 490 843 -25 1023 173 b 553 1004 1023 806 842 1004 z m 553 832 b 810 575 690 832 785 734 l 296 575 b 553 832 321 734 416 832 z m 553 146 b 294 419 410 147 315 252 l 812 419 b 553 146 791 252 695 146 z "},"Ѳ":{"ha":1105,"x_min":0,"x_max":0,"o":"m 553 1004 b 82 490 266 1004 82 807 b 553 -25 82 173 263 -25 b 1023 490 843 -25 1023 173 b 553 1004 1023 806 842 1004 z m 553 832 b 809 578 690 832 784 735 b 698 536 790 555 755 536 b 410 598 597 536 532 598 b 294 559 364 598 325 584 b 553 832 314 728 412 832 z m 405 447 b 690 385 501 447 567 386 b 812 427 736 385 779 399 b 553 147 794 255 697 147 b 296 407 414 147 319 246 b 405 447 314 429 349 447 z "},"П":{"ha":1091,"x_min":0,"x_max":0,"o":"m 966 0 l 966 979 l 125 979 l 125 0 l 331 0 l 331 809 l 762 809 l 762 0 z "},"Ԥ":{"ha":1136,"x_min":0,"x_max":0,"o":"m 903 -193 l 1088 -193 l 1088 169 l 966 169 l 966 979 l 125 979 l 125 0 l 331 0 l 331 809 l 762 809 l 762 0 l 903 0 z "},"Џ":{"ha":1091,"x_min":0,"x_max":0,"o":"m 450 0 l 450 -193 l 642 -193 l 642 0 l 966 0 l 966 979 l 761 979 l 761 169 l 330 169 l 330 979 l 125 979 l 125 0 z "},"Р":{"ha":949,"x_min":0,"x_max":0,"o":"m 125 979 l 125 0 l 330 0 l 330 309 l 524 309 b 873 642 730 309 873 443 b 534 979 873 844 735 979 z m 330 816 l 479 816 b 665 642 597 816 665 755 b 479 469 665 530 596 469 l 330 469 z "},"Ҏ":{"ha":949,"x_min":0,"x_max":0,"o":"m 125 979 l 125 0 l 330 0 l 330 309 l 499 309 b 589 317 530 309 560 312 l 693 155 l 819 241 l 731 373 b 872 642 821 431 873 527 b 534 979 873 844 735 979 z m 435 585 l 509 468 b 478 467 499 467 489 467 l 330 467 l 330 816 l 479 816 b 667 642 598 816 667 755 b 621 515 667 587 650 544 l 533 649 z "},"С":{"ha":1043,"x_min":0,"x_max":0,"o":"m 541 -25 b 966 327 777 -25 949 118 l 767 327 b 542 150 747 219 659 150 b 292 490 387 150 292 280 b 541 829 292 699 387 829 b 766 642 658 829 747 755 l 966 642 b 541 1004 951 852 773 1004 b 82 490 257 1004 82 808 b 541 -25 82 172 258 -25 z "},"Ҫ":{"ha":1043,"x_min":0,"x_max":0,"o":"m 438 -162 l 483 -162 b 571 -199 541 -162 571 -171 b 491 -238 571 -229 531 -238 b 417 -229 459 -238 427 -232 l 417 -321 b 516 -333 444 -328 481 -333 b 707 -193 626 -333 707 -289 b 568 -73 707 -121 650 -79 l 600 -22 b 966 327 805 -1 951 136 l 767 327 b 542 150 747 219 659 150 b 292 490 387 150 292 280 b 541 829 292 699 387 829 b 766 642 658 829 747 755 l 966 642 b 541 1004 951 852 773 1004 b 82 490 257 1004 82 808 b 476 -22 82 196 231 7 l 438 -83 z "},"Т":{"ha":930,"x_min":0,"x_max":0,"o":"m 568 0 l 568 810 l 861 810 l 861 979 l 69 979 l 69 810 l 363 810 l 363 0 z "},"Ҭ":{"ha":930,"x_min":0,"x_max":0,"o":"m 505 -193 l 690 -193 l 690 169 l 568 169 l 568 810 l 861 810 l 861 979 l 69 979 l 69 810 l 363 810 l 363 0 l 505 0 z "},"У":{"ha":963,"x_min":0,"x_max":0,"o":"m 264 -9 b 611 280 449 -9 532 97 l 911 979 l 695 979 l 492 435 l 480 435 l 270 979 l 52 979 l 377 233 b 239 162 343 180 299 162 b 180 168 200 162 184 167 l 180 1 b 264 -9 184 -1 220 -9 z "},"Ў":{"ha":963,"x_min":0,"x_max":0,"o":"m 226 1296 b 482 1079 226 1163 328 1079 b 739 1296 636 1079 739 1163 l 591 1296 b 482 1189 588 1230 545 1189 b 374 1296 420 1189 376 1230 z m 264 -9 b 611 280 449 -9 532 97 l 911 979 l 695 979 l 492 435 l 480 435 l 270 979 l 52 979 l 377 233 b 239 162 343 180 299 162 b 180 168 200 162 184 167 l 180 1 b 264 -9 184 -1 220 -9 z "},"Ӯ":{"ha":963,"x_min":0,"x_max":0,"o":"m 728 1249 l 236 1249 l 236 1129 l 728 1129 z m 264 -9 b 611 280 449 -9 532 97 l 911 979 l 695 979 l 492 435 l 480 435 l 270 979 l 52 979 l 377 233 b 239 162 343 180 299 162 b 180 168 200 162 184 167 l 180 1 b 264 -9 184 -1 220 -9 z "},"Ӱ":{"ha":963,"x_min":0,"x_max":0,"o":"m 319 1088 b 425 1192 377 1088 425 1133 b 319 1295 425 1250 377 1295 b 214 1192 261 1295 214 1250 b 319 1088 214 1133 261 1088 z m 645 1088 b 751 1192 703 1088 751 1133 b 645 1295 751 1250 703 1295 b 540 1192 587 1295 540 1250 b 645 1088 540 1133 587 1088 z m 264 -9 b 611 280 449 -9 532 97 l 911 979 l 695 979 l 492 435 l 480 435 l 270 979 l 52 979 l 377 233 b 239 162 343 180 299 162 b 180 168 200 162 184 167 l 180 1 b 264 -9 184 -1 220 -9 z "},"Ӳ":{"ha":963,"x_min":0,"x_max":0,"o":"m 277 1078 l 412 1078 l 522 1297 l 351 1297 z m 534 1078 l 671 1078 l 827 1297 l 641 1297 z m 264 -9 b 611 280 449 -9 532 97 l 911 979 l 695 979 l 492 435 l 480 435 l 270 979 l 52 979 l 377 233 b 239 162 343 180 299 162 b 180 168 200 162 184 167 l 180 1 b 264 -9 184 -1 220 -9 z "},"Ф":{"ha":1263,"x_min":0,"x_max":0,"o":"m 530 84 l 530 -20 l 733 -20 l 733 84 b 1183 491 1000 93 1183 239 b 733 898 1183 742 1002 890 l 733 999 l 530 999 l 530 898 b 81 492 264 889 81 743 b 530 84 81 240 262 92 z m 533 249 b 288 492 385 255 288 345 b 533 734 288 637 386 726 z m 976 491 b 731 249 976 345 878 256 l 731 734 b 976 491 879 727 976 637 z "},"Х":{"ha":1027,"x_min":0,"x_max":0,"o":"m 66 0 l 288 0 l 500 336 l 513 336 l 723 0 l 956 0 l 639 490 l 961 979 l 732 979 l 526 632 l 513 632 l 309 979 l 68 979 l 379 493 z "},"Ҳ":{"ha":1036,"x_min":0,"x_max":0,"o":"m 66 0 l 288 0 l 500 336 l 513 336 l 723 0 l 790 0 l 790 -193 l 976 -193 l 976 169 l 847 169 l 639 490 l 961 979 l 732 979 l 526 632 l 513 632 l 309 979 l 68 979 l 379 493 z "},"Ӿ":{"ha":1027,"x_min":0,"x_max":0,"o":"m 66 0 l 288 0 l 500 336 l 513 336 l 723 0 l 956 0 l 688 414 l 894 414 l 894 565 l 688 565 l 961 979 l 732 979 l 526 632 l 513 632 l 309 979 l 68 979 l 333 565 l 134 565 l 134 414 l 329 414 z "},"Ӽ":{"ha":1027,"x_min":0,"x_max":0,"o":"m 68 979 l 379 493 l 66 0 l 288 0 l 500 336 l 513 336 l 637 137 b 698 31 665 94 684 60 b 716 -43 711 2 716 -20 b 629 -117 716 -88 680 -117 b 583 -113 610 -117 597 -116 l 583 -270 b 668 -276 600 -273 631 -276 b 920 -47 819 -276 920 -184 b 883 99 920 0 911 43 b 801 239 862 141 836 185 l 639 490 l 961 979 l 732 979 l 526 632 l 513 632 l 309 979 z "},"Ц":{"ha":1135,"x_min":0,"x_max":0,"o":"m 1088 -193 l 1088 169 l 966 169 l 966 979 l 761 979 l 761 169 l 330 169 l 330 979 l 125 979 l 125 0 l 903 0 l 903 -193 z "},"Ҵ":{"ha":1331,"x_min":0,"x_max":0,"o":"m 62 828 l 321 828 l 321 0 l 1098 0 l 1098 -193 l 1283 -193 l 1283 169 l 1161 169 l 1161 979 l 956 979 l 956 169 l 526 169 l 526 828 l 784 828 l 784 979 l 62 979 z "},"Ч":{"ha":1034,"x_min":0,"x_max":0,"o":"m 908 0 l 908 979 l 703 979 l 703 575 b 504 513 661 537 591 513 b 300 716 372 513 300 589 l 300 979 l 95 979 l 95 701 b 463 338 95 489 232 338 b 691 392 556 338 631 357 l 703 392 l 703 0 z "},"Ӵ":{"ha":1034,"x_min":0,"x_max":0,"o":"m 339 1088 b 444 1192 397 1088 444 1133 b 339 1295 444 1250 397 1295 b 233 1192 281 1295 233 1250 b 339 1088 233 1133 281 1088 z m 665 1088 b 770 1192 724 1088 770 1133 b 665 1295 770 1250 724 1295 b 559 1192 607 1295 559 1250 b 665 1088 559 1133 607 1088 z m 908 0 l 908 979 l 703 979 l 703 575 b 504 513 661 537 591 513 b 300 716 372 513 300 589 l 300 979 l 95 979 l 95 701 b 463 338 95 489 232 338 b 691 392 556 338 631 357 l 703 392 l 703 0 z "},"Ҷ":{"ha":1078,"x_min":0,"x_max":0,"o":"m 845 -193 l 1031 -193 l 1031 169 l 908 169 l 908 979 l 703 979 l 703 575 b 504 513 661 537 591 513 b 300 716 372 513 300 589 l 300 979 l 95 979 l 95 701 b 463 338 95 489 232 338 b 691 392 556 338 631 357 l 703 392 l 703 0 l 845 0 z "},"Ӌ":{"ha":1053,"x_min":0,"x_max":0,"o":"m 767 -193 l 767 0 l 909 0 l 909 979 l 704 979 l 704 575 b 504 513 661 537 591 513 b 300 716 372 513 300 589 l 300 979 l 96 979 l 96 701 b 463 338 96 489 232 338 b 692 392 557 338 632 357 l 704 392 l 704 169 l 581 169 l 581 -193 z "},"Ҹ":{"ha":1047,"x_min":0,"x_max":0,"o":"m 446 717 l 446 519 b 300 716 348 538 300 609 l 300 979 l 95 979 l 95 701 b 446 338 95 496 228 348 l 446 189 l 583 189 l 583 349 b 705 398 630 358 672 374 l 717 398 l 717 0 l 922 0 l 922 979 l 717 979 l 717 582 b 583 519 687 553 641 530 l 583 717 z "},"Һ":{"ha":1045,"x_min":0,"x_max":0,"o":"m 125 979 l 125 0 l 330 0 l 330 421 b 530 482 374 458 444 482 b 734 280 662 482 734 407 l 734 0 l 939 0 l 939 296 b 571 658 939 507 802 658 b 342 604 477 658 402 640 l 330 604 l 330 979 z "},"Ԧ":{"ha":1109,"x_min":0,"x_max":0,"o":"m 876 -193 l 1061 -193 l 1061 169 l 939 169 l 939 296 b 571 658 939 507 802 658 b 342 604 477 658 402 640 l 330 604 l 330 979 l 125 979 l 125 0 l 330 0 l 330 421 b 530 482 374 458 444 482 b 734 280 662 482 734 407 l 734 0 l 876 0 z "},"Ћ":{"ha":1240,"x_min":0,"x_max":0,"o":"m 762 441 b 933 250 878 441 933 363 l 933 0 l 1138 0 l 1138 262 b 803 615 1138 463 1027 615 b 579 533 702 615 629 580 l 568 533 l 568 810 l 861 810 l 861 979 l 69 979 l 69 810 l 363 810 l 363 0 l 568 0 l 568 330 b 762 441 589 368 642 441 z "},"Ш":{"ha":1421,"x_min":0,"x_max":0,"o":"m 125 0 l 1296 0 l 1296 979 l 1091 979 l 1091 169 l 813 169 l 813 979 l 608 979 l 608 169 l 330 169 l 330 979 l 125 979 z "},"Щ":{"ha":1466,"x_min":0,"x_max":0,"o":"m 125 0 l 1233 0 l 1233 -193 l 1419 -193 l 1419 169 l 1296 169 l 1296 979 l 1091 979 l 1091 169 l 813 169 l 813 979 l 608 979 l 608 169 l 330 169 l 330 979 l 125 979 z "},"Ъ":{"ha":1118,"x_min":0,"x_max":0,"o":"m 706 0 b 1045 326 907 0 1045 130 b 696 650 1045 520 902 650 l 506 650 l 506 979 l 74 979 l 74 810 l 301 810 l 301 0 z m 506 163 l 506 489 l 651 489 b 836 326 768 489 836 431 b 652 163 836 220 768 163 z "},"Ы":{"ha":1314,"x_min":0,"x_max":0,"o":"m 125 0 l 530 0 b 869 326 731 0 869 130 b 520 650 869 520 726 650 l 330 650 l 330 979 l 125 979 z m 1188 0 l 1188 979 l 983 979 l 983 0 z m 330 163 l 330 489 l 475 489 b 660 326 592 489 660 431 b 476 163 660 220 593 163 z "},"Ӹ":{"ha":1314,"x_min":0,"x_max":0,"o":"m 494 1088 b 600 1192 553 1088 600 1133 b 494 1295 600 1250 553 1295 b 389 1192 437 1295 389 1250 b 494 1088 389 1133 437 1088 z m 821 1088 b 926 1192 879 1088 926 1133 b 821 1295 926 1250 879 1295 b 715 1192 763 1295 715 1250 b 821 1088 715 1133 763 1088 z m 125 0 l 530 0 b 869 326 731 0 869 130 b 520 650 869 520 726 650 l 330 650 l 330 979 l 125 979 z m 1188 0 l 1188 979 l 983 979 l 983 0 z m 330 163 l 330 489 l 475 489 b 660 326 592 489 660 431 b 476 163 660 220 593 163 z "},"Ҍ":{"ha":1060,"x_min":0,"x_max":0,"o":"m 239 0 l 648 0 b 983 319 846 0 983 127 b 637 637 983 509 842 637 l 444 637 l 444 773 l 718 773 l 718 919 l 444 919 l 444 1032 l 239 1032 l 239 919 l 12 919 l 12 773 l 239 773 z m 444 163 l 444 475 l 593 475 b 774 319 707 475 774 420 b 593 163 774 218 708 163 z "},"Ѣ":{"ha":1060,"x_min":0,"x_max":0,"o":"m 239 0 l 648 0 b 983 319 846 0 983 127 b 637 637 983 509 842 637 l 444 637 l 444 773 l 718 773 l 718 919 l 444 919 l 444 1032 l 239 1032 l 239 919 l 12 919 l 12 773 l 239 773 z m 444 163 l 444 475 l 593 475 b 774 319 707 475 774 420 b 593 163 774 218 708 163 z "},"Ь":{"ha":946,"x_min":0,"x_max":0,"o":"m 125 0 l 530 0 b 869 326 731 0 869 130 b 520 650 869 520 726 650 l 330 650 l 330 979 l 125 979 z m 330 163 l 330 489 l 475 489 b 660 326 592 489 660 431 b 476 163 660 220 593 163 z "},"Љ":{"ha":1530,"x_min":0,"x_max":0,"o":"m 404 387 l 428 810 l 713 810 l 713 0 l 1118 0 b 1457 326 1319 0 1457 130 b 1107 650 1457 520 1314 650 l 918 650 l 918 979 l 245 979 l 216 400 b 86 174 209 271 186 174 b 41 180 68 174 50 178 l 41 1 b 115 -8 54 -3 81 -8 b 404 387 317 -8 391 146 z m 918 163 l 918 489 l 1063 489 b 1248 326 1179 489 1248 431 b 1064 163 1248 220 1180 163 z "},"Њ":{"ha":1571,"x_min":0,"x_max":0,"o":"m 330 422 l 751 422 l 751 0 l 1156 0 b 1495 298 1356 0 1495 119 b 1145 588 1495 472 1352 588 l 956 588 l 956 979 l 751 979 l 751 588 l 330 588 l 330 979 l 125 979 l 125 0 l 330 0 z m 956 163 l 956 427 l 1111 427 b 1288 298 1222 427 1288 382 b 1112 163 1288 212 1223 163 z "},"Э":{"ha":1047,"x_min":0,"x_max":0,"o":"m 505 -25 b 965 490 789 -25 965 171 b 505 1004 965 809 789 1004 b 71 648 267 1004 86 853 l 271 648 b 506 829 290 757 384 829 b 753 576 641 829 738 734 l 367 576 l 367 417 l 754 417 b 505 150 741 252 644 150 b 270 320 382 150 290 218 l 71 320 b 505 -25 87 117 262 -25 z "},"Ӭ":{"ha":1047,"x_min":0,"x_max":0,"o":"m 343 1088 b 448 1192 401 1088 448 1133 b 343 1295 448 1250 401 1295 b 237 1192 285 1295 237 1250 b 343 1088 237 1133 285 1088 z m 669 1088 b 774 1192 728 1088 774 1133 b 669 1295 774 1250 728 1295 b 564 1192 611 1295 564 1250 b 669 1088 564 1133 611 1088 z m 505 -25 b 965 490 789 -25 965 171 b 505 1004 965 809 789 1004 b 71 648 267 1004 86 853 l 271 648 b 506 829 290 757 384 829 b 753 576 641 829 738 734 l 367 576 l 367 417 l 754 417 b 505 150 741 252 644 150 b 270 320 382 150 290 218 l 71 320 b 505 -25 87 117 262 -25 z "},"Ю":{"ha":1478,"x_min":0,"x_max":0,"o":"m 933 -25 b 1396 490 1219 -25 1396 173 b 933 1004 1396 806 1218 1004 b 475 581 678 1004 507 844 l 330 581 l 330 979 l 125 979 l 125 0 l 330 0 l 330 412 l 473 412 b 933 -25 500 141 671 -25 z m 932 830 b 1187 490 1088 830 1187 698 b 932 149 1187 282 1088 149 b 677 490 776 149 677 282 b 932 830 677 698 778 830 z "},"Я":{"ha":984,"x_min":0,"x_max":0,"o":"m 519 353 l 656 353 l 656 0 l 859 0 l 859 979 l 461 979 b 106 663 243 979 106 851 b 317 382 106 525 191 421 l 60 0 l 286 0 z m 656 506 l 490 506 b 315 662 380 506 315 564 b 490 818 315 759 381 818 l 656 818 z "},"Ҕ":{"ha":985,"x_min":0,"x_max":0,"o":"m 739 979 l 125 979 l 125 0 l 330 0 l 330 330 b 531 441 362 395 442 441 b 705 279 638 441 705 378 b 547 119 705 178 644 119 b 466 127 505 119 475 124 l 466 -33 b 565 -45 474 -37 513 -45 b 911 291 780 -45 911 90 b 572 615 911 477 788 615 b 342 532 477 615 397 584 l 330 532 l 330 810 l 739 810 z "},"Ҧ":{"ha":1582,"x_min":0,"x_max":0,"o":"m 125 979 l 125 0 l 331 0 l 331 809 l 724 809 l 724 0 l 928 0 l 928 330 b 1129 441 961 396 1042 441 b 1303 279 1236 441 1303 378 b 1144 119 1303 178 1244 119 b 1064 127 1113 119 1079 122 l 1064 -33 b 1163 -45 1084 -40 1125 -45 b 1508 291 1374 -45 1508 85 b 1170 615 1508 488 1375 615 b 940 532 1078 615 996 585 l 928 532 l 928 979 z "},"Є":{"ha":1057,"x_min":0,"x_max":0,"o":"m 977 320 l 777 320 b 547 150 758 218 669 150 b 294 417 405 150 306 254 l 680 417 l 680 576 l 296 576 b 547 829 311 732 409 829 b 777 648 667 829 757 757 l 976 648 b 547 1004 961 853 783 1004 b 82 490 260 1004 82 809 b 547 -25 82 171 260 -25 b 977 320 787 -25 960 117 z "},"Ӏ":{"ha":456,"x_min":0,"x_max":0,"o":"m 330 0 l 330 979 l 125 979 l 125 0 z "},"І":{"ha":456,"x_min":0,"x_max":0,"o":"m 330 0 l 330 979 l 125 979 l 125 0 z "},"Ї":{"ha":456,"x_min":0,"x_max":0,"o":"m 65 1088 b 170 1192 123 1088 170 1133 b 65 1295 170 1250 123 1295 b -41 1192 7 1295 -41 1250 b 65 1088 -41 1133 7 1088 z m 391 1088 b 496 1192 450 1088 496 1133 b 391 1295 496 1250 450 1295 b 286 1192 333 1295 286 1250 b 391 1088 286 1133 333 1088 z m 330 0 l 330 979 l 125 979 l 125 0 z "},"Ҩ":{"ha":1386,"x_min":0,"x_max":0,"o":"m 638 -24 b 892 36 733 -24 815 -5 b 1130 -24 963 -4 1040 -24 b 1349 40 1208 -24 1283 -4 l 1284 186 b 1132 142 1242 159 1185 142 b 1065 147 1109 142 1086 143 b 1244 534 1171 239 1244 383 b 901 882 1244 745 1109 882 b 558 519 694 882 558 727 b 724 153 558 372 618 244 b 640 146 698 149 670 146 b 289 505 437 146 289 296 b 538 827 289 663 379 793 l 538 1008 b 82 508 266 983 82 776 b 638 -24 82 195 300 -24 z m 755 526 b 901 714 755 635 806 714 b 1046 531 989 714 1046 637 b 899 221 1046 406 989 290 b 755 526 806 293 755 408 z "},"Ү":{"ha":998,"x_min":0,"x_max":0,"o":"m 602 0 l 602 366 l 942 979 l 720 979 l 505 567 l 493 567 l 277 979 l 56 979 l 397 366 l 397 0 z "},"Ұ":{"ha":998,"x_min":0,"x_max":0,"o":"m 167 347 l 397 347 l 397 0 l 602 0 l 602 347 l 831 347 l 831 497 l 674 497 l 942 979 l 720 979 l 505 567 l 493 567 l 277 979 l 56 979 l 323 497 l 167 497 z "},"Ҽ":{"ha":1242,"x_min":0,"x_max":0,"o":"m 741 -25 b 1158 281 958 -25 1126 100 l 954 281 b 742 146 924 193 848 146 b 491 429 590 146 490 258 l 491 451 l 1166 451 b 1167 522 1166 451 1167 505 b 727 1004 1167 823 1002 1004 b 286 606 489 1004 325 850 b 192 698 222 608 192 643 b 212 788 192 745 212 788 l 47 788 b 24 673 47 788 24 745 b 277 450 24 547 114 454 b 741 -25 291 155 467 -25 z m 494 600 b 724 833 511 743 603 833 b 951 600 854 833 942 745 z "},"Ҿ":{"ha":1242,"x_min":0,"x_max":0,"o":"m 1158 281 l 954 281 b 742 146 924 193 848 146 b 491 429 590 146 490 258 l 491 451 l 1166 451 b 1167 522 1166 451 1167 505 b 727 1004 1167 823 1002 1004 b 286 606 489 1004 325 850 b 192 698 222 608 192 643 b 212 788 192 745 212 788 l 47 788 b 24 673 47 788 24 745 b 277 450 24 547 114 454 b 650 -18 290 189 428 18 l 650 -193 l 836 -193 l 836 -17 b 1158 281 1005 14 1131 127 z m 494 600 b 724 833 511 743 603 833 b 951 600 854 833 942 745 z "},"Ӕ":{"ha":1410,"x_min":0,"x_max":0,"o":"m 678 0 l 1307 0 l 1307 169 l 865 169 l 865 413 l 1282 413 l 1282 570 l 865 570 l 865 810 l 1307 810 l 1307 979 l 459 979 l 56 0 l 258 0 l 363 253 l 678 253 z m 591 821 l 678 821 l 678 406 l 422 406 z "},"Ə":{"ha":1052,"x_min":0,"x_max":0,"o":"m 522 -25 b 970 488 789 -25 970 180 b 511 1004 970 802 789 1004 b 86 698 298 1004 136 888 l 294 698 b 510 833 328 781 395 833 b 755 549 653 833 756 715 l 755 538 l 77 538 b 75 466 77 538 75 496 b 522 -25 77 172 241 -25 z m 524 146 b 291 389 391 146 302 239 l 753 389 b 524 146 738 241 646 146 z "},"Ӛ":{"ha":1052,"x_min":0,"x_max":0,"o":"m 356 1088 b 462 1192 414 1088 462 1133 b 356 1295 462 1250 414 1295 b 251 1192 298 1295 251 1250 b 356 1088 251 1133 298 1088 z m 682 1088 b 788 1192 741 1088 788 1133 b 682 1295 788 1250 741 1295 b 577 1192 625 1295 577 1250 b 682 1088 577 1133 625 1088 z m 522 -25 b 970 488 789 -25 970 180 b 511 1004 970 802 789 1004 b 86 698 298 1004 136 888 l 294 698 b 510 833 328 781 395 833 b 755 549 653 833 756 715 l 755 538 l 77 538 b 75 466 77 538 75 496 b 522 -25 77 172 241 -25 z m 524 146 b 291 389 391 146 302 239 l 753 389 b 524 146 738 241 646 146 z "},"Ӡ":{"ha":891,"x_min":0,"x_max":0,"o":"m 440 -25 b 825 290 671 -25 825 102 b 509 585 825 470 700 572 l 509 597 l 789 846 l 789 979 l 103 979 l 103 810 l 523 810 l 523 798 l 290 593 l 290 448 l 398 448 b 616 290 539 448 616 395 b 442 140 616 198 547 140 b 261 278 337 140 267 193 l 65 278 b 440 -25 74 95 222 -25 z "},"Ԑ":{"ha":927,"x_min":0,"x_max":0,"o":"m 597 417 l 597 576 l 468 576 b 303 713 370 576 303 631 b 465 844 303 793 363 844 b 638 704 566 844 632 790 l 827 704 b 458 1004 819 887 680 1004 b 107 732 252 1004 107 897 b 292 515 107 623 184 540 l 292 503 b 73 269 162 490 73 402 b 465 -25 73 97 240 -25 b 850 278 688 -25 841 95 l 654 278 b 462 140 644 194 574 140 b 283 281 354 140 283 199 b 466 417 283 367 350 417 z "},"Ѵ":{"ha":1139,"x_min":0,"x_max":0,"o":"m 627 0 l 865 702 b 908 783 880 745 894 770 b 958 802 921 795 937 802 b 1019 788 975 802 999 796 l 1075 951 b 918 991 1034 975 970 991 b 783 951 861 991 818 979 b 669 738 732 913 699 848 l 515 224 l 503 224 l 280 979 l 49 979 l 380 0 z "},"Ԝ":{"ha":1415,"x_min":0,"x_max":0,"o":"m 702 659 l 713 659 l 898 0 l 1090 0 l 1350 979 l 1138 979 l 987 279 l 976 279 l 794 979 l 621 979 l 443 279 l 432 279 l 279 979 l 66 979 l 326 0 l 519 0 z "},"Ђ":{"ha":1222,"x_min":0,"x_max":0,"o":"m 802 -45 b 1148 291 1017 -45 1148 90 b 809 615 1148 477 1025 615 b 579 532 715 615 634 584 l 568 532 l 568 810 l 861 810 l 861 979 l 69 979 l 69 810 l 363 810 l 363 0 l 568 0 l 568 330 b 768 441 600 395 680 441 b 943 279 876 441 943 378 b 784 119 943 178 882 119 b 703 127 742 119 712 124 l 703 -33 b 802 -45 711 -37 750 -45 z "},"Ѕ":{"ha":951,"x_min":0,"x_max":0,"o":"m 81 271 b 473 -25 89 90 240 -25 b 870 291 719 -25 870 96 b 589 569 870 442 785 527 l 471 594 b 309 717 356 619 309 655 b 479 843 309 793 377 843 b 660 711 578 843 650 791 l 852 711 b 478 1004 846 884 694 1004 b 104 701 252 1004 104 883 b 370 422 104 552 191 460 l 497 395 b 666 267 617 368 666 331 b 484 137 666 191 591 137 b 279 271 369 137 289 189 z "},"Ј":{"ha":848,"x_min":0,"x_max":0,"o":"m 58 283 b 391 -25 58 94 190 -25 b 723 301 598 -25 723 93 l 723 979 l 518 979 l 518 302 b 388 152 518 204 472 152 b 256 283 309 152 258 203 z "},"a":{"ha":819,"x_min":0,"x_max":0,"o":"m 304 -12 b 521 99 401 -12 482 30 l 533 99 l 533 0 l 724 0 l 724 510 b 414 763 724 669 612 763 b 87 540 227 763 100 677 l 269 540 b 404 612 285 587 332 612 b 530 510 485 612 530 574 l 530 448 l 349 437 b 59 213 163 427 59 348 b 304 -12 59 77 160 -12 z m 369 133 b 252 225 300 133 252 168 b 378 317 252 280 294 312 l 530 328 l 530 272 b 369 133 530 193 460 133 z "},"à":{"ha":819,"x_min":0,"x_max":0,"o":"m 344 847 l 484 847 l 370 1086 l 183 1086 z m 304 -12 b 521 99 401 -12 482 30 l 533 99 l 533 0 l 724 0 l 724 510 b 414 763 724 669 612 763 b 87 540 227 763 100 677 l 269 540 b 404 612 285 587 332 612 b 530 510 485 612 530 574 l 530 448 l 349 437 b 59 213 163 427 59 348 b 304 -12 59 77 160 -12 z m 369 133 b 252 225 300 133 252 168 b 378 317 252 280 294 312 l 530 328 l 530 272 b 369 133 530 193 460 133 z "},"á":{"ha":819,"x_min":0,"x_max":0,"o":"m 486 847 l 646 1086 l 458 1086 l 345 847 z m 304 -12 b 521 99 401 -12 482 30 l 533 99 l 533 0 l 724 0 l 724 510 b 414 763 724 669 612 763 b 87 540 227 763 100 677 l 269 540 b 404 612 285 587 332 612 b 530 510 485 612 530 574 l 530 448 l 349 437 b 59 213 163 427 59 348 b 304 -12 59 77 160 -12 z m 369 133 b 252 225 300 133 252 168 b 378 317 252 280 294 312 l 530 328 l 530 272 b 369 133 530 193 460 133 z "},"ä":{"ha":819,"x_min":0,"x_max":0,"o":"m 252 866 b 357 970 310 866 357 911 b 252 1074 357 1028 310 1074 b 146 970 193 1074 146 1028 b 252 866 146 911 193 866 z m 578 866 b 683 970 636 866 683 911 b 578 1074 683 1028 636 1074 b 472 970 519 1074 472 1028 b 578 866 472 911 519 866 z m 304 -12 b 521 99 401 -12 482 30 l 533 99 l 533 0 l 724 0 l 724 510 b 414 763 724 669 612 763 b 87 540 227 763 100 677 l 269 540 b 404 612 285 587 332 612 b 530 510 485 612 530 574 l 530 448 l 349 437 b 59 213 163 427 59 348 b 304 -12 59 77 160 -12 z m 369 133 b 252 225 300 133 252 168 b 378 317 252 280 294 312 l 530 328 l 530 272 b 369 133 530 193 460 133 z "},"ǟ":{"ha":819,"x_min":0,"x_max":0,"o":"m 661 1254 l 169 1254 l 169 1134 l 661 1134 z m 264 847 b 363 943 323 847 363 890 b 264 1040 363 998 323 1040 b 165 943 207 1040 165 998 b 264 847 165 890 207 847 z m 564 847 b 664 943 623 847 664 890 b 564 1040 664 998 623 1040 b 466 943 507 1040 466 998 b 564 847 466 890 507 847 z m 304 -12 b 521 99 401 -12 482 30 l 533 99 l 533 0 l 724 0 l 724 510 b 414 763 724 669 612 763 b 87 540 227 763 100 677 l 269 540 b 404 612 285 587 332 612 b 530 510 485 612 530 574 l 530 448 l 349 437 b 59 213 163 427 59 348 b 304 -12 59 77 160 -12 z m 369 133 b 252 225 300 133 252 168 b 378 317 252 280 294 312 l 530 328 l 530 272 b 369 133 530 193 460 133 z "},"å":{"ha":819,"x_min":0,"x_max":0,"o":"m 414 843 b 581 1004 505 843 581 911 b 414 1166 581 1098 505 1166 b 248 1004 324 1166 248 1098 b 414 843 248 911 324 843 z m 414 933 b 342 1004 375 933 342 964 b 414 1077 342 1046 375 1077 b 487 1004 454 1077 487 1046 b 414 933 487 964 454 933 z m 304 -12 b 521 99 401 -12 482 30 l 533 99 l 533 0 l 724 0 l 724 510 b 414 763 724 669 612 763 b 87 540 227 763 100 677 l 269 540 b 404 612 285 587 332 612 b 530 510 485 612 530 574 l 530 448 l 349 437 b 59 213 163 427 59 348 b 304 -12 59 77 160 -12 z m 369 133 b 252 225 300 133 252 168 b 378 317 252 280 294 312 l 530 328 l 530 272 b 369 133 530 193 460 133 z "},"ǻ":{"ha":819,"x_min":0,"x_max":0,"o":"m 342 1176 l 487 1176 l 621 1335 l 451 1335 z m 414 823 b 568 972 503 823 568 888 b 414 1122 568 1058 503 1122 b 260 972 326 1122 260 1058 b 414 823 260 888 326 823 z m 353 972 b 414 1035 353 1008 379 1035 b 477 972 450 1035 477 1008 b 414 910 477 937 450 910 b 353 972 379 910 353 937 z m 304 -12 b 521 99 401 -12 482 30 l 533 99 l 533 0 l 724 0 l 724 510 b 414 763 724 669 612 763 b 87 540 227 763 100 677 l 269 540 b 404 612 285 587 332 612 b 530 510 485 612 530 574 l 530 448 l 349 437 b 59 213 163 427 59 348 b 304 -12 59 77 160 -12 z m 369 133 b 252 225 300 133 252 168 b 378 317 252 280 294 312 l 530 328 l 530 272 b 369 133 530 193 460 133 z "},"ã":{"ha":819,"x_min":0,"x_max":0,"o":"m 515 848 b 684 1063 615 848 684 929 l 561 1063 b 509 966 561 1002 545 966 b 319 1065 448 966 428 1065 b 152 851 220 1065 152 986 l 275 851 b 327 943 275 911 291 943 b 515 848 384 943 405 848 z m 304 -12 b 521 99 401 -12 482 30 l 533 99 l 533 0 l 724 0 l 724 510 b 414 763 724 669 612 763 b 87 540 227 763 100 677 l 269 540 b 404 612 285 587 332 612 b 530 510 485 612 530 574 l 530 448 l 349 437 b 59 213 163 427 59 348 b 304 -12 59 77 160 -12 z m 369 133 b 252 225 300 133 252 168 b 378 317 252 280 294 312 l 530 328 l 530 272 b 369 133 530 193 460 133 z "},"ằ":{"ha":819,"x_min":0,"x_max":0,"o":"m 496 1104 l 372 1330 l 201 1330 l 359 1104 z m 686 1084 l 545 1084 b 414 962 543 1011 495 962 b 284 1084 334 962 286 1011 l 144 1084 b 414 847 144 947 246 847 b 686 1084 583 847 686 947 z m 304 -12 b 521 99 401 -12 482 30 l 533 99 l 533 0 l 724 0 l 724 510 b 414 763 724 669 612 763 b 87 540 227 763 100 677 l 269 540 b 404 612 285 587 332 612 b 530 510 485 612 530 574 l 530 448 l 349 437 b 59 213 163 427 59 348 b 304 -12 59 77 160 -12 z m 369 133 b 252 225 300 133 252 168 b 378 317 252 280 294 312 l 530 328 l 530 272 b 369 133 530 193 460 133 z "},"ǡ":{"ha":819,"x_min":0,"x_max":0,"o":"m 661 1254 l 169 1254 l 169 1134 l 661 1134 z m 414 847 b 517 946 475 847 517 890 b 414 1046 517 1003 475 1046 b 313 946 355 1046 313 1003 b 414 847 313 890 355 847 z m 304 -12 b 521 99 401 -12 482 30 l 533 99 l 533 0 l 724 0 l 724 510 b 414 763 724 669 612 763 b 87 540 227 763 100 677 l 269 540 b 404 612 285 587 332 612 b 530 510 485 612 530 574 l 530 448 l 349 437 b 59 213 163 427 59 348 b 304 -12 59 77 160 -12 z m 369 133 b 252 225 300 133 252 168 b 378 317 252 280 294 312 l 530 328 l 530 272 b 369 133 530 193 460 133 z "},"ḁ":{"ha":819,"x_min":0,"x_max":0,"o":"m 304 -12 b 521 99 401 -12 482 30 l 533 99 l 533 0 l 724 0 l 724 510 b 414 763 724 669 612 763 b 87 540 227 763 100 677 l 269 540 b 404 612 285 587 332 612 b 530 510 485 612 530 574 l 530 448 l 349 437 b 59 213 163 427 59 348 b 304 -12 59 77 160 -12 z m 369 133 b 252 225 300 133 252 168 b 378 317 252 280 294 312 l 530 328 l 530 272 b 369 133 530 193 460 133 z m 406 -354 b 572 -193 496 -354 572 -286 b 406 -31 572 -100 496 -31 b 239 -193 315 -31 239 -100 b 406 -354 239 -286 315 -354 z m 406 -264 b 333 -193 366 -264 333 -234 b 406 -121 333 -151 366 -121 b 478 -193 445 -121 478 -151 b 406 -264 478 -234 445 -264 z "},"â":{"ha":819,"x_min":0,"x_max":0,"o":"m 513 1086 l 316 1086 l 143 847 l 318 847 l 408 990 l 420 990 l 511 847 l 686 847 z m 304 -12 b 521 99 401 -12 482 30 l 533 99 l 533 0 l 724 0 l 724 510 b 414 763 724 669 612 763 b 87 540 227 763 100 677 l 269 540 b 404 612 285 587 332 612 b 530 510 485 612 530 574 l 530 448 l 349 437 b 59 213 163 427 59 348 b 304 -12 59 77 160 -12 z m 369 133 b 252 225 300 133 252 168 b 378 317 252 280 294 312 l 530 328 l 530 272 b 369 133 530 193 460 133 z "},"ậ":{"ha":819,"x_min":0,"x_max":0,"o":"m 513 1086 l 316 1086 l 143 847 l 318 847 l 408 990 l 420 990 l 511 847 l 686 847 z m 304 -12 b 521 99 401 -12 482 30 l 533 99 l 533 0 l 724 0 l 724 510 b 414 763 724 669 612 763 b 87 540 227 763 100 677 l 269 540 b 404 612 285 587 332 612 b 530 510 485 612 530 574 l 530 448 l 349 437 b 59 213 163 427 59 348 b 304 -12 59 77 160 -12 z m 369 133 b 252 225 300 133 252 168 b 378 317 252 280 294 312 l 530 328 l 530 272 b 369 133 530 193 460 133 z m 406 -302 b 517 -193 467 -302 517 -254 b 406 -83 517 -132 467 -83 b 294 -193 345 -83 294 -132 b 406 -302 294 -254 345 -302 z "},"ấ":{"ha":819,"x_min":0,"x_max":0,"o":"m 560 1104 l 716 1104 l 873 1330 l 690 1330 z m 507 1088 l 322 1088 l 138 856 l 309 856 l 408 992 l 420 992 l 521 856 l 692 856 z m 304 -12 b 521 99 401 -12 482 30 l 533 99 l 533 0 l 724 0 l 724 510 b 414 763 724 669 612 763 b 87 540 227 763 100 677 l 269 540 b 404 612 285 587 332 612 b 530 510 485 612 530 574 l 530 448 l 349 437 b 59 213 163 427 59 348 b 304 -12 59 77 160 -12 z m 369 133 b 252 225 300 133 252 168 b 378 317 252 280 294 312 l 530 328 l 530 272 b 369 133 530 193 460 133 z "},"ẫ":{"ha":819,"x_min":0,"x_max":0,"o":"m 521 1135 b 690 1341 622 1135 690 1210 l 564 1341 b 504 1252 563 1278 543 1252 b 308 1345 448 1252 417 1345 b 139 1136 207 1345 139 1269 l 265 1136 b 326 1227 267 1200 287 1227 b 521 1135 381 1227 412 1135 z m 513 1080 l 316 1080 l 130 847 l 309 847 l 408 983 l 420 983 l 521 847 l 700 847 z m 304 -12 b 521 99 401 -12 482 30 l 533 99 l 533 0 l 724 0 l 724 510 b 414 763 724 669 612 763 b 87 540 227 763 100 677 l 269 540 b 404 612 285 587 332 612 b 530 510 485 612 530 574 l 530 448 l 349 437 b 59 213 163 427 59 348 b 304 -12 59 77 160 -12 z m 369 133 b 252 225 300 133 252 168 b 378 317 252 280 294 312 l 530 328 l 530 272 b 369 133 530 193 460 133 z "},"ầ":{"ha":819,"x_min":0,"x_max":0,"o":"m 765 1104 l 635 1330 l 452 1330 l 609 1104 z m 513 1080 l 316 1080 l 130 847 l 309 847 l 408 983 l 420 983 l 521 847 l 700 847 z m 304 -12 b 521 99 401 -12 482 30 l 533 99 l 533 0 l 724 0 l 724 510 b 414 763 724 669 612 763 b 87 540 227 763 100 677 l 269 540 b 404 612 285 587 332 612 b 530 510 485 612 530 574 l 530 448 l 349 437 b 59 213 163 427 59 348 b 304 -12 59 77 160 -12 z m 369 133 b 252 225 300 133 252 168 b 378 317 252 280 294 312 l 530 328 l 530 272 b 369 133 530 193 460 133 z "},"ẩ":{"ha":819,"x_min":0,"x_max":0,"o":"m 541 1208 b 610 1221 558 1216 583 1221 b 680 1168 652 1221 680 1200 b 610 1097 680 1139 654 1112 l 674 1019 b 807 1187 758 1051 807 1112 b 633 1326 807 1273 741 1326 b 541 1312 600 1326 564 1321 z m 513 1080 l 316 1080 l 130 847 l 309 847 l 408 983 l 420 983 l 521 847 l 700 847 z m 304 -12 b 521 99 401 -12 482 30 l 533 99 l 533 0 l 724 0 l 724 510 b 414 763 724 669 612 763 b 87 540 227 763 100 677 l 269 540 b 404 612 285 587 332 612 b 530 510 485 612 530 574 l 530 448 l 349 437 b 59 213 163 427 59 348 b 304 -12 59 77 160 -12 z m 369 133 b 252 225 300 133 252 168 b 378 317 252 280 294 312 l 530 328 l 530 272 b 369 133 530 193 460 133 z "},"ă":{"ha":819,"x_min":0,"x_max":0,"o":"m 149 1086 b 414 846 149 945 246 846 b 680 1086 583 846 680 945 l 540 1086 b 414 960 538 1010 495 960 b 290 1086 334 960 291 1010 z m 304 -12 b 521 99 401 -12 482 30 l 533 99 l 533 0 l 724 0 l 724 510 b 414 763 724 669 612 763 b 87 540 227 763 100 677 l 269 540 b 404 612 285 587 332 612 b 530 510 485 612 530 574 l 530 448 l 349 437 b 59 213 163 427 59 348 b 304 -12 59 77 160 -12 z m 369 133 b 252 225 300 133 252 168 b 378 317 252 280 294 312 l 530 328 l 530 272 b 369 133 530 193 460 133 z "},"ắ":{"ha":819,"x_min":0,"x_max":0,"o":"m 333 1104 l 469 1104 l 627 1330 l 457 1330 z m 686 1084 l 545 1084 b 414 962 543 1011 495 962 b 284 1084 334 962 286 1011 l 144 1084 b 414 847 144 947 246 847 b 686 1084 583 847 686 947 z m 304 -12 b 521 99 401 -12 482 30 l 533 99 l 533 0 l 724 0 l 724 510 b 414 763 724 669 612 763 b 87 540 227 763 100 677 l 269 540 b 404 612 285 587 332 612 b 530 510 485 612 530 574 l 530 448 l 349 437 b 59 213 163 427 59 348 b 304 -12 59 77 160 -12 z m 369 133 b 252 225 300 133 252 168 b 378 317 252 280 294 312 l 530 328 l 530 272 b 369 133 530 193 460 133 z "},"ẵ":{"ha":819,"x_min":0,"x_max":0,"o":"m 521 1135 b 690 1341 622 1135 690 1210 l 564 1341 b 504 1252 563 1278 543 1252 b 308 1345 448 1252 417 1345 b 139 1153 207 1345 139 1269 l 265 1153 b 326 1227 267 1200 287 1227 b 521 1135 381 1227 412 1135 z m 686 1084 l 545 1084 b 414 962 543 1011 495 962 b 284 1084 334 962 286 1011 l 144 1084 b 414 847 144 947 246 847 b 686 1084 583 847 686 947 z m 304 -12 b 521 99 401 -12 482 30 l 533 99 l 533 0 l 724 0 l 724 510 b 414 763 724 669 612 763 b 87 540 227 763 100 677 l 269 540 b 404 612 285 587 332 612 b 530 510 485 612 530 574 l 530 448 l 349 437 b 59 213 163 427 59 348 b 304 -12 59 77 160 -12 z m 369 133 b 252 225 300 133 252 168 b 378 317 252 280 294 312 l 530 328 l 530 272 b 369 133 530 193 460 133 z "},"ẳ":{"ha":819,"x_min":0,"x_max":0,"o":"m 277 1224 b 343 1236 294 1232 318 1236 b 411 1185 385 1236 411 1216 b 345 1120 411 1159 389 1135 l 406 1046 b 532 1202 486 1076 532 1132 b 365 1337 532 1286 469 1337 b 277 1322 332 1337 298 1331 z m 686 1080 l 545 1080 b 414 962 543 1011 495 962 b 284 1080 334 962 286 1011 l 144 1080 b 414 847 144 947 246 847 b 686 1080 583 847 686 947 z m 304 -12 b 521 99 401 -12 482 30 l 533 99 l 533 0 l 724 0 l 724 510 b 414 763 724 669 612 763 b 87 540 227 763 100 677 l 269 540 b 404 612 285 587 332 612 b 530 510 485 612 530 574 l 530 448 l 349 437 b 59 213 163 427 59 348 b 304 -12 59 77 160 -12 z m 369 133 b 252 225 300 133 252 168 b 378 317 252 280 294 312 l 530 328 l 530 272 b 369 133 530 193 460 133 z "},"ặ":{"ha":819,"x_min":0,"x_max":0,"o":"m 149 1086 b 414 846 149 945 246 846 b 680 1086 583 846 680 945 l 540 1086 b 414 960 538 1010 495 960 b 290 1086 334 960 291 1010 z m 304 -12 b 521 99 401 -12 482 30 l 533 99 l 533 0 l 724 0 l 724 510 b 414 763 724 669 612 763 b 87 540 227 763 100 677 l 269 540 b 404 612 285 587 332 612 b 530 510 485 612 530 574 l 530 448 l 349 437 b 59 213 163 427 59 348 b 304 -12 59 77 160 -12 z m 369 133 b 252 225 300 133 252 168 b 378 317 252 280 294 312 l 530 328 l 530 272 b 369 133 530 193 460 133 z m 406 -302 b 517 -193 467 -302 517 -254 b 406 -83 517 -132 467 -83 b 294 -193 345 -83 294 -132 b 406 -302 294 -254 345 -302 z "},"ȃ":{"ha":819,"x_min":0,"x_max":0,"o":"m 680 846 b 414 1086 680 987 583 1086 b 149 846 246 1086 149 987 l 290 846 b 414 972 291 922 334 972 b 540 846 495 972 538 922 z m 304 -12 b 521 99 401 -12 482 30 l 533 99 l 533 0 l 724 0 l 724 510 b 414 763 724 669 612 763 b 87 540 227 763 100 677 l 269 540 b 404 612 285 587 332 612 b 530 510 485 612 530 574 l 530 448 l 349 437 b 59 213 163 427 59 348 b 304 -12 59 77 160 -12 z m 369 133 b 252 225 300 133 252 168 b 378 317 252 280 294 312 l 530 328 l 530 272 b 369 133 530 193 460 133 z "},"ǎ":{"ha":819,"x_min":0,"x_max":0,"o":"m 316 847 l 513 847 l 686 1086 l 511 1086 l 420 943 l 408 943 l 318 1086 l 143 1086 z m 304 -12 b 521 99 401 -12 482 30 l 533 99 l 533 0 l 724 0 l 724 510 b 414 763 724 669 612 763 b 87 540 227 763 100 677 l 269 540 b 404 612 285 587 332 612 b 530 510 485 612 530 574 l 530 448 l 349 437 b 59 213 163 427 59 348 b 304 -12 59 77 160 -12 z m 369 133 b 252 225 300 133 252 168 b 378 317 252 280 294 312 l 530 328 l 530 272 b 369 133 530 193 460 133 z "},"ȧ":{"ha":819,"x_min":0,"x_max":0,"o":"m 414 861 b 526 971 476 861 526 910 b 414 1082 526 1033 476 1082 b 303 971 353 1082 303 1033 b 414 861 303 910 353 861 z m 304 -12 b 521 99 401 -12 482 30 l 533 99 l 533 0 l 724 0 l 724 510 b 414 763 724 669 612 763 b 87 540 227 763 100 677 l 269 540 b 404 612 285 587 332 612 b 530 510 485 612 530 574 l 530 448 l 349 437 b 59 213 163 427 59 348 b 304 -12 59 77 160 -12 z m 369 133 b 252 225 300 133 252 168 b 378 317 252 280 294 312 l 530 328 l 530 272 b 369 133 530 193 460 133 z "},"ạ":{"ha":819,"x_min":0,"x_max":0,"o":"m 304 -12 b 521 99 401 -12 482 30 l 533 99 l 533 0 l 724 0 l 724 510 b 414 763 724 669 612 763 b 87 540 227 763 100 677 l 269 540 b 404 612 285 587 332 612 b 530 510 485 612 530 574 l 530 448 l 349 437 b 59 213 163 427 59 348 b 304 -12 59 77 160 -12 z m 369 133 b 252 225 300 133 252 168 b 378 317 252 280 294 312 l 530 328 l 530 272 b 369 133 530 193 460 133 z m 406 -302 b 517 -193 467 -302 517 -254 b 406 -83 517 -132 467 -83 b 294 -193 345 -83 294 -132 b 406 -302 294 -254 345 -302 z "},"ả":{"ha":819,"x_min":0,"x_max":0,"o":"m 294 1013 b 370 1026 311 1020 340 1026 b 444 972 415 1026 444 1004 b 370 901 444 943 414 916 l 434 823 b 570 991 518 855 570 916 b 399 1133 570 1077 500 1133 b 294 1116 356 1133 317 1124 z m 304 -12 b 521 99 401 -12 482 30 l 533 99 l 533 0 l 724 0 l 724 510 b 414 763 724 669 612 763 b 87 540 227 763 100 677 l 269 540 b 404 612 285 587 332 612 b 530 510 485 612 530 574 l 530 448 l 349 437 b 59 213 163 427 59 348 b 304 -12 59 77 160 -12 z m 369 133 b 252 225 300 133 252 168 b 378 317 252 280 294 312 l 530 328 l 530 272 b 369 133 530 193 460 133 z "},"ȁ":{"ha":819,"x_min":0,"x_max":0,"o":"m 616 847 l 547 1086 l 372 1086 l 485 847 z m 368 847 l 254 1086 l 67 1086 l 231 847 z m 304 -12 b 521 99 401 -12 482 30 l 533 99 l 533 0 l 724 0 l 724 510 b 414 763 724 669 612 763 b 87 540 227 763 100 677 l 269 540 b 404 612 285 587 332 612 b 530 510 485 612 530 574 l 530 448 l 349 437 b 59 213 163 427 59 348 b 304 -12 59 77 160 -12 z m 369 133 b 252 225 300 133 252 168 b 378 317 252 280 294 312 l 530 328 l 530 272 b 369 133 530 193 460 133 z "},"ā":{"ha":819,"x_min":0,"x_max":0,"o":"m 661 1027 l 169 1027 l 169 907 l 661 907 z m 304 -12 b 521 99 401 -12 482 30 l 533 99 l 533 0 l 724 0 l 724 510 b 414 763 724 669 612 763 b 87 540 227 763 100 677 l 269 540 b 404 612 285 587 332 612 b 530 510 485 612 530 574 l 530 448 l 349 437 b 59 213 163 427 59 348 b 304 -12 59 77 160 -12 z m 369 133 b 252 225 300 133 252 168 b 378 317 252 280 294 312 l 530 328 l 530 272 b 369 133 530 193 460 133 z "},"ą":{"ha":819,"x_min":0,"x_max":0,"o":"m 304 -12 b 521 99 401 -12 482 30 l 533 99 l 533 9 b 431 -162 464 -40 431 -104 b 616 -315 431 -254 505 -315 b 715 -300 648 -315 684 -310 l 715 -189 b 668 -195 698 -193 682 -195 b 583 -125 610 -195 583 -166 b 724 0 583 -70 635 -17 l 724 510 b 414 763 724 669 612 763 b 87 540 227 763 100 677 l 269 540 b 404 612 285 587 332 612 b 530 510 485 612 530 574 l 530 448 l 349 437 b 59 213 163 427 59 348 b 304 -12 59 77 160 -12 z m 369 133 b 252 225 300 133 252 168 b 378 317 252 280 294 312 l 530 328 l 530 272 b 369 133 530 193 460 133 z "},"b":{"ha":905,"x_min":0,"x_max":0,"o":"m 540 -12 b 843 374 728 -12 843 134 b 540 759 843 614 729 759 b 315 627 437 759 353 709 l 303 627 l 303 1032 l 106 1032 l 106 0 l 297 0 l 297 117 l 309 117 b 540 -12 349 36 434 -12 z m 471 599 b 640 374 576 599 640 513 b 471 148 640 233 576 148 b 301 373 367 148 302 234 b 471 599 302 512 368 599 z "},"ḇ":{"ha":905,"x_min":0,"x_max":0,"o":"m 540 -12 b 843 374 728 -12 843 134 b 540 759 843 614 729 759 b 315 627 437 759 353 709 l 303 627 l 303 1032 l 106 1032 l 106 0 l 297 0 l 297 117 l 309 117 b 540 -12 349 36 434 -12 z m 471 599 b 640 374 576 599 640 513 b 471 148 640 233 576 148 b 301 373 367 148 302 234 b 471 599 302 512 368 599 z m 707 -133 l 215 -133 l 215 -252 l 707 -252 z "},"ḅ":{"ha":905,"x_min":0,"x_max":0,"o":"m 540 -12 b 843 374 728 -12 843 134 b 540 759 843 614 729 759 b 315 627 437 759 353 709 l 303 627 l 303 1032 l 106 1032 l 106 0 l 297 0 l 297 117 l 309 117 b 540 -12 349 36 434 -12 z m 471 599 b 640 374 576 599 640 513 b 471 148 640 233 576 148 b 301 373 367 148 302 234 b 471 599 302 512 368 599 z m 461 -302 b 572 -193 522 -302 572 -254 b 461 -83 572 -132 522 -83 b 349 -193 400 -83 349 -132 b 461 -302 349 -254 400 -302 z "},"ḃ":{"ha":905,"x_min":0,"x_max":0,"o":"m 205 1137 b 316 1246 266 1137 316 1185 b 205 1357 316 1308 266 1357 b 93 1246 144 1357 93 1308 b 205 1137 93 1185 144 1137 z m 540 -12 b 843 374 728 -12 843 134 b 540 759 843 614 729 759 b 315 627 437 759 353 709 l 303 627 l 303 1032 l 106 1032 l 106 0 l 297 0 l 297 117 l 309 117 b 540 -12 349 36 434 -12 z m 471 599 b 640 374 576 599 640 513 b 471 148 640 233 576 148 b 301 373 367 148 302 234 b 471 599 302 512 368 599 z "},"c":{"ha":816,"x_min":0,"x_max":0,"o":"m 761 486 b 428 763 745 653 626 763 b 62 375 194 763 62 621 b 428 -16 62 126 195 -16 b 761 256 623 -16 745 92 l 576 256 b 428 141 562 181 509 141 b 262 375 322 141 262 224 b 428 606 262 524 321 606 b 576 486 512 606 563 558 z "},"ć":{"ha":816,"x_min":0,"x_max":0,"o":"m 498 847 l 659 1086 l 471 1086 l 357 847 z m 761 486 b 428 763 745 653 626 763 b 62 375 194 763 62 621 b 428 -16 62 126 195 -16 b 761 256 623 -16 745 92 l 576 256 b 428 141 562 181 509 141 b 262 375 322 141 262 224 b 428 606 262 524 321 606 b 576 486 512 606 563 558 z "},"č":{"ha":816,"x_min":0,"x_max":0,"o":"m 328 847 l 526 847 l 699 1086 l 524 1086 l 433 943 l 421 943 l 330 1086 l 155 1086 z m 761 486 b 428 763 745 653 626 763 b 62 375 194 763 62 621 b 428 -16 62 126 195 -16 b 761 256 623 -16 745 92 l 576 256 b 428 141 562 181 509 141 b 262 375 322 141 262 224 b 428 606 262 524 321 606 b 576 486 512 606 563 558 z "},"ĉ":{"ha":816,"x_min":0,"x_max":0,"o":"m 526 1086 l 328 1086 l 155 847 l 330 847 l 421 990 l 433 990 l 524 847 l 699 847 z m 761 486 b 428 763 745 653 626 763 b 62 375 194 763 62 621 b 428 -16 62 126 195 -16 b 761 256 623 -16 745 92 l 576 256 b 428 141 562 181 509 141 b 262 375 322 141 262 224 b 428 606 262 524 321 606 b 576 486 512 606 563 558 z "},"ċ":{"ha":816,"x_min":0,"x_max":0,"o":"m 427 861 b 538 971 488 861 538 910 b 427 1082 538 1033 488 1082 b 315 971 366 1082 315 1033 b 427 861 315 910 366 861 z m 761 486 b 428 763 745 653 626 763 b 62 375 194 763 62 621 b 428 -16 62 126 195 -16 b 761 256 623 -16 745 92 l 576 256 b 428 141 562 181 509 141 b 262 375 322 141 262 224 b 428 606 262 524 321 606 b 576 486 512 606 563 558 z "},"ç":{"ha":816,"x_min":0,"x_max":0,"o":"m 332 -162 l 377 -162 b 465 -199 435 -162 465 -171 b 385 -238 465 -229 425 -238 b 311 -229 353 -238 321 -232 l 311 -321 b 410 -333 338 -328 374 -333 b 601 -193 520 -333 601 -289 b 462 -73 601 -121 544 -79 l 500 -11 b 761 256 652 13 747 113 l 576 256 b 428 141 562 181 509 141 b 262 375 322 141 262 224 b 428 606 262 524 321 606 b 576 486 512 606 563 558 l 761 486 b 428 763 745 653 626 763 b 62 375 194 763 62 621 b 375 -14 62 145 174 7 l 332 -83 z "},"ḉ":{"ha":816,"x_min":0,"x_max":0,"o":"m 498 847 l 659 1086 l 471 1086 l 357 847 z m 332 -162 l 377 -162 b 465 -199 435 -162 465 -171 b 385 -238 465 -229 425 -238 b 311 -229 353 -238 321 -232 l 311 -321 b 410 -333 338 -328 374 -333 b 601 -193 520 -333 601 -289 b 462 -73 601 -121 544 -79 l 500 -11 b 761 256 652 13 747 113 l 576 256 b 428 141 562 181 509 141 b 262 375 322 141 262 224 b 428 606 262 524 321 606 b 576 486 512 606 563 558 l 761 486 b 428 763 745 653 626 763 b 62 375 194 763 62 621 b 375 -14 62 145 174 7 l 332 -83 z "},"d":{"ha":905,"x_min":0,"x_max":0,"o":"m 367 -12 b 595 117 471 -12 555 37 l 608 117 l 608 0 l 799 0 l 799 1032 l 602 1032 l 602 627 l 590 627 b 367 759 551 710 468 759 b 62 374 179 759 62 612 b 367 -12 62 136 178 -12 z m 434 599 b 604 373 539 599 604 513 b 434 148 604 233 540 148 b 265 374 328 148 265 233 b 434 599 265 514 329 599 z "},"ḋ":{"ha":905,"x_min":0,"x_max":0,"o":"m 701 1137 b 812 1246 762 1137 812 1185 b 701 1357 812 1308 762 1357 b 589 1246 640 1357 589 1308 b 701 1137 589 1185 640 1137 z m 367 -12 b 595 117 471 -12 555 37 l 608 117 l 608 0 l 799 0 l 799 1032 l 602 1032 l 602 627 l 590 627 b 367 759 551 710 468 759 b 62 374 179 759 62 612 b 367 -12 62 136 178 -12 z m 434 599 b 604 373 539 599 604 513 b 434 148 604 233 540 148 b 265 374 328 148 265 233 b 434 599 265 514 329 599 z "},"ḓ":{"ha":905,"x_min":0,"x_max":0,"o":"m 367 -12 b 595 117 471 -12 555 37 l 608 117 l 608 0 l 799 0 l 799 1032 l 602 1032 l 602 627 l 590 627 b 367 759 551 710 468 759 b 62 374 179 759 62 612 b 367 -12 62 136 178 -12 z m 434 599 b 604 373 539 599 604 513 b 434 148 604 233 540 148 b 265 374 328 148 265 233 b 434 599 265 514 329 599 z m 571 -86 l 374 -86 l 201 -326 l 376 -326 l 467 -182 l 479 -182 l 569 -326 l 744 -326 z "},"ḑ":{"ha":905,"x_min":0,"x_max":0,"o":"m 367 -12 b 595 117 471 -12 555 37 l 608 117 l 608 0 l 799 0 l 799 1032 l 602 1032 l 602 627 l 590 627 b 367 759 551 710 468 759 b 62 374 179 759 62 612 b 367 -12 62 136 178 -12 z m 434 599 b 604 373 539 599 604 513 b 434 148 604 233 540 148 b 265 374 328 148 265 233 b 434 599 265 514 329 599 z m 456 -335 l 568 -86 l 377 -86 l 311 -335 z "},"ḏ":{"ha":905,"x_min":0,"x_max":0,"o":"m 367 -12 b 595 117 471 -12 555 37 l 608 117 l 608 0 l 799 0 l 799 1032 l 602 1032 l 602 627 l 590 627 b 367 759 551 710 468 759 b 62 374 179 759 62 612 b 367 -12 62 136 178 -12 z m 434 599 b 604 373 539 599 604 513 b 434 148 604 233 540 148 b 265 374 328 148 265 233 b 434 599 265 514 329 599 z m 718 -133 l 227 -133 l 227 -252 l 718 -252 z "},"ď":{"ha":1034,"x_min":0,"x_max":0,"o":"m 891 1086 l 891 731 l 1010 731 l 1054 1086 z m 367 -12 b 595 117 471 -12 555 37 l 608 117 l 608 0 l 799 0 l 799 1032 l 602 1032 l 602 627 l 590 627 b 367 759 551 710 468 759 b 62 374 179 759 62 612 b 367 -12 62 136 178 -12 z m 434 599 b 604 373 539 599 604 513 b 434 148 604 233 540 148 b 265 374 328 148 265 233 b 434 599 265 514 329 599 z "},"ḍ":{"ha":905,"x_min":0,"x_max":0,"o":"m 367 -12 b 595 117 471 -12 555 37 l 608 117 l 608 0 l 799 0 l 799 1032 l 602 1032 l 602 627 l 590 627 b 367 759 551 710 468 759 b 62 374 179 759 62 612 b 367 -12 62 136 178 -12 z m 434 599 b 604 373 539 599 604 513 b 434 148 604 233 540 148 b 265 374 328 148 265 233 b 434 599 265 514 329 599 z m 473 -302 b 584 -193 534 -302 584 -254 b 473 -83 584 -132 534 -83 b 361 -193 412 -83 361 -132 b 473 -302 361 -254 412 -302 z "},"đ":{"ha":905,"x_min":0,"x_max":0,"o":"m 367 -12 b 595 117 471 -12 555 37 l 608 117 l 608 0 l 799 0 l 799 852 l 878 852 l 878 961 l 799 961 l 799 1032 l 602 1032 l 602 961 l 444 961 l 444 852 l 602 852 l 602 627 l 590 627 b 367 759 551 710 468 759 b 62 374 179 759 62 612 b 367 -12 62 136 178 -12 z m 434 599 b 604 373 539 599 604 513 b 434 148 604 233 540 148 b 265 374 328 148 265 233 b 434 599 265 514 329 599 z "},"e":{"ha":835,"x_min":0,"x_max":0,"o":"m 583 211 b 430 132 562 160 508 132 b 259 317 327 132 262 203 l 259 327 l 772 327 l 772 386 b 422 763 772 622 642 763 b 62 370 199 763 62 612 b 425 -16 62 128 197 -16 b 766 211 608 -16 737 72 z m 422 616 b 578 450 515 616 574 552 l 260 450 b 422 616 267 550 331 616 z "},"è":{"ha":835,"x_min":0,"x_max":0,"o":"m 353 847 l 494 847 l 380 1086 l 193 1086 z m 583 211 b 430 132 562 160 508 132 b 259 317 327 132 262 203 l 259 327 l 772 327 l 772 386 b 422 763 772 622 642 763 b 62 370 199 763 62 612 b 425 -16 62 128 197 -16 b 766 211 608 -16 737 72 z m 422 616 b 578 450 515 616 574 552 l 260 450 b 422 616 267 550 331 616 z "},"ȅ":{"ha":835,"x_min":0,"x_max":0,"o":"m 626 847 l 556 1086 l 381 1086 l 494 847 z m 378 847 l 264 1086 l 77 1086 l 241 847 z m 583 211 b 430 132 562 160 508 132 b 259 317 327 132 262 203 l 259 327 l 772 327 l 772 386 b 422 763 772 622 642 763 b 62 370 199 763 62 612 b 425 -16 62 128 197 -16 b 766 211 608 -16 737 72 z m 422 616 b 578 450 515 616 574 552 l 260 450 b 422 616 267 550 331 616 z "},"é":{"ha":835,"x_min":0,"x_max":0,"o":"m 495 847 l 655 1086 l 468 1086 l 355 847 z m 583 211 b 430 132 562 160 508 132 b 259 317 327 132 262 203 l 259 327 l 772 327 l 772 386 b 422 763 772 622 642 763 b 62 370 199 763 62 612 b 425 -16 62 128 197 -16 b 766 211 608 -16 737 72 z m 422 616 b 578 450 515 616 574 552 l 260 450 b 422 616 267 550 331 616 z "},"ê":{"ha":835,"x_min":0,"x_max":0,"o":"m 523 1086 l 326 1086 l 153 847 l 328 847 l 418 990 l 430 990 l 521 847 l 696 847 z m 583 211 b 430 132 562 160 508 132 b 259 317 327 132 262 203 l 259 327 l 772 327 l 772 386 b 422 763 772 622 642 763 b 62 370 199 763 62 612 b 425 -16 62 128 197 -16 b 766 211 608 -16 737 72 z m 422 616 b 578 450 515 616 574 552 l 260 450 b 422 616 267 550 331 616 z "},"ể":{"ha":835,"x_min":0,"x_max":0,"o":"m 550 1208 b 619 1221 568 1216 593 1221 b 690 1168 662 1221 690 1200 b 620 1097 690 1139 663 1112 l 684 1019 b 817 1187 768 1051 817 1112 b 642 1326 817 1273 750 1326 b 550 1312 609 1326 573 1321 z m 523 1080 l 326 1080 l 139 847 l 318 847 l 418 983 l 430 983 l 530 847 l 709 847 z m 583 211 b 430 132 562 160 508 132 b 259 317 327 132 262 203 l 259 327 l 772 327 l 772 386 b 422 763 772 622 642 763 b 62 370 199 763 62 612 b 425 -16 62 128 197 -16 b 766 211 608 -16 737 72 z m 422 616 b 578 450 515 616 574 552 l 260 450 b 422 616 267 550 331 616 z "},"ề":{"ha":835,"x_min":0,"x_max":0,"o":"m 774 1104 l 644 1330 l 461 1330 l 618 1104 z m 523 1080 l 326 1080 l 139 847 l 318 847 l 418 983 l 430 983 l 530 847 l 709 847 z m 583 211 b 430 132 562 160 508 132 b 259 317 327 132 262 203 l 259 327 l 772 327 l 772 386 b 422 763 772 622 642 763 b 62 370 199 763 62 612 b 425 -16 62 128 197 -16 b 766 211 608 -16 737 72 z m 422 616 b 578 450 515 616 574 552 l 260 450 b 422 616 267 550 331 616 z "},"ễ":{"ha":835,"x_min":0,"x_max":0,"o":"m 530 1135 b 700 1341 631 1135 700 1210 l 573 1341 b 513 1252 572 1278 552 1252 b 317 1345 457 1252 427 1345 b 149 1136 216 1345 149 1269 l 275 1136 b 335 1227 276 1200 296 1227 b 530 1135 391 1227 421 1135 z m 523 1080 l 326 1080 l 139 847 l 318 847 l 418 983 l 430 983 l 530 847 l 709 847 z m 583 211 b 430 132 562 160 508 132 b 259 317 327 132 262 203 l 259 327 l 772 327 l 772 386 b 422 763 772 622 642 763 b 62 370 199 763 62 612 b 425 -16 62 128 197 -16 b 766 211 608 -16 737 72 z m 422 616 b 578 450 515 616 574 552 l 260 450 b 422 616 267 550 331 616 z "},"ệ":{"ha":835,"x_min":0,"x_max":0,"o":"m 523 1086 l 326 1086 l 153 847 l 328 847 l 418 990 l 430 990 l 521 847 l 696 847 z m 583 211 b 430 132 562 160 508 132 b 259 317 327 132 262 203 l 259 327 l 772 327 l 772 386 b 422 763 772 622 642 763 b 62 370 199 763 62 612 b 425 -16 62 128 197 -16 b 766 211 608 -16 737 72 z m 422 616 b 578 450 515 616 574 552 l 260 450 b 422 616 267 550 331 616 z m 425 -302 b 536 -193 486 -302 536 -254 b 425 -83 536 -132 486 -83 b 313 -193 363 -83 313 -132 b 425 -302 313 -254 363 -302 z "},"ế":{"ha":835,"x_min":0,"x_max":0,"o":"m 570 1104 l 726 1104 l 883 1330 l 699 1330 z m 517 1088 l 332 1088 l 147 856 l 318 856 l 418 992 l 430 992 l 530 856 l 701 856 z m 583 211 b 430 132 562 160 508 132 b 259 317 327 132 262 203 l 259 327 l 772 327 l 772 386 b 422 763 772 622 642 763 b 62 370 199 763 62 612 b 425 -16 62 128 197 -16 b 766 211 608 -16 737 72 z m 422 616 b 578 450 515 616 574 552 l 260 450 b 422 616 267 550 331 616 z "},"ë":{"ha":835,"x_min":0,"x_max":0,"o":"m 261 866 b 366 970 319 866 366 911 b 261 1074 366 1028 319 1074 b 155 970 203 1074 155 1028 b 261 866 155 911 203 866 z m 587 866 b 692 970 646 866 692 911 b 587 1074 692 1028 646 1074 b 481 970 529 1074 481 1028 b 587 866 481 911 529 866 z m 583 211 b 430 132 562 160 508 132 b 259 317 327 132 262 203 l 259 327 l 772 327 l 772 386 b 422 763 772 622 642 763 b 62 370 199 763 62 612 b 425 -16 62 128 197 -16 b 766 211 608 -16 737 72 z m 422 616 b 578 450 515 616 574 552 l 260 450 b 422 616 267 550 331 616 z "},"ẹ":{"ha":835,"x_min":0,"x_max":0,"o":"m 583 211 b 430 132 562 160 508 132 b 259 317 327 132 262 203 l 259 327 l 772 327 l 772 386 b 422 763 772 622 642 763 b 62 370 199 763 62 612 b 425 -16 62 128 197 -16 b 766 211 608 -16 737 72 z m 422 616 b 578 450 515 616 574 552 l 260 450 b 422 616 267 550 331 616 z m 425 -302 b 536 -193 486 -302 536 -254 b 425 -83 536 -132 486 -83 b 313 -193 363 -83 313 -132 b 425 -302 313 -254 363 -302 z "},"ȇ":{"ha":835,"x_min":0,"x_max":0,"o":"m 690 846 b 424 1086 690 987 592 1086 b 158 846 256 1086 158 987 l 299 846 b 424 972 300 922 343 972 b 549 846 505 972 548 922 z m 583 211 b 430 132 562 160 508 132 b 259 317 327 132 262 203 l 259 327 l 772 327 l 772 386 b 422 763 772 622 642 763 b 62 370 199 763 62 612 b 425 -16 62 128 197 -16 b 766 211 608 -16 737 72 z m 422 616 b 578 450 515 616 574 552 l 260 450 b 422 616 267 550 331 616 z "},"ẻ":{"ha":835,"x_min":0,"x_max":0,"o":"m 303 1013 b 379 1026 321 1020 350 1026 b 453 972 425 1026 453 1004 b 380 901 453 943 423 916 l 444 823 b 580 991 528 855 580 916 b 409 1133 580 1077 510 1133 b 303 1116 366 1133 327 1124 z m 583 211 b 430 132 562 160 508 132 b 259 317 327 132 262 203 l 259 327 l 772 327 l 772 386 b 422 763 772 622 642 763 b 62 370 199 763 62 612 b 425 -16 62 128 197 -16 b 766 211 608 -16 737 72 z m 422 616 b 578 450 515 616 574 552 l 260 450 b 422 616 267 550 331 616 z "},"ě":{"ha":835,"x_min":0,"x_max":0,"o":"m 326 847 l 523 847 l 696 1086 l 521 1086 l 430 943 l 418 943 l 328 1086 l 153 1086 z m 583 211 b 430 132 562 160 508 132 b 259 317 327 132 262 203 l 259 327 l 772 327 l 772 386 b 422 763 772 622 642 763 b 62 370 199 763 62 612 b 425 -16 62 128 197 -16 b 766 211 608 -16 737 72 z m 422 616 b 578 450 515 616 574 552 l 260 450 b 422 616 267 550 331 616 z "},"ē":{"ha":835,"x_min":0,"x_max":0,"o":"m 670 1027 l 178 1027 l 178 907 l 670 907 z m 583 211 b 430 132 562 160 508 132 b 259 317 327 132 262 203 l 259 327 l 772 327 l 772 386 b 422 763 772 622 642 763 b 62 370 199 763 62 612 b 425 -16 62 128 197 -16 b 766 211 608 -16 737 72 z m 422 616 b 578 450 515 616 574 552 l 260 450 b 422 616 267 550 331 616 z "},"ḕ":{"ha":835,"x_min":0,"x_max":0,"o":"m 518 1122 l 374 1330 l 178 1330 l 348 1122 z m 670 1019 l 178 1019 l 178 900 l 670 900 z m 583 211 b 430 132 562 160 508 132 b 259 317 327 132 262 203 l 259 327 l 772 327 l 772 386 b 422 763 772 622 642 763 b 62 370 199 763 62 612 b 425 -16 62 128 197 -16 b 766 211 608 -16 737 72 z m 422 616 b 578 450 515 616 574 552 l 260 450 b 422 616 267 550 331 616 z "},"ḗ":{"ha":835,"x_min":0,"x_max":0,"o":"m 338 1111 l 500 1111 l 668 1322 l 477 1322 z m 670 1012 l 178 1012 l 178 892 l 670 892 z m 583 211 b 430 132 562 160 508 132 b 259 317 327 132 262 203 l 259 327 l 772 327 l 772 386 b 422 763 772 622 642 763 b 62 370 199 763 62 612 b 425 -16 62 128 197 -16 b 766 211 608 -16 737 72 z m 422 616 b 578 450 515 616 574 552 l 260 450 b 422 616 267 550 331 616 z "},"ẽ":{"ha":835,"x_min":0,"x_max":0,"o":"m 524 848 b 693 1063 625 848 693 929 l 570 1063 b 518 966 570 1002 555 966 b 328 1065 457 966 437 1065 b 161 851 229 1065 161 986 l 284 851 b 336 943 284 911 300 943 b 524 848 393 943 414 848 z m 583 211 b 430 132 562 160 508 132 b 259 317 327 132 262 203 l 259 327 l 772 327 l 772 386 b 422 763 772 622 642 763 b 62 370 199 763 62 612 b 425 -16 62 128 197 -16 b 766 211 608 -16 737 72 z m 422 616 b 578 450 515 616 574 552 l 260 450 b 422 616 267 550 331 616 z "},"ḙ":{"ha":835,"x_min":0,"x_max":0,"o":"m 583 211 b 430 132 562 160 508 132 b 259 317 327 132 262 203 l 259 327 l 772 327 l 772 386 b 422 763 772 622 642 763 b 62 370 199 763 62 612 b 425 -16 62 128 197 -16 b 766 211 608 -16 737 72 z m 422 616 b 578 450 515 616 574 552 l 260 450 b 422 616 267 550 331 616 z m 523 -86 l 326 -86 l 153 -326 l 328 -326 l 418 -182 l 431 -182 l 521 -326 l 696 -326 z "},"ĕ":{"ha":835,"x_min":0,"x_max":0,"o":"m 158 1086 b 424 846 158 945 256 846 b 690 1086 592 846 690 945 l 549 1086 b 424 960 548 1010 505 960 b 299 1086 343 960 300 1010 z m 583 211 b 430 132 562 160 508 132 b 259 317 327 132 262 203 l 259 327 l 772 327 l 772 386 b 422 763 772 622 642 763 b 62 370 199 763 62 612 b 425 -16 62 128 197 -16 b 766 211 608 -16 737 72 z m 422 616 b 578 450 515 616 574 552 l 260 450 b 422 616 267 550 331 616 z "},"ḛ":{"ha":835,"x_min":0,"x_max":0,"o":"m 583 211 b 430 132 562 160 508 132 b 259 317 327 132 262 203 l 259 327 l 772 327 l 772 386 b 422 763 772 622 642 763 b 62 370 199 763 62 612 b 425 -16 62 128 197 -16 b 766 211 608 -16 737 72 z m 422 616 b 578 450 515 616 574 552 l 260 450 b 422 616 267 550 331 616 z m 524 -300 b 693 -87 625 -300 693 -220 l 570 -87 b 519 -183 570 -147 555 -183 b 328 -84 457 -183 438 -84 b 161 -298 229 -84 161 -163 l 284 -298 b 336 -206 284 -238 301 -206 b 524 -300 394 -206 415 -300 z "},"ė":{"ha":835,"x_min":0,"x_max":0,"o":"m 424 861 b 536 971 486 861 536 910 b 424 1082 536 1033 486 1082 b 313 971 363 1082 313 1033 b 424 861 313 910 363 861 z m 583 211 b 430 132 562 160 508 132 b 259 317 327 132 262 203 l 259 327 l 772 327 l 772 386 b 422 763 772 622 642 763 b 62 370 199 763 62 612 b 425 -16 62 128 197 -16 b 766 211 608 -16 737 72 z m 422 616 b 578 450 515 616 574 552 l 260 450 b 422 616 267 550 331 616 z "},"ȩ":{"ha":835,"x_min":0,"x_max":0,"o":"m 321 -162 l 366 -162 b 454 -199 425 -162 454 -171 b 374 -238 454 -229 414 -238 b 300 -229 342 -238 311 -232 l 300 -321 b 399 -333 328 -328 364 -333 b 590 -193 509 -333 590 -289 b 451 -73 590 -121 534 -79 l 489 -12 b 766 211 637 6 741 89 l 583 211 b 430 132 562 160 508 132 b 259 317 327 132 262 203 l 259 327 l 772 327 l 772 386 b 422 763 772 622 642 763 b 62 370 199 763 62 612 b 366 -12 62 149 174 11 l 321 -83 z m 422 616 b 578 450 515 616 574 552 l 260 450 b 422 616 267 550 331 616 z "},"ḝ":{"ha":835,"x_min":0,"x_max":0,"o":"m 158 1086 b 424 846 158 945 256 846 b 690 1086 592 846 690 945 l 549 1086 b 424 960 548 1010 505 960 b 299 1086 343 960 300 1010 z m 321 -162 l 366 -162 b 454 -199 425 -162 454 -171 b 374 -238 454 -229 414 -238 b 300 -229 342 -238 311 -232 l 300 -321 b 399 -333 328 -328 364 -333 b 590 -193 509 -333 590 -289 b 451 -73 590 -121 534 -79 l 489 -12 b 766 211 637 6 741 89 l 583 211 b 430 132 562 160 508 132 b 259 317 327 132 262 203 l 259 327 l 772 327 l 772 386 b 422 763 772 622 642 763 b 62 370 199 763 62 612 b 366 -12 62 149 174 11 l 321 -83 z m 422 616 b 578 450 515 616 574 552 l 260 450 b 422 616 267 550 331 616 z "},"ę":{"ha":835,"x_min":0,"x_max":0,"o":"m 583 211 b 430 132 562 160 508 132 b 259 317 327 132 262 203 l 259 327 l 772 327 l 772 386 b 422 763 772 622 642 763 b 62 370 199 763 62 612 b 425 -16 62 128 197 -16 b 473 -14 441 -16 457 -15 b 376 -174 410 -59 376 -115 b 562 -315 376 -262 450 -315 b 656 -300 593 -315 625 -310 l 656 -189 b 607 -195 637 -194 621 -195 b 528 -127 552 -195 528 -160 b 658 49 528 -66 589 -12 b 766 211 714 87 752 143 z m 422 616 b 578 450 515 616 574 552 l 260 450 b 422 616 267 550 331 616 z "},"f":{"ha":567,"x_min":0,"x_max":0,"o":"m 157 0 l 354 0 l 354 590 l 509 590 l 509 740 l 350 740 l 350 803 b 456 900 350 868 378 900 b 515 896 481 900 502 898 l 515 1032 b 413 1040 486 1036 453 1040 b 157 817 233 1040 157 965 l 157 740 l 36 740 l 36 590 l 157 590 z "},"ḟ":{"ha":567,"x_min":0,"x_max":0,"o":"m 318 1117 b 430 1227 380 1117 430 1166 b 318 1337 430 1289 380 1337 b 207 1227 257 1337 207 1289 b 318 1117 207 1166 257 1117 z m 157 0 l 354 0 l 354 590 l 509 590 l 509 740 l 350 740 l 350 803 b 456 900 350 868 378 900 b 515 896 481 900 502 898 l 515 1032 b 413 1040 486 1036 453 1040 b 157 817 233 1040 157 965 l 157 740 l 36 740 l 36 590 l 157 590 z "},"g":{"ha":897,"x_min":0,"x_max":0,"o":"m 429 -283 b 798 1 654 -283 798 -173 l 798 747 l 606 747 l 606 627 l 594 627 b 367 759 554 709 468 759 b 60 380 177 759 60 611 b 363 11 60 156 176 11 b 588 132 468 11 547 54 l 600 132 l 600 -7 b 433 -143 600 -93 538 -143 b 281 -66 347 -143 292 -113 l 86 -66 b 429 -283 98 -197 230 -283 z m 431 162 b 263 380 324 162 263 246 b 431 599 263 515 325 599 b 602 380 538 599 602 515 b 431 162 602 246 538 162 z "},"ǵ":{"ha":897,"x_min":0,"x_max":0,"o":"m 506 847 l 666 1086 l 479 1086 l 366 847 z m 429 -283 b 798 1 654 -283 798 -173 l 798 747 l 606 747 l 606 627 l 594 627 b 367 759 554 709 468 759 b 60 380 177 759 60 611 b 363 11 60 156 176 11 b 588 132 468 11 547 54 l 600 132 l 600 -7 b 433 -143 600 -93 538 -143 b 281 -66 347 -143 292 -113 l 86 -66 b 429 -283 98 -197 230 -283 z m 431 162 b 263 380 324 162 263 246 b 431 599 263 515 325 599 b 602 380 538 599 602 515 b 431 162 602 246 538 162 z "},"ǧ":{"ha":897,"x_min":0,"x_max":0,"o":"m 336 847 l 534 847 l 707 1086 l 532 1086 l 441 943 l 429 943 l 338 1086 l 163 1086 z m 429 -283 b 798 1 654 -283 798 -173 l 798 747 l 606 747 l 606 627 l 594 627 b 367 759 554 709 468 759 b 60 380 177 759 60 611 b 363 11 60 156 176 11 b 588 132 468 11 547 54 l 600 132 l 600 -7 b 433 -143 600 -93 538 -143 b 281 -66 347 -143 292 -113 l 86 -66 b 429 -283 98 -197 230 -283 z m 431 162 b 263 380 324 162 263 246 b 431 599 263 515 325 599 b 602 380 538 599 602 515 b 431 162 602 246 538 162 z "},"ĝ":{"ha":897,"x_min":0,"x_max":0,"o":"m 534 1086 l 336 1086 l 163 847 l 338 847 l 429 990 l 441 990 l 532 847 l 707 847 z m 429 -283 b 798 1 654 -283 798 -173 l 798 747 l 606 747 l 606 627 l 594 627 b 367 759 554 709 468 759 b 60 380 177 759 60 611 b 363 11 60 156 176 11 b 588 132 468 11 547 54 l 600 132 l 600 -7 b 433 -143 600 -93 538 -143 b 281 -66 347 -143 292 -113 l 86 -66 b 429 -283 98 -197 230 -283 z m 431 162 b 263 380 324 162 263 246 b 431 599 263 515 325 599 b 602 380 538 599 602 515 b 431 162 602 246 538 162 z "},"ğ":{"ha":897,"x_min":0,"x_max":0,"o":"m 169 1086 b 435 846 169 945 267 846 b 701 1086 603 846 701 945 l 560 1086 b 435 960 559 1010 515 960 b 310 1086 354 960 311 1010 z m 429 -283 b 798 1 654 -283 798 -173 l 798 747 l 606 747 l 606 627 l 594 627 b 367 759 554 709 468 759 b 60 380 177 759 60 611 b 363 11 60 156 176 11 b 588 132 468 11 547 54 l 600 132 l 600 -7 b 433 -143 600 -93 538 -143 b 281 -66 347 -143 292 -113 l 86 -66 b 429 -283 98 -197 230 -283 z m 431 162 b 263 380 324 162 263 246 b 431 599 263 515 325 599 b 602 380 538 599 602 515 b 431 162 602 246 538 162 z "},"ḡ":{"ha":897,"x_min":0,"x_max":0,"o":"m 681 1027 l 189 1027 l 189 907 l 681 907 z m 429 -283 b 798 1 654 -283 798 -173 l 798 747 l 606 747 l 606 627 l 594 627 b 367 759 554 709 468 759 b 60 380 177 759 60 611 b 363 11 60 156 176 11 b 588 132 468 11 547 54 l 600 132 l 600 -7 b 433 -143 600 -93 538 -143 b 281 -66 347 -143 292 -113 l 86 -66 b 429 -283 98 -197 230 -283 z m 431 162 b 263 380 324 162 263 246 b 431 599 263 515 325 599 b 602 380 538 599 602 515 b 431 162 602 246 538 162 z "},"ġ":{"ha":897,"x_min":0,"x_max":0,"o":"m 435 861 b 547 971 496 861 547 910 b 435 1082 547 1033 496 1082 b 323 971 374 1082 323 1033 b 435 861 323 910 374 861 z m 429 -283 b 798 1 654 -283 798 -173 l 798 747 l 606 747 l 606 627 l 594 627 b 367 759 554 709 468 759 b 60 380 177 759 60 611 b 363 11 60 156 176 11 b 588 132 468 11 547 54 l 600 132 l 600 -7 b 433 -143 600 -93 538 -143 b 281 -66 347 -143 292 -113 l 86 -66 b 429 -283 98 -197 230 -283 z m 431 162 b 263 380 324 162 263 246 b 431 599 263 515 325 599 b 602 380 538 599 602 515 b 431 162 602 246 538 162 z "},"ģ":{"ha":897,"x_min":0,"x_max":0,"o":"m 452 1096 l 339 847 l 530 847 l 596 1096 z m 429 -283 b 798 1 654 -283 798 -173 l 798 747 l 606 747 l 606 627 l 594 627 b 367 759 554 709 468 759 b 60 380 177 759 60 611 b 363 11 60 156 176 11 b 588 132 468 11 547 54 l 600 132 l 600 -7 b 433 -143 600 -93 538 -143 b 281 -66 347 -143 292 -113 l 86 -66 b 429 -283 98 -197 230 -283 z m 431 162 b 263 380 324 162 263 246 b 431 599 263 515 325 599 b 602 380 538 599 602 515 b 431 162 602 246 538 162 z "},"h":{"ha":886,"x_min":0,"x_max":0,"o":"m 106 0 l 303 0 l 303 430 b 459 596 303 529 360 596 b 597 436 549 596 597 542 l 597 0 l 794 0 l 794 481 b 538 761 794 660 699 761 b 312 625 428 761 347 709 l 300 625 l 300 1032 l 106 1032 z "},"ḧ":{"ha":886,"x_min":0,"x_max":0,"o":"m 40 1141 b 145 1245 98 1141 145 1187 b 40 1349 145 1303 98 1349 b -66 1245 -18 1349 -66 1303 b 40 1141 -66 1187 -18 1141 z m 366 1141 b 471 1245 425 1141 471 1187 b 366 1349 471 1303 425 1349 b 260 1245 308 1349 260 1303 b 366 1141 260 1187 308 1141 z m 106 0 l 303 0 l 303 430 b 459 596 303 529 360 596 b 597 436 549 596 597 542 l 597 0 l 794 0 l 794 481 b 538 761 794 660 699 761 b 312 625 428 761 347 709 l 300 625 l 300 1032 l 106 1032 z "},"ȟ":{"ha":886,"x_min":0,"x_max":0,"o":"m 295 1131 l 488 1350 l 308 1350 l 209 1227 l 197 1227 l 98 1350 l -82 1350 l 111 1131 z m 106 0 l 303 0 l 303 430 b 459 596 303 529 360 596 b 597 436 549 596 597 542 l 597 0 l 794 0 l 794 481 b 538 761 794 660 699 761 b 312 625 428 761 347 709 l 300 625 l 300 1032 l 106 1032 z "},"ĥ":{"ha":886,"x_min":0,"x_max":0,"o":"m 111 1350 l -82 1131 l 98 1131 l 197 1254 l 209 1254 l 308 1131 l 488 1131 l 295 1350 z m 106 0 l 303 0 l 303 430 b 459 596 303 529 360 596 b 597 436 549 596 597 542 l 597 0 l 794 0 l 794 481 b 538 761 794 660 699 761 b 312 625 428 761 347 709 l 300 625 l 300 1032 l 106 1032 z "},"ḥ":{"ha":886,"x_min":0,"x_max":0,"o":"m 106 0 l 303 0 l 303 430 b 459 596 303 529 360 596 b 597 436 549 596 597 542 l 597 0 l 794 0 l 794 481 b 538 761 794 660 699 761 b 312 625 428 761 347 709 l 300 625 l 300 1032 l 106 1032 z m 450 -302 b 562 -193 511 -302 562 -254 b 450 -83 562 -132 511 -83 b 338 -193 389 -83 338 -132 b 450 -302 338 -254 389 -302 z "},"ḣ":{"ha":886,"x_min":0,"x_max":0,"o":"m 203 1137 b 315 1246 264 1137 315 1185 b 203 1357 315 1308 264 1357 b 92 1246 142 1357 92 1308 b 203 1137 92 1185 142 1137 z m 106 0 l 303 0 l 303 430 b 459 596 303 529 360 596 b 597 436 549 596 597 542 l 597 0 l 794 0 l 794 481 b 538 761 794 660 699 761 b 312 625 428 761 347 709 l 300 625 l 300 1032 l 106 1032 z "},"ḫ":{"ha":886,"x_min":0,"x_max":0,"o":"m 106 0 l 303 0 l 303 430 b 459 596 303 529 360 596 b 597 436 549 596 597 542 l 597 0 l 794 0 l 794 481 b 538 761 794 660 699 761 b 312 625 428 761 347 709 l 300 625 l 300 1032 l 106 1032 z m 184 -72 b 450 -313 184 -214 282 -313 b 716 -72 618 -313 716 -214 l 575 -72 b 450 -198 574 -149 531 -198 b 325 -72 370 -198 326 -149 z "},"ḩ":{"ha":886,"x_min":0,"x_max":0,"o":"m 106 0 l 180 0 l 128 -83 l 128 -162 l 173 -162 b 261 -199 231 -162 261 -171 b 181 -238 261 -229 221 -238 b 107 -229 149 -238 117 -232 l 107 -321 b 206 -333 134 -328 171 -333 b 397 -193 316 -333 397 -289 b 258 -73 397 -121 340 -79 l 303 0 l 303 430 b 459 596 303 529 360 596 b 597 436 549 596 597 542 l 597 0 l 794 0 l 794 481 b 538 761 794 660 699 761 b 312 625 428 761 347 709 l 300 625 l 300 1032 l 106 1032 z "},"ħ":{"ha":886,"x_min":0,"x_max":0,"o":"m 106 0 l 303 0 l 303 430 b 459 596 303 529 360 596 b 597 436 549 596 597 542 l 597 0 l 794 0 l 794 481 b 538 761 794 660 699 761 b 312 625 428 761 347 709 l 300 625 l 300 852 l 457 852 l 457 961 l 300 961 l 300 1032 l 106 1032 l 106 961 l 9 961 l 9 852 l 106 852 z "},"ẖ":{"ha":886,"x_min":0,"x_max":0,"o":"m 106 0 l 303 0 l 303 430 b 459 596 303 529 360 596 b 597 436 549 596 597 542 l 597 0 l 794 0 l 794 481 b 538 761 794 660 699 761 b 312 625 428 761 347 709 l 300 625 l 300 1032 l 106 1032 z m 696 -133 l 204 -133 l 204 -252 l 696 -252 z "},"i":{"ha":398,"x_min":0,"x_max":0,"o":"m 199 861 b 311 971 260 861 311 910 b 199 1082 311 1033 260 1082 b 87 971 138 1082 87 1033 b 199 861 87 910 138 861 z m 100 0 l 298 0 l 298 747 l 100 747 z "},"ì":{"ha":398,"x_min":0,"x_max":0,"o":"m 128 847 l 269 847 l 155 1086 l -32 1086 z m 100 0 l 298 0 l 298 747 l 100 747 z "},"ȉ":{"ha":398,"x_min":0,"x_max":0,"o":"m 401 847 l 332 1086 l 156 1086 l 270 847 z m 153 847 l 39 1086 l -148 1086 l 16 847 z m 100 0 l 298 0 l 298 747 l 100 747 z "},"í":{"ha":398,"x_min":0,"x_max":0,"o":"m 270 847 l 431 1086 l 243 1086 l 130 847 z m 100 0 l 298 0 l 298 747 l 100 747 z "},"î":{"ha":398,"x_min":0,"x_max":0,"o":"m 298 1086 l 100 1086 l -73 847 l 102 847 l 193 990 l 205 990 l 296 847 l 471 847 z m 100 0 l 298 0 l 298 747 l 100 747 z "},"ǐ":{"ha":398,"x_min":0,"x_max":0,"o":"m 100 847 l 298 847 l 471 1086 l 296 1086 l 205 943 l 193 943 l 102 1086 l -73 1086 z m 100 0 l 298 0 l 298 747 l 100 747 z "},"ï":{"ha":398,"x_min":0,"x_max":0,"o":"m 36 866 b 142 970 94 866 142 911 b 36 1074 142 1028 94 1074 b -69 970 -22 1074 -69 1028 b 36 866 -69 911 -22 866 z m 362 866 b 468 970 420 866 468 911 b 362 1074 468 1028 420 1074 b 257 970 304 1074 257 1028 b 362 866 257 911 304 866 z m 100 0 l 298 0 l 298 747 l 100 747 z "},"ḯ":{"ha":398,"x_min":0,"x_max":0,"o":"m 113 1116 l 275 1116 l 443 1330 l 253 1330 z m 36 867 b 142 971 94 867 142 913 b 36 1076 142 1029 94 1076 b -69 971 -22 1076 -69 1029 b 36 867 -69 913 -22 867 z m 362 867 b 468 971 420 867 468 913 b 362 1076 468 1029 420 1076 b 257 971 304 1076 257 1029 b 362 867 257 913 304 867 z m 100 0 l 298 0 l 298 747 l 100 747 z "},"ĭ":{"ha":398,"x_min":0,"x_max":0,"o":"m -66 1086 b 199 846 -66 945 31 846 b 465 1086 368 846 465 945 l 324 1086 b 199 960 323 1010 280 960 b 74 1086 119 960 75 1010 z m 100 0 l 298 0 l 298 747 l 100 747 z "},"ị":{"ha":398,"x_min":0,"x_max":0,"o":"m 199 861 b 311 971 260 861 311 910 b 199 1082 311 1033 260 1082 b 87 971 138 1082 87 1033 b 199 861 87 910 138 861 z m 100 0 l 298 0 l 298 747 l 100 747 z m 199 -302 b 311 -193 260 -302 311 -254 b 199 -83 311 -132 260 -83 b 87 -193 138 -83 87 -132 b 199 -302 87 -254 138 -302 z "},"ȋ":{"ha":398,"x_min":0,"x_max":0,"o":"m 465 846 b 199 1086 465 987 368 1086 b -66 846 31 1086 -66 987 l 74 846 b 199 972 75 922 119 972 b 324 846 280 972 323 922 z m 100 0 l 298 0 l 298 747 l 100 747 z "},"ī":{"ha":398,"x_min":0,"x_max":0,"o":"m 408 1027 l -10 1027 l -10 907 l 408 907 z m 100 0 l 298 0 l 298 747 l 100 747 z "},"ḭ":{"ha":398,"x_min":0,"x_max":0,"o":"m 199 861 b 311 971 260 861 311 910 b 199 1082 311 1033 260 1082 b 87 971 138 1082 87 1033 b 199 861 87 910 138 861 z m 100 0 l 298 0 l 298 747 l 100 747 z m 299 -300 b 468 -87 400 -300 468 -220 l 345 -87 b 294 -183 345 -147 330 -183 b 103 -84 232 -183 213 -84 b -64 -298 4 -84 -64 -163 l 59 -298 b 111 -206 59 -238 76 -206 b 299 -300 169 -206 190 -300 z "},"ỉ":{"ha":398,"x_min":0,"x_max":0,"o":"m 78 1013 b 155 1026 96 1020 125 1026 b 229 972 199 1026 229 1004 b 155 901 229 943 199 916 l 218 823 b 355 991 303 855 355 916 b 184 1133 355 1077 285 1133 b 78 1116 140 1133 102 1124 z m 100 0 l 298 0 l 298 747 l 100 747 z "},"ĩ":{"ha":398,"x_min":0,"x_max":0,"o":"m 299 848 b 468 1063 400 848 468 929 l 345 1063 b 294 966 345 1002 330 966 b 103 1065 232 966 213 1065 b -64 851 4 1065 -64 986 l 59 851 b 111 943 59 911 76 943 b 299 848 169 943 190 848 z m 100 0 l 298 0 l 298 747 l 100 747 z "},"į":{"ha":398,"x_min":0,"x_max":0,"o":"m 199 861 b 311 971 260 861 311 910 b 199 1082 311 1033 260 1082 b 87 971 138 1082 87 1033 b 199 861 87 910 138 861 z m 191 -315 b 289 -300 221 -315 258 -310 l 289 -189 b 242 -195 271 -193 256 -195 b 156 -125 184 -195 156 -166 b 298 0 156 -70 209 -17 l 298 747 l 100 747 l 100 4 b 4 -162 36 -44 4 -105 b 191 -315 4 -254 79 -315 z "},"j":{"ha":398,"x_min":0,"x_max":0,"o":"m 200 861 b 311 971 261 861 311 910 b 200 1082 311 1033 261 1082 b 88 971 139 1082 88 1033 b 200 861 88 910 139 861 z m 298 747 l 100 747 l 100 -19 b 5 -106 100 -81 75 -106 b -20 -105 -1 -106 -16 -106 l -20 -252 b 33 -254 -12 -253 19 -254 b 298 -24 206 -254 298 -177 z "},"ĵ":{"ha":398,"x_min":0,"x_max":0,"o":"m 298 1086 l 101 1086 l -72 847 l 103 847 l 194 990 l 206 990 l 296 847 l 471 847 z m 298 747 l 100 747 l 100 -19 b 5 -106 100 -81 75 -106 b -20 -105 -1 -106 -16 -106 l -20 -252 b 33 -254 -12 -253 19 -254 b 298 -24 206 -254 298 -177 z "},"k":{"ha":836,"x_min":0,"x_max":0,"o":"m 315 452 l 303 452 l 303 1032 l 106 1032 l 106 0 l 303 0 l 303 251 l 357 307 l 576 0 l 810 0 l 505 427 l 790 747 l 566 747 z "},"ḱ":{"ha":836,"x_min":0,"x_max":0,"o":"m 280 1131 l 452 1350 l 250 1350 l 134 1131 z m 315 452 l 303 452 l 303 1032 l 106 1032 l 106 0 l 303 0 l 303 251 l 357 307 l 576 0 l 810 0 l 505 427 l 790 747 l 566 747 z "},"ǩ":{"ha":836,"x_min":0,"x_max":0,"o":"m 297 1131 l 490 1350 l 310 1350 l 211 1227 l 199 1227 l 100 1350 l -80 1350 l 113 1131 z m 315 452 l 303 452 l 303 1032 l 106 1032 l 106 0 l 303 0 l 303 251 l 357 307 l 576 0 l 810 0 l 505 427 l 790 747 l 566 747 z "},"ḳ":{"ha":836,"x_min":0,"x_max":0,"o":"m 315 452 l 303 452 l 303 1032 l 106 1032 l 106 0 l 303 0 l 303 251 l 357 307 l 576 0 l 810 0 l 505 427 l 790 747 l 566 747 z m 441 -302 b 553 -193 503 -302 553 -254 b 441 -83 553 -132 503 -83 b 330 -193 380 -83 330 -132 b 441 -302 330 -254 380 -302 z "},"ḵ":{"ha":836,"x_min":0,"x_max":0,"o":"m 315 452 l 303 452 l 303 1032 l 106 1032 l 106 0 l 303 0 l 303 251 l 357 307 l 576 0 l 810 0 l 505 427 l 790 747 l 566 747 z m 687 -133 l 195 -133 l 195 -252 l 687 -252 z "},"ķ":{"ha":836,"x_min":0,"x_max":0,"o":"m 315 452 l 303 452 l 303 1032 l 106 1032 l 106 0 l 303 0 l 303 251 l 357 307 l 576 0 l 810 0 l 505 427 l 790 747 l 566 747 z m 425 -335 l 537 -86 l 346 -86 l 280 -335 z "},"l":{"ha":409,"x_min":0,"x_max":0,"o":"m 106 0 l 303 0 l 303 1032 l 106 1032 z "},"ĺ":{"ha":409,"x_min":0,"x_max":0,"o":"m 280 1131 l 452 1350 l 250 1350 l 134 1131 z m 106 0 l 303 0 l 303 1032 l 106 1032 z "},"ḽ":{"ha":409,"x_min":0,"x_max":0,"o":"m 106 0 l 303 0 l 303 1032 l 106 1032 z m 303 -86 l 106 -86 l -67 -326 l 108 -326 l 199 -182 l 211 -182 l 301 -326 l 476 -326 z "},"ŀ":{"ha":649,"x_min":0,"x_max":0,"o":"m 106 0 l 303 0 l 303 1032 l 106 1032 z m 529 371 b 649 486 602 371 649 419 b 529 601 649 553 602 601 b 409 486 456 601 409 553 b 529 371 409 419 456 371 z "},"ḷ":{"ha":409,"x_min":0,"x_max":0,"o":"m 106 0 l 303 0 l 303 1032 l 106 1032 z m 205 -302 b 316 -193 266 -302 316 -254 b 205 -83 316 -132 266 -83 b 93 -193 144 -83 93 -132 b 205 -302 93 -254 144 -302 z "},"ḹ":{"ha":409,"x_min":0,"x_max":0,"o":"m 450 1303 l -41 1303 l -41 1183 l 450 1183 z m 106 0 l 303 0 l 303 1032 l 106 1032 z m 205 -302 b 316 -193 266 -302 316 -254 b 205 -83 316 -132 266 -83 b 93 -193 144 -83 93 -132 b 205 -302 93 -254 144 -302 z "},"ḻ":{"ha":409,"x_min":0,"x_max":0,"o":"m 106 0 l 303 0 l 303 1032 l 106 1032 z m 450 -133 l -41 -133 l -41 -252 l 450 -252 z "},"ļ":{"ha":409,"x_min":0,"x_max":0,"o":"m 106 0 l 303 0 l 303 1032 l 106 1032 z m 188 -335 l 300 -86 l 109 -86 l 43 -335 z "},"ľ":{"ha":538,"x_min":0,"x_max":0,"o":"m 395 1086 l 395 731 l 515 731 l 558 1086 z m 106 0 l 303 0 l 303 1032 l 106 1032 z "},"ł":{"ha":409,"x_min":0,"x_max":0,"o":"m 106 0 l 303 0 l 303 555 l 387 596 l 387 733 l 303 692 l 303 1032 l 106 1032 l 106 596 l 22 555 l 22 418 l 106 459 z "},"m":{"ha":1288,"x_min":0,"x_max":0,"o":"m 99 0 l 296 0 l 296 450 b 429 598 296 536 351 598 b 552 472 506 598 552 552 l 552 0 l 742 0 l 742 459 b 873 598 742 540 793 598 b 998 463 957 598 998 553 l 998 0 l 1196 0 l 1196 513 b 954 763 1196 667 1103 763 b 728 625 849 763 763 708 l 716 625 b 509 763 686 711 614 763 b 302 625 411 763 333 711 l 290 625 l 290 747 l 99 747 z "},"ḿ":{"ha":1288,"x_min":0,"x_max":0,"o":"m 718 847 l 879 1086 l 692 1086 l 578 847 z m 99 0 l 296 0 l 296 450 b 429 598 296 536 351 598 b 552 472 506 598 552 552 l 552 0 l 742 0 l 742 459 b 873 598 742 540 793 598 b 998 463 957 598 998 553 l 998 0 l 1196 0 l 1196 513 b 954 763 1196 667 1103 763 b 728 625 849 763 763 708 l 716 625 b 509 763 686 711 614 763 b 302 625 411 763 333 711 l 290 625 l 290 747 l 99 747 z "},"ṁ":{"ha":1288,"x_min":0,"x_max":0,"o":"m 648 861 b 759 971 709 861 759 910 b 648 1082 759 1033 709 1082 b 536 971 587 1082 536 1033 b 648 861 536 910 587 861 z m 99 0 l 296 0 l 296 450 b 429 598 296 536 351 598 b 552 472 506 598 552 552 l 552 0 l 742 0 l 742 459 b 873 598 742 540 793 598 b 998 463 957 598 998 553 l 998 0 l 1196 0 l 1196 513 b 954 763 1196 667 1103 763 b 728 625 849 763 763 708 l 716 625 b 509 763 686 711 614 763 b 302 625 411 763 333 711 l 290 625 l 290 747 l 99 747 z "},"ṃ":{"ha":1288,"x_min":0,"x_max":0,"o":"m 99 0 l 296 0 l 296 450 b 429 598 296 536 351 598 b 552 472 506 598 552 552 l 552 0 l 742 0 l 742 459 b 873 598 742 540 793 598 b 998 463 957 598 998 553 l 998 0 l 1196 0 l 1196 513 b 954 763 1196 667 1103 763 b 728 625 849 763 763 708 l 716 625 b 509 763 686 711 614 763 b 302 625 411 763 333 711 l 290 625 l 290 747 l 99 747 z m 648 -302 b 759 -193 709 -302 759 -254 b 648 -83 759 -132 709 -83 b 536 -193 587 -83 536 -132 b 648 -302 536 -254 587 -302 z "},"n":{"ha":871,"x_min":0,"x_max":0,"o":"m 99 0 l 296 0 l 296 432 b 444 598 296 533 353 598 b 582 438 538 598 582 543 l 582 0 l 779 0 l 779 483 b 524 763 779 661 690 763 b 302 627 413 763 337 711 l 290 627 l 290 747 l 99 747 z "},"ǹ":{"ha":871,"x_min":0,"x_max":0,"o":"m 374 847 l 514 847 l 400 1086 l 213 1086 z m 99 0 l 296 0 l 296 432 b 444 598 296 533 353 598 b 582 438 538 598 582 543 l 582 0 l 779 0 l 779 483 b 524 763 779 661 690 763 b 302 627 413 763 337 711 l 290 627 l 290 747 l 99 747 z "},"ń":{"ha":871,"x_min":0,"x_max":0,"o":"m 515 847 l 675 1086 l 488 1086 l 375 847 z m 99 0 l 296 0 l 296 432 b 444 598 296 533 353 598 b 582 438 538 598 582 543 l 582 0 l 779 0 l 779 483 b 524 763 779 661 690 763 b 302 627 413 763 337 711 l 290 627 l 290 747 l 99 747 z "},"ñ":{"ha":871,"x_min":0,"x_max":0,"o":"m 545 848 b 713 1063 645 848 713 929 l 591 1063 b 538 966 591 1002 575 966 b 349 1065 477 966 458 1065 b 182 851 250 1065 182 986 l 304 851 b 357 943 304 911 321 943 b 545 848 414 943 435 848 z m 99 0 l 296 0 l 296 432 b 444 598 296 533 353 598 b 582 438 538 598 582 543 l 582 0 l 779 0 l 779 483 b 524 763 779 661 690 763 b 302 627 413 763 337 711 l 290 627 l 290 747 l 99 747 z "},"ṇ":{"ha":871,"x_min":0,"x_max":0,"o":"m 99 0 l 296 0 l 296 432 b 444 598 296 533 353 598 b 582 438 538 598 582 543 l 582 0 l 779 0 l 779 483 b 524 763 779 661 690 763 b 302 627 413 763 337 711 l 290 627 l 290 747 l 99 747 z m 444 -302 b 556 -193 506 -302 556 -254 b 444 -83 556 -132 506 -83 b 333 -193 383 -83 333 -132 b 444 -302 333 -254 383 -302 z "},"ṅ":{"ha":871,"x_min":0,"x_max":0,"o":"m 444 861 b 556 971 506 861 556 910 b 444 1082 556 1033 506 1082 b 333 971 383 1082 333 1033 b 444 861 333 910 383 861 z m 99 0 l 296 0 l 296 432 b 444 598 296 533 353 598 b 582 438 538 598 582 543 l 582 0 l 779 0 l 779 483 b 524 763 779 661 690 763 b 302 627 413 763 337 711 l 290 627 l 290 747 l 99 747 z "},"ň":{"ha":871,"x_min":0,"x_max":0,"o":"m 346 847 l 543 847 l 716 1086 l 541 1086 l 450 943 l 438 943 l 348 1086 l 173 1086 z m 99 0 l 296 0 l 296 432 b 444 598 296 533 353 598 b 582 438 538 598 582 543 l 582 0 l 779 0 l 779 483 b 524 763 779 661 690 763 b 302 627 413 763 337 711 l 290 627 l 290 747 l 99 747 z "},"ṋ":{"ha":871,"x_min":0,"x_max":0,"o":"m 99 0 l 296 0 l 296 432 b 444 598 296 533 353 598 b 582 438 538 598 582 543 l 582 0 l 779 0 l 779 483 b 524 763 779 661 690 763 b 302 627 413 763 337 711 l 290 627 l 290 747 l 99 747 z m 543 -86 l 346 -86 l 173 -326 l 348 -326 l 438 -182 l 450 -182 l 541 -326 l 716 -326 z "},"ṉ":{"ha":871,"x_min":0,"x_max":0,"o":"m 99 0 l 296 0 l 296 432 b 444 598 296 533 353 598 b 582 438 538 598 582 543 l 582 0 l 779 0 l 779 483 b 524 763 779 661 690 763 b 302 627 413 763 337 711 l 290 627 l 290 747 l 99 747 z m 690 -133 l 199 -133 l 199 -252 l 690 -252 z "},"ņ":{"ha":871,"x_min":0,"x_max":0,"o":"m 99 0 l 296 0 l 296 432 b 444 598 296 533 353 598 b 582 438 538 598 582 543 l 582 0 l 779 0 l 779 483 b 524 763 779 661 690 763 b 302 627 413 763 337 711 l 290 627 l 290 747 l 99 747 z m 427 -335 l 540 -86 l 349 -86 l 283 -335 z "},"o":{"ha":861,"x_min":0,"x_max":0,"o":"m 431 -16 b 799 374 661 -16 799 130 b 431 763 799 616 659 763 b 62 374 203 763 62 615 b 431 -16 62 130 201 -16 z m 431 140 b 265 374 325 140 265 226 b 431 606 265 520 326 606 b 596 374 535 606 596 520 b 431 140 596 226 536 140 z "},"ö":{"ha":861,"x_min":0,"x_max":0,"o":"m 267 866 b 373 970 326 866 373 911 b 267 1074 373 1028 326 1074 b 162 970 210 1074 162 1028 b 267 866 162 911 210 866 z m 593 866 b 699 970 652 866 699 911 b 593 1074 699 1028 652 1074 b 488 970 536 1074 488 1028 b 593 866 488 911 536 866 z m 431 -16 b 799 374 661 -16 799 130 b 431 763 799 616 659 763 b 62 374 203 763 62 615 b 431 -16 62 130 201 -16 z m 431 140 b 265 374 325 140 265 226 b 431 606 265 520 326 606 b 596 374 535 606 596 520 b 431 140 596 226 536 140 z "},"ø":{"ha":861,"x_min":0,"x_max":0,"o":"m 431 -16 b 799 374 661 -16 799 131 b 734 616 799 471 776 553 l 798 684 l 722 763 l 659 696 b 431 763 599 739 522 763 b 62 374 203 763 62 615 b 128 128 62 275 85 192 l 63 58 l 140 -20 l 204 50 b 431 -16 264 7 340 -16 z m 248 374 b 431 624 248 532 315 624 b 548 578 479 624 518 608 l 260 269 b 248 374 252 300 248 335 z m 431 123 b 315 167 383 123 344 138 l 602 474 b 612 374 609 445 612 411 b 431 123 612 216 547 123 z "},"õ":{"ha":861,"x_min":0,"x_max":0,"o":"m 530 848 b 699 1063 631 848 699 929 l 576 1063 b 525 966 576 1002 562 966 b 334 1065 463 966 444 1065 b 168 851 235 1065 168 986 l 290 851 b 342 943 290 911 307 943 b 530 848 400 943 421 848 z m 431 -16 b 799 374 661 -16 799 130 b 431 763 799 616 659 763 b 62 374 203 763 62 615 b 431 -16 62 130 201 -16 z m 431 140 b 265 374 325 140 265 226 b 431 606 265 520 326 606 b 596 374 535 606 596 520 b 431 140 596 226 536 140 z "},"ó":{"ha":861,"x_min":0,"x_max":0,"o":"m 501 847 l 662 1086 l 475 1086 l 361 847 z m 431 -16 b 799 374 661 -16 799 130 b 431 763 799 616 659 763 b 62 374 203 763 62 615 b 431 -16 62 130 201 -16 z m 431 140 b 265 374 325 140 265 226 b 431 606 265 520 326 606 b 596 374 535 606 596 520 b 431 140 596 226 536 140 z "},"ô":{"ha":861,"x_min":0,"x_max":0,"o":"m 529 1086 l 332 1086 l 159 847 l 334 847 l 425 990 l 437 990 l 527 847 l 702 847 z m 431 -16 b 799 374 661 -16 799 130 b 431 763 799 616 659 763 b 62 374 203 763 62 615 b 431 -16 62 130 201 -16 z m 431 140 b 265 374 325 140 265 226 b 431 606 265 520 326 606 b 596 374 535 606 596 520 b 431 140 596 226 536 140 z "},"ò":{"ha":861,"x_min":0,"x_max":0,"o":"m 359 847 l 500 847 l 387 1086 l 199 1086 z m 431 -16 b 799 374 661 -16 799 130 b 431 763 799 616 659 763 b 62 374 203 763 62 615 b 431 -16 62 130 201 -16 z m 431 140 b 265 374 325 140 265 226 b 431 606 265 520 326 606 b 596 374 535 606 596 520 b 431 140 596 226 536 140 z "},"ổ":{"ha":861,"x_min":0,"x_max":0,"o":"m 556 1208 b 626 1221 574 1216 599 1221 b 696 1168 668 1221 696 1200 b 627 1097 696 1139 670 1112 l 690 1019 b 823 1187 774 1051 823 1112 b 649 1326 823 1273 756 1326 b 556 1312 615 1326 580 1321 z m 529 1080 l 332 1080 l 145 847 l 324 847 l 425 983 l 437 983 l 536 847 l 715 847 z m 431 -16 b 799 374 661 -16 799 130 b 431 763 799 616 659 763 b 62 374 203 763 62 615 b 431 -16 62 130 201 -16 z m 431 140 b 265 374 325 140 265 226 b 431 606 265 520 326 606 b 596 374 535 606 596 520 b 431 140 596 226 536 140 z "},"ồ":{"ha":861,"x_min":0,"x_max":0,"o":"m 781 1104 l 651 1330 l 467 1330 l 625 1104 z m 529 1080 l 332 1080 l 145 847 l 324 847 l 425 983 l 437 983 l 536 847 l 715 847 z m 431 -16 b 799 374 661 -16 799 130 b 431 763 799 616 659 763 b 62 374 203 763 62 615 b 431 -16 62 130 201 -16 z m 431 140 b 265 374 325 140 265 226 b 431 606 265 520 326 606 b 596 374 535 606 596 520 b 431 140 596 226 536 140 z "}}}
